<?xml version="1.0" encoding="utf-8"?>
<!-- Generator: Adobe Illustrator 19.1.0, SVG Export Plug-In . SVG Version: 6.00 Build 0)  -->
<svg version="1.1" id="Layer_1" xmlns="http://www.w3.org/2000/svg" xmlns:xlink="http://www.w3.org/1999/xlink" x="0px" y="0px"
	 viewBox="0 0 1500 1500" style="enable-background:new 0 0 1500 1500;" xml:space="preserve">
<style type="text/css">
	.st0{fill:#00A99D;}
	.st1{fill:#F2F2F2;}
	.st2{fill:#ED1C24;}
	.st3{fill:#C1272D;}
	.st4{fill:#FF931E;}
	.st5{fill:#FFB81E;}
	.st6{fill:#F7BD89;}
	.st7{fill:#FBD5A0;}
	.st8{fill:#FFFFFF;}
	.st9{fill:#333333;stroke:#4D4D4D;stroke-width:4.1593;stroke-miterlimit:10;}
	.st10{fill:#4D4D4D;}
	.st11{fill:#808080;}
	.st12{fill:#323232;}
	.st13{fill:#989898;}
	.st14{fill:#CCCCCC;}
	.st15{fill:#B3B3B3;}
	.st16{fill:#656565;}
	.st17{fill:#4C3A2C;}
	.st18{fill:#261D16;}
</style>
<rect x="-1" y="1" class="st0" width="1500" height="1500"/>
<g>
	<circle class="st1" cx="519" cy="751" r="274.9"/>
	<g>
		<path class="st2" d="M602.5,903.4c-54.3,20-113.9,20-168.2,0c-5-1.8-9-7.7-9-12.8c0-4.4,0-8.7,0-13.1c0-5.1,4-7.6,9-5.8
			c54.3,20,113.9,20,168.2,0c5-1.8,9,0.7,9,5.8c0,4.4,0,8.7,0,13.1C611.4,895.7,607.4,901.6,602.5,903.4z"/>
		<path class="st3" d="M602.5,887.4c-54.3,27.8-113.9,27.8-168.2,0c-5-2.5-9-10.7-9-17.8c0-6,0-12.1,0-18.1c0-7.1,4-10.6,9-8
			c54.3,27.8,113.9,27.8,168.2,0c5-2.5,9,0.9,9,8c0,6,0,12.1,0,18.1C611.4,876.7,607.4,884.9,602.5,887.4z"/>
		<circle class="st3" cx="518.4" cy="910.2" r="7.7"/>
		<circle class="st4" cx="518.4" cy="909.1" r="6.6"/>
		<circle class="st5" cx="520.3" cy="911.4" r="2.3"/>
		<path class="st6" d="M685.3,767.6c5,68.5-69.1,130-165.9,129.9c-96.7,0.1-170.9-61.4-165.9-129.9c5-68.7,79.5-125.4,166.1-125.5
			C606.3,642.2,680.2,698.9,685.3,767.6z"/>
		<path class="st7" d="M519.3,632.5c-91,0-175.5,64.1-159.5,161.7c3.2,9,8.5,32.4,33.8,53.1c7.6,6.2,20.7,11.4,26.9,7.2
			c15.9-10.8-12.3-41.8,19.9-70.4c0,0-0.2,0-0.7,0c17.5-13.3,42.3-23.9,79.4-23.9c37.1,0,61.9,10.6,79.4,23.9c-0.4,0-0.7,0-0.7,0
			c32.2,28.6,4.1,59.6,19.9,70.4c6.2,4.2,19.4-1,26.9-7.2c25.3-20.7,30.7-44.1,33.9-53.1C694.5,696.5,610.3,632.5,519.3,632.5z"/>
		<path class="st17" d="M597.6,794.8c-15.3-18.8-44.3-36.8-78-36.8h-0.3h-0.1c-33.8,0-62.8,18-78,36.8
			c-15.8,19.2-10.1,27.3-10.1,45.7c0,66.6,23.3,47.4,39,55.4c16,7.8,32.2,5.1,49.2,5.1h0h0.3c17,0,33.2,2.6,49.2-5.2
			c15.6-8,39,11.6,39-55C607.7,822.4,613.4,814,597.6,794.8z"/>
		<g>
			<circle class="st6" cx="406.8" cy="765" r="27.9"/>
			<circle class="st6" cx="414" cy="752.6" r="7.2"/>
		</g>
		<g>
			<circle class="st6" cx="630.8" cy="765" r="27.9"/>
			<circle class="st6" cx="638" cy="752.6" r="7.2"/>
		</g>
		<path class="st6" d="M460.4,657.5c0,0-94.5,16.3-98.3,129.2c-0.1,1.7-1.9,2.8-3.4,1.9l-3-1.8l-2.3-29.6l4.3-60.4l39.4-29.1
			l35.4-14.3L460.4,657.5z"/>
		<path class="st6" d="M577.7,657.5c0,0,94.5,16.3,98.3,129.2c0.1,1.7,1.9,2.8,3.4,1.9l3-1.8l2.3-29.6l-4.3-60.4l-39.4-29.1
			l-35.4-14.3L577.7,657.5z"/>
		<g>
			<path class="st17" d="M460.5,657.5c0,0-111.3,15.4-101.7,125.9c0.5,5.6-22.2-23.9-39.8-32.9c-17.6-9-17-38.1-17-38.1
				s-0.3-50.7,70.8-65.7C443.9,631.8,460.5,657.5,460.5,657.5z"/>
			<path class="st17" d="M577.9,657.5c0,0,111.3,15.4,101.7,125.9c-0.5,5.6,22.2-23.9,39.8-32.9c17.6-9,17-38.1,17-38.1
				s0.3-50.7-70.8-65.7C594.6,631.8,577.9,657.5,577.9,657.5z"/>
		</g>
		<path class="st6" d="M519.4,737.1c-34.6,0-69.6,34-62.3,30.2c13.5-7.1,21.3-19.6,62.3-19.6c41,0,48.7,12.5,62.3,19.6
			C589,771.1,554,737.1,519.4,737.1z"/>
		<path class="st6" d="M519.4,722.2c-26.3,0-52.8,25.8-47.3,22.9c10.3-5.4,23.5-14.9,47.3-14.9s37,9.5,47.3,14.9
			C572.2,748.1,545.7,722.2,519.4,722.2z"/>
		<path class="st6" d="M519.2,638.5c-29,0-58.4,16.6-52.3,14.7c11.4-3.5,26-9.6,52.3-9.6c26.3,0,40.9,6.1,52.3,9.6
			C577.6,655.1,548.2,638.5,519.2,638.5z"/>
		<circle class="st4" cx="518.4" cy="935.3" r="20.6"/>
		<circle class="st5" cx="518.4" cy="935.4" r="18.5"/>
		<g>
			<path class="st4" d="M523.8,929.5c1.1,1,1.7,2.4,1.7,4.4s-0.6,3.4-1.7,4.4c-1.2,0.9-2.9,1.4-5.3,1.4h-2.1v4.5h-3.6v-16.1h5.7
				C520.9,928.1,522.7,928.6,523.8,929.5z M521.2,935.8c0.4-0.5,0.6-1.2,0.6-2.1c0-0.9-0.3-1.6-0.8-2c-0.6-0.4-1.4-0.6-2.6-0.6h-2
				v5.4h2.4C520,936.6,520.8,936.3,521.2,935.8z"/>
		</g>
		<g>
			<path class="st6" d="M401.4,733.3c0,0,22.6-4.3,29-5.9c5.1-1.3,12.9-10.1,14.5-2.4c1,4.6,0.6,35.8-11.8,50.5
				c-11.9,14-45.2-33.1-45.2-33.1L401.4,733.3z"/>
			<path class="st6" d="M637.8,733.3c0,0-22.6-4.3-29-5.9c-5.1-1.3-12.9-10.1-14.5-2.4c-1,4.6-0.6,35.8,11.8,50.5
				c11.9,14,45.2-33.1,45.2-33.1L637.8,733.3z"/>
			<g>
				<circle class="st8" cx="409.4" cy="760.3" r="27.9"/>
				<circle cx="408.2" cy="758.2" r="23.5"/>
				<circle class="st8" cx="405.5" cy="750.1" r="7.2"/>
			</g>
			<g>
				<circle class="st8" cx="629.3" cy="760.3" r="27.9"/>
				<circle cx="631.3" cy="758.2" r="23.5"/>
				<circle class="st8" cx="633.6" cy="750.1" r="7.2"/>
			</g>
		</g>
		<path class="st18" d="M576.7,869.3c0.5,0-35.4-3.4-56.9-3.3c-21.3,0-57.7,3.6-57.8,3.3c0,0,41.5-5.4,48.9-14.7
			c7.4-9.4,6-51.7,6-51.7c0-7.8-6.4-14.2-14.2-14.2c-1.5,0-3,0.3-4.4,0.7c0.1-0.5,0.2-0.9,0.4-1.3c2.6-6.1,12-8,21.3-8.2
			c9.3,0.1,18.7,2.1,21.3,8.2c0.2,0.5,0.3,1,0.4,1.5c-1.5-0.5-3.1-0.9-4.8-0.9c-7.8,0-14.2,6.4-14.2,14.2c0,0-1.5,44.2,5.3,51.6
			S576.7,869.3,576.7,869.3z"/>
	</g>
</g>
<g>
	<path class="st8" d="M901.5,678.5h42.9v1.4c3-1.3,6.1-2.4,9.3-3.2c3.2-0.8,6.4-1.2,9.8-1.2c7.2,0,13.9,1.4,20.1,4.1
		c6.2,2.7,11.6,6.4,16.1,11.1c4.6,4.7,8.1,10.2,10.7,16.4s3.8,12.9,3.8,19.9c0,7.1-1.2,13.8-3.7,20c-2.5,6.3-6,11.7-10.5,16.4
		c-4.5,4.7-9.9,8.3-16.1,11c-6.2,2.7-13,4-20.4,4c-4.2,0-8.1-0.4-11.7-1.2c-3.6-0.8-7.1-1.9-10.4-3.4v21.5h18.8v26H896v-26h16.1v-91
		h-10.6V678.5z M961.4,701.7c-4,0-7.7,1-11.2,3.1c-3.5,2.1-6.4,5-8.8,8.8v27.7c2,3.2,4.8,5.9,8.3,7.9c3.5,2,7.4,3,11.8,3
		c3.2,0,6.3-0.6,9.2-1.9c2.9-1.2,5.4-3,7.6-5.2c2.1-2.2,3.9-4.9,5.1-8c1.3-3.1,1.9-6.4,1.9-10c0-4-0.6-7.6-1.9-10.7
		c-1.2-3.2-2.9-5.8-5.1-8c-2.2-2.2-4.7-3.9-7.6-5C967.8,702.3,964.7,701.7,961.4,701.7z"/>
	<path class="st8" d="M1084.3,678.5h46.5v72.3h11.9v26H1101v-8.4c-3.4,3-7.3,5.4-11.8,7c-4.5,1.6-9.7,2.5-15.6,2.5
		c-5.4,0-10.6-0.9-15.4-2.6c-4.8-1.7-9-4.3-12.6-7.7c-3.6-3.4-6.4-7.8-8.4-13c-2.1-5.2-3.1-11.3-3.1-18.3v-31.9h-12.8v-26h43.5v57.9
		c0,6.6,1.7,11.5,5,14.8c3.4,3.3,7.7,4.9,13.1,4.9c3.8,0,7.2-1.2,10.3-3.5c3.1-2.3,5.3-5.5,6.7-9.5v-38.5h-15.8V678.5z"/>
	<path class="st8" d="M1225.1,771.7c-3.5,2-7.1,3.5-10.6,4.4c-3.5,0.9-7.2,1.3-10.8,1.3c-7.6,0-14.6-1.3-21-3.9
		c-6.4-2.6-11.9-6.2-16.6-10.8c-4.6-4.6-8.3-10-10.9-16.3c-2.6-6.3-3.9-13.1-3.9-20.4c0-6.9,1.2-13.4,3.7-19.5
		c2.5-6.1,6-11.4,10.5-16c4.5-4.6,9.9-8.2,16.1-10.9c6.3-2.7,13.1-4,20.4-4.1c4.5,0.1,8.6,0.5,12.4,1.4c3.8,0.9,7.3,2.1,10.6,3.6
		v-2.1h28.8v94.2c0,8.3-1.4,15.5-4.3,21.5c-2.8,6-6.7,11-11.4,15c-4.8,4-10.3,6.9-16.7,8.8c-6.3,1.9-13,2.9-19.9,2.9
		c-8.6,0-16.6-1.2-23.9-3.5c-7.3-2.3-13.8-5.5-19.5-9.5l11.9-21.1c4.4,2.8,9.1,5,14.2,6.6c5.1,1.6,10.8,2.4,17.1,2.4
		c3.4,0,6.6-0.4,9.4-1.1c2.9-0.8,5.4-2,7.5-3.8c2.1-1.8,3.8-4.2,5-7.3c1.2-3,1.8-6.9,1.8-11.5V771.7z M1204.6,751.1
		c4.4,0,8.4-1.1,12-3.4c3.6-2.2,6.4-5.2,8.5-8.9l0.2-23.9c-2.2-4-5.1-7.1-8.8-9.5c-3.7-2.3-7.8-3.5-12.1-3.6
		c-3.1,0.1-6.1,0.7-9.1,1.9c-3,1.2-5.6,2.8-7.7,5c-2.2,2.2-3.9,4.7-5.2,7.6c-1.3,2.9-1.9,6.2-1.9,9.8c0,3.8,0.6,7.2,1.9,10.3
		c1.3,3.1,3,5.7,5.1,7.9c2.1,2.2,4.7,3.8,7.6,5C1198,750.5,1201.2,751.1,1204.6,751.1z"/>
</g>
</svg>
