<?xml version="1.0" encoding="utf-8"?>
<!-- Generator: Adobe Illustrator 19.1.0, SVG Export Plug-In . SVG Version: 6.00 Build 0)  -->
<svg version="1.1" id="Layer_1" xmlns="http://www.w3.org/2000/svg" xmlns:xlink="http://www.w3.org/1999/xlink" x="0px" y="0px"
	 viewBox="0 0 1500 1500" style="enable-background:new 0 0 1500 1500;" xml:space="preserve">
<style type="text/css">
	.st0{fill:#00A99D;}
	.st1{fill:#F2F2F2;}
	.st2{fill:#ED1C24;}
	.st3{fill:#C1272D;}
	.st4{fill:#FF931E;}
	.st5{fill:#FFB81E;}
	.st6{fill:#F7BD89;}
	.st7{fill:#FBD5A0;}
	.st8{fill:#FFFFFF;}
	.st9{fill:#333333;stroke:#4D4D4D;stroke-width:4.1593;stroke-miterlimit:10;}
	.st10{fill:#4D4D4D;}
	.st11{fill:#808080;}
	.st12{fill:#323232;}
	.st13{fill:#989898;}
	.st14{fill:#CCCCCC;}
	.st15{fill:#B3B3B3;}
	.st16{fill:#656565;}
	.st17{fill:#4C3A2C;}
	.st18{fill:#261D16;}
</style>
<g>
	<rect x="0.9" class="st0" width="1500" height="1500"/>
	<g>
		<circle class="st1" cx="750.9" cy="595.5" r="274.9"/>
		<g>
			<path class="st2" d="M834.3,747.9c-54.3,20-113.9,20-168.2,0c-5-1.8-9-7.7-9-12.8c0-4.4,0-8.7,0-13.1c0-5.1,4-7.6,9-5.8
				c54.3,20,113.9,20,168.2,0c5-1.8,9,0.7,9,5.8c0,4.4,0,8.7,0,13.1C843.3,740.2,839.3,746.1,834.3,747.9z"/>
			<path class="st3" d="M834.3,731.9c-54.3,27.8-113.9,27.8-168.2,0c-5-2.5-9-10.7-9-17.8c0-6,0-12.1,0-18.1c0-7.1,4-10.6,9-8
				c54.3,27.8,113.9,27.8,168.2,0c5-2.5,9,0.9,9,8c0,6,0,12.1,0,18.1C843.3,721.2,839.3,729.4,834.3,731.9z"/>
			<circle class="st3" cx="750.2" cy="754.7" r="7.7"/>
			<circle class="st4" cx="750.2" cy="753.6" r="6.6"/>
			<circle class="st5" cx="752.2" cy="755.9" r="2.3"/>
			<path class="st6" d="M917.1,612.1c5,68.5-69.1,130-165.9,129.9c-96.7,0.1-170.9-61.4-165.9-129.9c5-68.7,79.5-125.4,166.1-125.5
				C838.1,486.7,912.1,543.4,917.1,612.1z"/>
			<path class="st7" d="M751.4,477c-91,0-175.5,64.1-159.5,161.7c3.2,9,8.5,32.4,33.8,53.1c7.6,6.2,20.7,11.4,26.9,7.2
				c15.9-10.8-12.3-41.8,19.9-70.4c0,0-0.2,0-0.7,0c17.5-13.3,42.3-23.9,79.4-23.9c37.1,0,61.9,10.6,79.4,23.9c-0.4,0-0.7,0-0.7,0
				c32.2,28.6,4.1,59.6,19.9,70.4c6.2,4.2,19.4-1,26.9-7.2c25.3-20.7,30.7-44.1,33.9-53.1C926.6,541,842.4,477,751.4,477z"/>
			<path class="st17" d="M829.7,639.6c-15.3-18.8-44.3-36.6-78-36.6h-0.3h-0.1c-33.8,0-62.8,17.7-78,36.6
				c-15.8,19.2-10.1,27.2-10.1,45.6c0,66.6,23.3,47.5,39,55.6c16,7.8,32.2,5.3,49.2,5.3h0h0.3c17,0,33.2,2.4,49.2-5.5
				c15.6-8,39,11.6,39-55C839.9,667.1,845.5,658.7,829.7,639.6z"/>
			<g>
				<circle class="st6" cx="638.7" cy="609.5" r="27.9"/>
				<circle class="st6" cx="645.9" cy="597.1" r="7.2"/>
			</g>
			<g>
				<circle class="st6" cx="862.7" cy="609.5" r="27.9"/>
				<circle class="st6" cx="869.9" cy="597.1" r="7.2"/>
			</g>
			<path class="st6" d="M692.2,502c0,0-94.5,16.3-98.3,129.2c-0.1,1.7-1.9,2.8-3.4,1.9l-3-1.8l-2.3-29.6l4.3-60.4l39.4-29.1
				l35.4-14.3L692.2,502z"/>
			<path class="st6" d="M809.6,502c0,0,94.5,16.3,98.3,129.2c0.1,1.7,1.9,2.8,3.4,1.9l3-1.8l2.3-29.6l-4.3-60.4l-39.4-29.1
				l-35.4-14.3L809.6,502z"/>
			<g>
				<path class="st17" d="M692.7,502c0,0-111.3,15.4-101.7,125.9c0.5,5.6-22.2-23.9-39.8-32.9c-17.6-9-17-38.1-17-38.1
					s-0.3-50.7,70.8-65.7C676,476.3,692.7,502,692.7,502z"/>
				<path class="st17" d="M810.1,502c0,0,111.3,15.4,101.7,125.9c-0.5,5.6,22.2-23.9,39.8-32.9c17.6-9,17-38.1,17-38.1
					s0.3-50.7-70.8-65.7C826.7,476.3,810.1,502,810.1,502z"/>
			</g>
			<path class="st6" d="M751.5,581.6c-34.6,0-69.6,34-62.3,30.2c13.5-7.1,21.3-19.6,62.3-19.6c41,0,48.7,12.5,62.3,19.6
				C821.1,615.6,786.1,581.6,751.5,581.6z"/>
			<path class="st6" d="M751.5,566.7c-26.3,0-52.8,25.8-47.3,22.9c10.3-5.4,23.5-14.9,47.3-14.9c23.8,0,37,9.5,47.3,14.9
				C804.4,592.6,777.8,566.7,751.5,566.7z"/>
			<path class="st6" d="M751.4,483c-29,0-58.4,16.6-52.3,14.7c11.4-3.5,26-9.6,52.3-9.6c26.3,0,40.9,6.1,52.3,9.6
				C809.7,499.6,780.4,483,751.4,483z"/>
			<circle class="st4" cx="750.2" cy="779.8" r="20.6"/>
			<circle class="st5" cx="750.2" cy="779.9" r="18.5"/>
			<g>
				<path class="st4" d="M755.7,774c1.1,1,1.7,2.4,1.7,4.4s-0.6,3.4-1.7,4.4c-1.2,0.9-2.9,1.4-5.3,1.4h-2.1v4.5h-3.6v-16.1h5.7
					C752.8,772.6,754.6,773.1,755.7,774z M753.1,780.3c0.4-0.5,0.6-1.2,0.6-2.1c0-0.9-0.3-1.6-0.8-2c-0.6-0.4-1.4-0.6-2.6-0.6h-2
					v5.4h2.4C751.8,781.1,752.6,780.8,753.1,780.3z"/>
			</g>
			<g>
				<path class="st6" d="M633.6,577.8c0,0,22.6-4.3,29-5.9c5.1-1.3,12.9-10.1,14.5-2.4c1,4.6,0.6,35.8-11.8,50.5
					c-11.9,14-45.2-33.1-45.2-33.1L633.6,577.8z"/>
				<path class="st6" d="M869.9,577.8c0,0-22.6-4.3-29-5.9c-5.1-1.3-12.9-10.1-14.5-2.4c-1,4.6-0.6,35.8,11.8,50.5
					c11.9,14,45.2-33.1,45.2-33.1L869.9,577.8z"/>
				<g>
					<circle class="st8" cx="641.2" cy="604.8" r="27.9"/>
					<circle cx="640.1" cy="602.7" r="23.5"/>
					<circle class="st8" cx="637.4" cy="594.6" r="7.2"/>
				</g>
				<g>
					<circle class="st8" cx="861.1" cy="604.8" r="27.9"/>
					<circle cx="863.1" cy="602.7" r="23.5"/>
					<circle class="st8" cx="865.4" cy="594.6" r="7.2"/>
				</g>
			</g>
			<path class="st18" d="M808.9,713.8c0.5,0-35.4-3.4-56.9-3.3c-21.3,0-57.7,3.6-57.8,3.3c0,0,41.5-5.4,48.9-14.7s6-51.7,6-51.7
				c0-7.8-6.4-14.2-14.2-14.2c-1.5,0-3,0.3-4.4,0.7c0.1-0.5,0.2-0.9,0.4-1.3c2.6-6.1,12-8,21.3-8.2c9.3,0.1,18.7,2.1,21.3,8.2
				c0.2,0.5,0.3,1,0.4,1.5c-1.5-0.5-3.1-0.9-4.8-0.9c-7.8,0-14.2,6.4-14.2,14.2c0,0-1.5,44.2,5.3,51.6
				C766.8,706.4,808.9,713.8,808.9,713.8z"/>
		</g>
	</g>
	<g>
		<path class="st8" d="M577.5,973.5h42.9v1.4c3-1.3,6.1-2.4,9.3-3.2c3.2-0.8,6.4-1.2,9.8-1.2c7.2,0,13.9,1.4,20.1,4.1
			c6.2,2.7,11.6,6.4,16.1,11.1c4.6,4.7,8.1,10.2,10.7,16.4c2.6,6.3,3.8,12.9,3.8,19.9c0,7.1-1.2,13.8-3.7,20
			c-2.5,6.3-6,11.7-10.5,16.4c-4.5,4.7-9.9,8.3-16.1,11c-6.2,2.7-13,4-20.4,4c-4.2,0-8.1-0.4-11.7-1.2c-3.6-0.8-7.1-1.9-10.4-3.4
			v21.5h18.8v26H572v-26h16.1v-91h-10.6V973.5z M637.4,996.8c-4,0-7.7,1-11.2,3.1c-3.5,2.1-6.4,5-8.8,8.8v27.7
			c2,3.2,4.8,5.9,8.3,7.9c3.5,2,7.4,3,11.8,3c3.2,0,6.3-0.6,9.2-1.9c2.9-1.2,5.4-3,7.6-5.2c2.1-2.2,3.9-4.9,5.1-8
			c1.3-3.1,1.9-6.4,1.9-10c0-4-0.6-7.6-1.9-10.7c-1.2-3.2-2.9-5.8-5.1-8c-2.2-2.2-4.7-3.9-7.6-5
			C643.8,997.3,640.7,996.8,637.4,996.8z"/>
		<path class="st8" d="M760.3,973.5h46.5v72.3h11.9v26H777v-8.4c-3.4,3-7.3,5.4-11.8,7c-4.5,1.6-9.7,2.5-15.6,2.5
			c-5.4,0-10.6-0.9-15.4-2.6c-4.8-1.7-9-4.3-12.6-7.7c-3.6-3.4-6.4-7.8-8.4-13c-2.1-5.2-3.1-11.3-3.1-18.3v-31.9h-12.8v-26h43.5
			v57.9c0,6.6,1.7,11.5,5,14.8c3.4,3.3,7.7,4.9,13.1,4.9c3.8,0,7.2-1.2,10.3-3.5c3.1-2.3,5.3-5.5,6.7-9.5v-38.5h-15.8V973.5z"/>
		<path class="st8" d="M901,1066.7c-3.5,2-7.1,3.5-10.6,4.4c-3.5,0.9-7.2,1.3-10.8,1.3c-7.6,0-14.6-1.3-21-3.9
			c-6.4-2.6-11.9-6.2-16.6-10.8c-4.6-4.6-8.3-10-10.9-16.3c-2.6-6.3-3.9-13.1-3.9-20.4c0-6.9,1.2-13.4,3.7-19.5
			c2.5-6.1,6-11.4,10.5-16c4.5-4.6,9.9-8.2,16.1-10.9c6.3-2.7,13.1-4,20.4-4.1c4.5,0.1,8.6,0.5,12.4,1.4c3.8,0.9,7.3,2.1,10.6,3.6
			v-2.1h28.8v94.2c0,8.3-1.4,15.5-4.3,21.5c-2.8,6-6.7,11-11.4,15c-4.8,4-10.3,6.9-16.7,8.8c-6.3,1.9-13,2.9-19.9,2.9
			c-8.6,0-16.6-1.2-23.9-3.5c-7.3-2.3-13.8-5.5-19.5-9.5l11.9-21.1c4.4,2.8,9.1,5,14.2,6.6c5.1,1.6,10.8,2.4,17.1,2.4
			c3.4,0,6.6-0.4,9.4-1.1c2.9-0.8,5.4-2,7.5-3.8c2.1-1.8,3.8-4.2,5-7.3c1.2-3,1.8-6.9,1.8-11.5V1066.7z M880.5,1046.1
			c4.4,0,8.4-1.1,12-3.4c3.6-2.2,6.4-5.2,8.5-8.9l0.2-23.9c-2.2-4-5.1-7.1-8.8-9.5c-3.7-2.3-7.8-3.5-12.1-3.6
			c-3.1,0.1-6.1,0.7-9.1,1.9c-3,1.2-5.6,2.8-7.7,5c-2.2,2.2-3.9,4.7-5.2,7.6c-1.3,2.9-1.9,6.2-1.9,9.8c0,3.8,0.6,7.2,1.9,10.3
			c1.3,3.1,3,5.7,5.1,7.9c2.1,2.2,4.7,3.8,7.6,5C873.9,1045.5,877.1,1046.1,880.5,1046.1z"/>
	</g>
</g>
</svg>
