<?xml version="1.0" encoding="utf-8"?>
<!-- Generator: Adobe Illustrator 19.1.0, SVG Export Plug-In . SVG Version: 6.00 Build 0)  -->
<svg version="1.1" id="Layer_1" xmlns="http://www.w3.org/2000/svg" xmlns:xlink="http://www.w3.org/1999/xlink" x="0px" y="0px"
	 viewBox="0 0 550 550" style="enable-background:new 0 0 550 550;" xml:space="preserve">
<style type="text/css">
	.st0{fill:#00A99D;}
	.st1{fill:#F2F2F2;}
	.st2{fill:#ED1C24;}
	.st3{fill:#C1272D;}
	.st4{fill:#FF931E;}
	.st5{fill:#FFB81E;}
	.st6{fill:#F7BD89;}
	.st7{fill:#FBD5A0;}
	.st8{fill:#FFFFFF;}
	.st9{fill:#333333;stroke:#4D4D4D;stroke-width:4.1593;stroke-miterlimit:10;}
	.st10{fill:#4D4D4D;}
	.st11{fill:#808080;}
	.st12{fill:#323232;}
	.st13{fill:#989898;}
	.st14{fill:#CCCCCC;}
	.st15{fill:#B3B3B3;}
	.st16{fill:#656565;}
	.st17{fill:#4C3A2C;}
	.st18{fill:#261D16;}
</style>
<g>
	<circle class="st1" cx="275.7" cy="273.7" r="274.9"/>
	<path class="st10" d="M358.5,436.4c-54.3,20-113.9,20-168.2,0c-5-1.8-9-7.7-9-12.8c0-4.4,0-8.7,0-13.1c0-5.1,4-7.6,9-5.8
		c54.3,20,113.9,20,168.2,0c5-1.8,9,0.7,9,5.8c0,4.4,0,8.7,0,13.1C367.5,428.7,363.4,434.6,358.5,436.4z"/>
	<path class="st12" d="M358.5,420.4c-54.3,27.8-113.9,27.8-168.2,0c-5-2.5-9-10.7-9-17.8c0-6,0-12.1,0-18.1c0-7.1,4-10.6,9-8
		c54.3,27.8,113.9,27.8,168.2,0c5-2.5,9,0.9,9,8c0,6,0,12.1,0,18.1C367.5,409.7,363.4,417.9,358.5,420.4z"/>
	<circle class="st12" cx="274.4" cy="443.2" r="7.7"/>
	<circle class="st13" cx="274.4" cy="442.1" r="6.6"/>
	<circle class="st14" cx="276.4" cy="444.4" r="2.3"/>
	<path class="st15" d="M441.3,300.6c5,68.5-69.1,130-165.9,129.9c-96.7,0.1-170.9-61.4-165.9-129.9c5-68.7,79.5-125.4,166.1-125.5
		C362.3,175.2,436.2,231.9,441.3,300.6z"/>
	<path class="st14" d="M275.1,165.5c-91,0-175.5,64.1-159.5,161.7c3.2,9,8.5,32.4,33.8,53.1c7.6,6.2,20.7,11.4,26.9,7.2
		c15.9-10.8-12.3-41.8,19.9-70.4c0,0-0.2,0-0.7,0c17.5-13.3,42.3-23.9,79.4-23.9c37.1,0,61.9,10.6,79.4,23.9c-0.4,0-0.7,0-0.7,0
		c32.2,28.6,4.1,59.6,19.9,70.4c6.2,4.2,19.4-1,26.9-7.2c25.3-20.7,30.7-44.1,33.9-53.1C450.3,229.5,366.1,165.5,275.1,165.5z"/>
	<path d="M353.4,327.3c-15.3-18.8-44.3-37.3-78-37.3h-0.3H275c-33.8,0-62.8,18.5-78,37.3c-15.8,19.2-10.1,27.6-10.1,45.9
		c0,66.6,23.3,47,39,55c16,7.8,32.2,4.8,49.2,4.8h0h0.3c17,0,33.2,3.1,49.2-4.7c15.6-8,39,11.6,39-55
		C363.5,354.9,369.2,346.5,353.4,327.3z"/>
	<g>
		<circle class="st15" cx="162.8" cy="298" r="27.9"/>
		<circle class="st15" cx="170" cy="285.5" r="7.2"/>
	</g>
	<g>
		<circle cx="165.3" cy="293.3" r="27.9"/>
		<circle class="st8" cx="172.4" cy="280.8" r="7.2"/>
	</g>
	<g>
		<circle class="st15" cx="386.8" cy="298" r="27.9"/>
		<circle class="st15" cx="394" cy="285.5" r="7.2"/>
	</g>
	<g>
		<circle cx="385.2" cy="293.3" r="27.9"/>
		<circle class="st8" cx="392.4" cy="280.8" r="7.2"/>
	</g>
	<path class="st15" d="M216.4,190.5c0,0-94.5,16.3-98.3,129.2c-0.1,1.7-1.9,2.8-3.4,1.9l-3-1.8l-2.3-29.6l4.3-60.4l39.4-29.1
		l35.4-14.3L216.4,190.5z"/>
	<path class="st15" d="M333.7,190.5c0,0,94.5,16.3,98.3,129.2c0.1,1.7,1.9,2.8,3.4,1.9l3-1.8l2.3-29.6l-4.3-60.4l-39.4-29.1
		l-35.4-14.3L333.7,190.5z"/>
	<line class="st9" x1="275.2" y1="334.6" x2="275.2" y2="394.3"/>
	<g>
		<path d="M216.4,190.5c0,0-111.3,15.4-101.7,125.9c0.5,5.6-22.2-23.9-39.8-32.9s-17-38.1-17-38.1s-0.3-50.7,70.8-65.7
			C199.7,164.8,216.4,190.5,216.4,190.5z"/>
		<path d="M333.7,190.5c0,0,111.3,15.4,101.7,125.9c-0.5,5.6,22.2-23.9,39.8-32.9c17.6-9,17-38.1,17-38.1s0.3-50.7-70.8-65.7
			C350.4,164.8,333.7,190.5,333.7,190.5z"/>
	</g>
	<path class="st15" d="M275.2,270.1c-34.6,0-69.6,34-62.3,30.2c13.5-7.1,21.3-19.6,62.3-19.6s48.7,12.5,62.3,19.6
		C344.8,304.1,309.8,270.1,275.2,270.1z"/>
	<path class="st15" d="M275.2,255.2c-26.3,0-52.8,25.8-47.3,22.9c10.3-5.4,23.5-14.9,47.3-14.9s37,9.5,47.3,14.9
		C328,281,301.5,255.2,275.2,255.2z"/>
	<path class="st15" d="M275,171.5c-29,0-58.4,16.6-52.3,14.7c11.4-3.5,26-9.6,52.3-9.6s40.9,6.1,52.3,9.6
		C333.4,188.1,304.1,171.5,275,171.5z"/>
	<g>
		<path class="st10" d="M275.7,391.3c-6.4,0.2-15,4.2-23.3,6.7c-7.9,2.7-15.5,3.8-12.5,4.3c10.3,0.4,21.7-3.5,35.8-3.3
			c14-0.2,25.4,3.7,35.8,3.3c3-0.4-4.6-1.5-12.5-4.3C290.7,395.5,282,391.5,275.7,391.3z"/>
	</g>
	<path class="st10" d="M301.3,315.4c3.3,7.3-8.1,19.2-26.2,19.2c-18.1,0-29.5-11.9-26.2-19.2c3.2-7.5,14.7-9.9,26.2-10
		C286.6,305.5,298.1,307.9,301.3,315.4z"/>
	<path class="st11" d="M281.7,311.4c0.8,1.8-2,4.7-6.5,4.7c-4.5,0-7.3-2.9-6.5-4.7c0.8-1.8,3.6-2.4,6.5-2.5
		C278,308.9,280.9,309.5,281.7,311.4z"/>
	<circle class="st13" cx="274.4" cy="468.3" r="20.6"/>
	<circle class="st14" cx="274.4" cy="468.4" r="18.5"/>
	<g>
		<path class="st16" d="M279.8,462.5c1.1,1,1.7,2.4,1.7,4.4s-0.6,3.4-1.7,4.4c-1.2,0.9-2.9,1.4-5.3,1.4h-2.1v4.5h-3.6v-16.1h5.7
			C276.9,461.1,278.7,461.6,279.8,462.5z M277.2,468.8c0.4-0.5,0.6-1.2,0.6-2.1c0-0.9-0.3-1.6-0.8-2s-1.4-0.6-2.6-0.6h-2v5.4h2.4
			C276,469.6,276.8,469.3,277.2,468.8z"/>
	</g>
</g>
</svg>
