<?xml version="1.0" encoding="utf-8"?>
<!-- Generator: Adobe Illustrator 19.1.0, SVG Export Plug-In . SVG Version: 6.00 Build 0)  -->
<svg version="1.1" id="Layer_1" xmlns="http://www.w3.org/2000/svg" xmlns:xlink="http://www.w3.org/1999/xlink" x="0px" y="0px"
	 viewBox="0 0 550 550" style="enable-background:new 0 0 550 550;" xml:space="preserve">
<style type="text/css">
	.st0{fill:#00A99D;}
	.st1{fill:#F2F2F2;}
	.st2{fill:#ED1C24;}
	.st3{fill:#C1272D;}
	.st4{fill:#FF931E;}
	.st5{fill:#FFB81E;}
	.st6{fill:#F7BD89;}
	.st7{fill:#FBD5A0;}
	.st8{fill:#FFFFFF;}
	.st9{fill:#333333;stroke:#4D4D4D;stroke-width:4.1593;stroke-miterlimit:10;}
	.st10{fill:#4D4D4D;}
	.st11{fill:#808080;}
	.st12{fill:#323232;}
	.st13{fill:#989898;}
	.st14{fill:#CCCCCC;}
	.st15{fill:#B3B3B3;}
	.st16{fill:#656565;}
	.st17{fill:#4C3A2C;}
	.st18{fill:#261D16;}
</style>
<g>
	<circle class="st1" cx="275" cy="274" r="274.9"/>
	<path class="st2" d="M357.8,436.8c-54.3,20-113.9,20-168.2,0c-5-1.8-9-7.7-9-12.8c0-4.4,0-8.7,0-13.1c0-5.1,4-7.6,9-5.8
		c54.3,20,113.9,20,168.2,0c5-1.8,9,0.7,9,5.8c0,4.4,0,8.7,0,13.1C366.8,429.1,362.8,434.9,357.8,436.8z"/>
	<path class="st3" d="M357.8,420.7c-54.3,27.8-113.9,27.8-168.2,0c-5-2.5-9-10.7-9-17.8c0-6,0-12.1,0-18.1c0-7.1,4-10.6,9-8
		c54.3,27.8,113.9,27.8,168.2,0c5-2.5,9,0.9,9,8c0,6,0,12.1,0,18.1C366.8,410,362.8,418.2,357.8,420.7z"/>
	<circle class="st3" cx="273.7" cy="443.5" r="7.7"/>
	<circle class="st4" cx="273.7" cy="442.4" r="6.6"/>
	<circle class="st5" cx="275.7" cy="444.7" r="2.3"/>
	<path class="st6" d="M440.6,300.9c5,68.5-69.1,130-165.9,129.9c-96.7,0.1-170.9-61.4-165.9-129.9c5-68.7,79.5-125.4,166.1-125.5
		C361.6,175.5,435.6,232.2,440.6,300.9z"/>
	<path class="st7" d="M274.4,165.8c-91,0-175.5,64.1-159.5,161.7c3.2,9,8.5,32.4,33.8,53.1c7.6,6.2,20.7,11.4,26.9,7.2
		c15.9-10.8-12.3-41.8,19.9-70.4c0,0-0.2,0-0.7,0c17.5-13.3,42.3-23.9,79.4-23.9c37.1,0,61.9,10.6,79.4,23.9c-0.4,0-0.7,0-0.7,0
		c32.2,28.6,4.1,59.6,19.9,70.4c6.2,4.2,19.4-1,26.9-7.2c25.3-20.7,30.7-44.1,33.9-53.1C449.6,229.9,365.4,165.8,274.4,165.8z"/>
	<path d="M352.7,327.6c-15.3-18.8-44.3-37.3-78-37.3h-0.3h-0.1c-33.8,0-62.8,18.5-78,37.3c-15.8,19.2-10.1,27.6-10.1,45.9
		c0,66.6,23.3,47,39,55c16,7.8,32.2,4.8,49.2,4.8h0h0.3c17,0,33.2,3.1,49.2-4.7c15.6-8,39,11.6,39-55
		C362.9,355.2,368.5,346.8,352.7,327.6z"/>
	<g>
		<circle class="st6" cx="162.2" cy="298.3" r="27.9"/>
		<circle class="st6" cx="169.3" cy="285.9" r="7.2"/>
	</g>
	<g>
		<circle cx="164.6" cy="293.6" r="27.9"/>
		<circle class="st8" cx="171.8" cy="281.2" r="7.2"/>
	</g>
	<g>
		<circle class="st6" cx="386.2" cy="298.3" r="27.9"/>
		<circle class="st6" cx="393.3" cy="285.9" r="7.2"/>
	</g>
	<g>
		<circle cx="384.5" cy="293.6" r="27.9"/>
		<circle class="st8" cx="391.7" cy="281.2" r="7.2"/>
	</g>
	<path class="st6" d="M215.7,190.9c0,0-94.5,16.3-98.3,129.2c-0.1,1.7-1.9,2.8-3.4,1.9l-3-1.8l-2.3-29.6l4.3-60.4l39.4-29.1
		l35.4-14.3L215.7,190.9z"/>
	<path class="st6" d="M333.1,190.9c0,0,94.5,16.3,98.3,129.2c0.1,1.7,1.9,2.8,3.4,1.9l3-1.8l2.3-29.6l-4.3-60.4L396.4,201L361,186.7
		L333.1,190.9z"/>
	<line class="st9" x1="274.6" y1="334.9" x2="274.6" y2="394.7"/>
	<g>
		<path d="M215.7,190.9c0,0-111.3,15.4-101.7,125.9c0.5,5.6-22.2-23.9-39.8-32.9s-17-38.1-17-38.1s-0.3-50.7,70.8-65.7
			S215.7,190.9,215.7,190.9z"/>
		<path d="M333.1,190.9c0,0,111.3,15.4,101.7,125.9c-0.5,5.6,22.2-23.9,39.8-32.9c17.6-9,17-38.1,17-38.1s0.3-50.7-70.8-65.7
			S333.1,190.9,333.1,190.9z"/>
	</g>
	<path class="st6" d="M274.5,270.4c-34.6,0-69.6,34-62.3,30.2c13.5-7.1,21.3-19.6,62.3-19.6s48.7,12.5,62.3,19.6
		C344.1,304.4,309.1,270.4,274.5,270.4z"/>
	<path class="st6" d="M274.5,255.6c-26.3,0-52.8,25.8-47.3,22.9c10.3-5.4,23.5-14.9,47.3-14.9s37,9.5,47.3,14.9
		C327.4,281.4,300.8,255.6,274.5,255.6z"/>
	<path class="st6" d="M274.4,171.8c-29,0-58.4,16.6-52.3,14.7c11.4-3.5,26-9.6,52.3-9.6s40.9,6.1,52.3,9.6
		C332.7,188.4,303.4,171.8,274.4,171.8z"/>
	<g>
		<path class="st10" d="M275,391.6c-6.4,0.2-15,4.2-23.3,6.7c-7.9,2.7-15.5,3.8-12.5,4.3c10.3,0.4,21.7-3.5,35.8-3.3
			c14-0.2,25.4,3.7,35.8,3.3c3-0.4-4.6-1.5-12.5-4.3C290,395.9,281.4,391.8,275,391.6z"/>
	</g>
	<path class="st10" d="M300.6,315.7c3.3,7.3-8.1,19.2-26.2,19.2c-18.1,0-29.5-11.9-26.2-19.2c3.2-7.5,14.7-9.9,26.2-10
		C285.9,305.9,297.5,308.3,300.6,315.7z"/>
	<path class="st11" d="M281,311.7c0.8,1.8-2,4.7-6.5,4.7c-4.5,0-7.3-2.9-6.5-4.7c0.8-1.8,3.6-2.4,6.5-2.5
		C277.4,309.3,280.2,309.9,281,311.7z"/>
	<circle class="st4" cx="273.7" cy="468.6" r="20.6"/>
	<circle class="st5" cx="273.7" cy="468.7" r="18.5"/>
	<g>
		<path class="st4" d="M279.2,462.8c1.1,1,1.7,2.4,1.7,4.4s-0.6,3.4-1.7,4.4c-1.2,0.9-2.9,1.4-5.3,1.4h-2.1v4.5h-3.6v-16.1h5.7
			C276.3,461.4,278.1,461.9,279.2,462.8z M276.5,469.2c0.4-0.5,0.6-1.2,0.6-2.1c0-0.9-0.3-1.6-0.8-2c-0.6-0.4-1.4-0.6-2.6-0.6h-2
			v5.4h2.4C275.3,469.9,276.1,469.6,276.5,469.2z"/>
	</g>
</g>
</svg>
