<?xml version="1.0" encoding="utf-8"?>
<!-- Generator: Adobe Illustrator 19.1.0, SVG Export Plug-In . SVG Version: 6.00 Build 0)  -->
<svg version="1.1" id="Layer_1" xmlns="http://www.w3.org/2000/svg" xmlns:xlink="http://www.w3.org/1999/xlink" x="0px" y="0px"
	 viewBox="0 0 1006.5 549.7" style="enable-background:new 0 0 1006.5 549.7;" xml:space="preserve">
<style type="text/css">
	.st0{fill:#00A99D;}
	.st1{fill:#F2F2F2;}
	.st2{fill:#ED1C24;}
	.st3{fill:#C1272D;}
	.st4{fill:#FF931E;}
	.st5{fill:#FFB81E;}
	.st6{fill:#F7BD89;}
	.st7{fill:#FBD5A0;}
	.st8{fill:#FFFFFF;}
	.st9{fill:#333333;stroke:#4D4D4D;stroke-width:4.1593;stroke-miterlimit:10;}
	.st10{fill:#4D4D4D;}
	.st11{fill:#808080;}
	.st12{fill:#323232;}
	.st13{fill:#989898;}
	.st14{fill:#CCCCCC;}
	.st15{fill:#B3B3B3;}
	.st16{fill:#656565;}
	.st17{fill:#4C3A2C;}
	.st18{fill:#261D16;}
</style>
<g>
	<g>
		<circle class="st8" cx="274.9" cy="274.9" r="274.9"/>
		<path d="M364.6,414.1c-58.9,21.7-123.6,21.7-182.5,0c-0.6-0.2-0.9-0.5-1.9-0.9c0,3.8,0,7.7,0,11.5c0,5.1,4.1,11,9.1,12.8
			c54.3,20,113.8,20,168.1,0c5-1.8,8.8-7.7,8.8-12.8c0-3.8,0-7.7,0-11.5C366.3,413.6,365.2,413.9,364.6,414.1z"/>
		<circle class="st8" cx="273.6" cy="444.4" r="7.7"/>
		<path d="M352.6,328.3c-15.3-18.8-44.3-37.5-78-37.5h-0.3h-0.1c-33.8,0-62.8,18.7-78,37.5c-15.8,19.2-10.1,27.6-10.1,46
			c0,66.6,23.3,46.9,39,54.9c16,7.8,32.2,4.6,49.2,4.6h0h0.3c17,0,33.2,3.3,49.2-4.6c15.6-8,39,11.6,39-55
			C362.7,355.9,368.4,347.5,352.6,328.3z"/>
		<g>
			<circle cx="164.5" cy="294.5" r="27.9"/>
			<circle class="st8" cx="171.6" cy="282" r="7.2"/>
		</g>
		<g>
			<circle cx="384.4" cy="294.5" r="27.9"/>
			<circle class="st8" cx="391.5" cy="282" r="7.2"/>
		</g>
		<g>
			<rect x="272.4" y="335.8" class="st8" width="4.2" height="59.8"/>
		</g>
		<g>
			<path d="M215.6,191.7c0,0-111.3,15.4-101.7,125.9c0.5,5.6-22.2-23.9-39.8-32.9s-17-38.1-17-38.1s-0.3-50.7,70.8-65.7
				C198.9,166,215.6,191.7,215.6,191.7z"/>
			<path d="M332.9,191.7c0,0,111.3,15.4,101.7,125.9c-0.5,5.6,22.2-23.9,39.8-32.9s17-38.1,17-38.1s0.3-50.7-70.8-65.7
				C349.6,166,332.9,191.7,332.9,191.7z"/>
		</g>
		<g>
			<path class="st8" d="M274.9,392.5c-6.4,0.2-15,4.2-23.3,6.7c-7.9,2.7-15.5,3.8-12.5,4.3c10.3,0.4,21.7-3.5,35.8-3.3
				c14-0.2,25.4,3.7,35.8,3.3c3-0.4-4.6-1.5-12.5-4.3C289.9,396.7,281.2,392.7,274.9,392.5z"/>
		</g>
		<path class="st8" d="M300.5,316.6c3.3,7.3-8.1,19.2-26.2,19.2c-18.1,0-29.5-11.9-26.2-19.2c3.2-7.5,14.7-9.9,26.2-10
			C285.8,306.7,297.3,309.1,300.5,316.6z"/>
		<circle cx="273.6" cy="469.4" r="20.6"/>
		<circle cx="273.6" cy="469.6" r="18.5"/>
		<g>
			<path class="st8" d="M279,463.7c1.1,1,1.7,2.4,1.7,4.4c0,2-0.6,3.4-1.7,4.4c-1.2,0.9-2.9,1.4-5.3,1.4h-2.1v4.5H268v-16.1h5.7
				C276.1,462.3,277.9,462.7,279,463.7z M276.4,470c0.4-0.5,0.6-1.2,0.6-2.1c0-0.9-0.3-1.6-0.8-2c-0.6-0.4-1.4-0.6-2.6-0.6h-2v5.4
				h2.4C275.2,470.7,276,470.5,276.4,470z"/>
		</g>
	</g>
	<g>
		<path d="M654.2,204.8h42.9v1.4c3-1.3,6.1-2.4,9.3-3.2c3.2-0.8,6.4-1.2,9.8-1.2c7.2,0,13.9,1.4,20.1,4.1
			c6.2,2.7,11.6,6.4,16.1,11.1c4.6,4.7,8.1,10.2,10.7,16.4c2.6,6.3,3.8,12.9,3.8,19.9c0,7.1-1.2,13.8-3.7,20
			c-2.5,6.3-6,11.7-10.5,16.4c-4.5,4.7-9.9,8.3-16.1,11c-6.2,2.7-13,4-20.4,4c-4.2,0-8.1-0.4-11.7-1.2c-3.6-0.8-7.1-1.9-10.4-3.4
			v21.5h18.8v26h-64.1v-26h16.1v-91h-10.6V204.8z M714.1,228.1c-4,0-7.7,1-11.2,3.1c-3.5,2.1-6.4,5-8.8,8.8v27.7
			c2,3.2,4.8,5.9,8.3,7.9c3.5,2,7.4,3,11.8,3c3.2,0,6.3-0.6,9.2-1.9c2.9-1.2,5.4-3,7.6-5.2c2.1-2.2,3.9-4.9,5.1-8
			c1.3-3.1,1.9-6.4,1.9-10c0-4-0.6-7.6-1.9-10.7c-1.2-3.2-2.9-5.8-5.1-8c-2.2-2.2-4.7-3.9-7.6-5
			C720.5,228.7,717.4,228.1,714.1,228.1z"/>
		<path d="M837,204.8h46.5v72.3h11.9v26h-41.7v-8.4c-3.4,3-7.3,5.4-11.8,7c-4.5,1.6-9.7,2.5-15.6,2.5c-5.4,0-10.6-0.9-15.4-2.6
			c-4.8-1.7-9-4.3-12.6-7.7c-3.6-3.4-6.4-7.8-8.4-13c-2.1-5.2-3.1-11.3-3.1-18.3v-31.9h-12.8v-26h43.5v57.9c0,6.6,1.7,11.5,5,14.8
			c3.4,3.3,7.7,4.9,13.1,4.9c3.8,0,7.2-1.2,10.3-3.5c3.1-2.3,5.3-5.5,6.7-9.5v-38.5H837V204.8z"/>
		<path d="M977.8,298c-3.5,2-7.1,3.5-10.6,4.4c-3.5,0.9-7.2,1.3-10.8,1.3c-7.6,0-14.6-1.3-21-3.9c-6.4-2.6-11.9-6.2-16.6-10.8
			c-4.6-4.6-8.3-10-10.9-16.3c-2.6-6.3-3.9-13.1-3.9-20.4c0-6.9,1.2-13.4,3.7-19.5c2.5-6.1,6-11.4,10.5-16
			c4.5-4.6,9.9-8.2,16.1-10.9c6.3-2.7,13.1-4,20.4-4.1c4.5,0.1,8.6,0.5,12.4,1.4c3.8,0.9,7.3,2.1,10.6,3.6v-2.1h28.8V299
			c0,8.3-1.4,15.5-4.3,21.5c-2.8,6-6.7,11-11.4,15c-4.8,4-10.3,6.9-16.7,8.8c-6.3,1.9-13,2.9-19.9,2.9c-8.6,0-16.6-1.2-23.9-3.5
			c-7.3-2.3-13.8-5.5-19.5-9.5l11.9-21.1c4.4,2.8,9.1,5,14.2,6.6c5.1,1.6,10.8,2.4,17.1,2.4c3.4,0,6.6-0.4,9.4-1.1
			c2.9-0.8,5.4-2,7.5-3.8c2.1-1.8,3.8-4.2,5-7.3c1.2-3,1.8-6.9,1.8-11.5V298z M957.3,277.4c4.4,0,8.4-1.1,12-3.4
			c3.6-2.2,6.4-5.2,8.5-8.9l0.2-23.9c-2.2-4-5.1-7.1-8.8-9.5c-3.7-2.3-7.8-3.5-12.1-3.6c-3.1,0.1-6.1,0.7-9.1,1.9
			c-3,1.2-5.6,2.8-7.7,5c-2.2,2.2-3.9,4.7-5.2,7.6c-1.3,2.9-1.9,6.2-1.9,9.8c0,3.8,0.6,7.2,1.9,10.3c1.3,3.1,3,5.7,5.1,7.9
			c2.1,2.2,4.7,3.8,7.6,5C950.7,276.8,953.9,277.4,957.3,277.4z"/>
	</g>
</g>
</svg>
