<?xml version="1.0" encoding="utf-8"?>
<!-- Generator: Adobe Illustrator 19.1.0, SVG Export Plug-In . SVG Version: 6.00 Build 0)  -->
<svg version="1.1" id="Layer_1" xmlns="http://www.w3.org/2000/svg" xmlns:xlink="http://www.w3.org/1999/xlink" x="0px" y="0px"
	 viewBox="0 0 550 550" style="enable-background:new 0 0 550 550;" xml:space="preserve">
<style type="text/css">
	.st0{fill:#00A99D;}
	.st1{fill:#F2F2F2;}
	.st2{fill:#ED1C24;}
	.st3{fill:#C1272D;}
	.st4{fill:#FF931E;}
	.st5{fill:#FFB81E;}
	.st6{fill:#F7BD89;}
	.st7{fill:#FBD5A0;}
	.st8{fill:#FFFFFF;}
	.st9{fill:#333333;stroke:#4D4D4D;stroke-width:4.1593;stroke-miterlimit:10;}
	.st10{fill:#4D4D4D;}
	.st11{fill:#808080;}
	.st12{fill:#323232;}
	.st13{fill:#989898;}
	.st14{fill:#CCCCCC;}
	.st15{fill:#B3B3B3;}
	.st16{fill:#656565;}
	.st17{fill:#4C3A2C;}
	.st18{fill:#261D16;}
</style>
<g>
	<circle class="st8" cx="275.7" cy="273.7" r="274.9"/>
	<path d="M365.4,413c-58.9,21.7-123.6,21.7-182.5,0c-0.6-0.2-0.9-0.5-1.9-0.9c0,3.8,0,7.7,0,11.5c0,5.1,4.2,11,9.1,12.8
		c54.3,20,113.8,20,168.1,0c5-1.8,8.8-7.7,8.8-12.8c0-3.8,0-7.7,0-11.5C367,412.4,366,412.7,365.4,413z"/>
	<circle class="st8" cx="274.4" cy="443.2" r="7.7"/>
	<path d="M353.4,327.3c-15.3-18.8-44.3-37.3-78-37.3h-0.3H275c-33.8,0-62.8,18.5-78,37.3c-15.8,19.2-10.1,27.6-10.1,45.9
		c0,66.6,23.3,47,39,55c16,7.8,32.2,4.8,49.2,4.8h0h0.3c17,0,33.2,3.1,49.2-4.7c15.6-8,39,11.6,39-55
		C363.5,354.9,369.2,346.5,353.4,327.3z"/>
	<g>
		<circle cx="165.3" cy="293.3" r="27.9"/>
		<circle class="st8" cx="172.4" cy="280.8" r="7.2"/>
	</g>
	<g>
		<circle cx="385.2" cy="293.3" r="27.9"/>
		<circle class="st8" cx="392.4" cy="280.8" r="7.2"/>
	</g>
	<g>
		<rect x="273.2" y="334.6" class="st8" width="4.2" height="59.8"/>
	</g>
	<g>
		<path d="M216.4,190.5c0,0-111.3,15.4-101.7,125.9c0.5,5.6-22.2-23.9-39.8-32.9s-17-38.1-17-38.1s-0.3-50.7,70.8-65.7
			C199.7,164.8,216.4,190.5,216.4,190.5z"/>
		<path d="M333.7,190.5c0,0,111.3,15.4,101.7,125.9c-0.5,5.6,22.2-23.9,39.8-32.9c17.6-9,17-38.1,17-38.1s0.3-50.7-70.8-65.7
			C350.4,164.8,333.7,190.5,333.7,190.5z"/>
	</g>
	<g>
		<path class="st8" d="M275.7,391.3c-6.4,0.2-15,4.2-23.3,6.7c-7.9,2.7-15.5,3.8-12.5,4.3c10.3,0.4,21.7-3.5,35.8-3.3
			c14-0.2,25.4,3.7,35.8,3.3c3-0.4-4.6-1.5-12.5-4.3C290.7,395.5,282,391.5,275.7,391.3z"/>
	</g>
	<path class="st8" d="M301.3,315.4c3.3,7.3-8.1,19.2-26.2,19.2c-18.1,0-29.5-11.9-26.2-19.2c3.2-7.5,14.7-9.9,26.2-10
		C286.6,305.5,298.1,307.9,301.3,315.4z"/>
	<circle cx="274.4" cy="468.3" r="20.6"/>
	<circle cx="274.4" cy="468.4" r="18.5"/>
	<g>
		<path class="st8" d="M279.8,462.5c1.1,1,1.7,2.4,1.7,4.4s-0.6,3.4-1.7,4.4c-1.2,0.9-2.9,1.4-5.3,1.4h-2.1v4.5h-3.6v-16.1h5.7
			C276.9,461.1,278.7,461.6,279.8,462.5z M277.2,468.8c0.4-0.5,0.6-1.2,0.6-2.1c0-0.9-0.3-1.6-0.8-2s-1.4-0.6-2.6-0.6h-2v5.4h2.4
			C276,469.6,276.8,469.3,277.2,468.8z"/>
	</g>
</g>
</svg>
