<?xml version="1.0" encoding="utf-8"?>
<!-- Generator: Adobe Illustrator 19.1.0, SVG Export Plug-In . SVG Version: 6.00 Build 0)  -->
<svg version="1.1" id="Layer_1" xmlns="http://www.w3.org/2000/svg" xmlns:xlink="http://www.w3.org/1999/xlink" x="0px" y="0px"
	 viewBox="0 0 1500 1500" style="enable-background:new 0 0 1500 1500;" xml:space="preserve">
<style type="text/css">
	.st0{fill:#00A99D;}
	.st1{fill:#F2F2F2;}
	.st2{fill:#ED1C24;}
	.st3{fill:#C1272D;}
	.st4{fill:#FF931E;}
	.st5{fill:#FFB81E;}
	.st6{fill:#F7BD89;}
	.st7{fill:#FBD5A0;}
	.st8{fill:#FFFFFF;}
	.st9{fill:#333333;stroke:#4D4D4D;stroke-width:4.1593;stroke-miterlimit:10;}
	.st10{fill:#4D4D4D;}
	.st11{fill:#808080;}
	.st12{fill:#323232;}
	.st13{fill:#989898;}
	.st14{fill:#CCCCCC;}
	.st15{fill:#B3B3B3;}
	.st16{fill:#656565;}
	.st17{fill:#4C3A2C;}
	.st18{fill:#261D16;}
</style>
<rect x="2" y="-0.5" class="st0" width="1500" height="1500"/>
<circle class="st1" cx="750" cy="750" r="274.9"/>
<g>
	<path class="st2" d="M832.8,912.8c-54.3,20-113.9,20-168.2,0c-5-1.8-9-7.7-9-12.8c0-4.4,0-8.7,0-13.1c0-5.1,4-7.6,9-5.8
		c54.3,20,113.9,20,168.2,0c5-1.8,9,0.7,9,5.8c0,4.4,0,8.7,0,13.1C841.8,905.1,837.8,910.9,832.8,912.8z"/>
	<path class="st3" d="M832.8,896.7c-54.3,27.8-113.9,27.8-168.2,0c-5-2.5-9-10.7-9-17.8c0-6,0-12.1,0-18.1c0-7.1,4-10.6,9-8
		c54.3,27.8,113.9,27.8,168.2,0c5-2.5,9,0.9,9,8c0,6,0,12.1,0,18.1C841.8,886.1,837.8,894.2,832.8,896.7z"/>
	<circle class="st3" cx="748.7" cy="919.6" r="7.7"/>
	<circle class="st4" cx="748.7" cy="918.4" r="6.6"/>
	<circle class="st5" cx="750.7" cy="920.7" r="2.3"/>
	<path class="st6" d="M915.6,776.9c5,68.5-69.1,130-165.9,129.9c-96.7,0.1-170.9-61.4-165.9-129.9c5-68.7,79.5-125.4,166.1-125.5
		C836.6,651.5,910.6,708.2,915.6,776.9z"/>
	<path class="st7" d="M749.4,641.8c-91,0-175.5,64.1-159.5,161.7c3.2,9,8.5,32.4,33.8,53.1c7.6,6.2,20.7,11.4,26.9,7.2
		c15.9-10.8-12.3-41.8,19.9-70.4c0,0-0.2,0-0.7,0c17.5-13.3,42.3-23.9,79.4-23.9c37.1,0,61.9,10.6,79.4,23.9c-0.4,0-0.7,0-0.7,0
		c32.2,28.6,4.1,59.6,19.9,70.4c6.2,4.2,19.4-1,26.9-7.2c25.3-20.7,30.7-44.1,33.9-53.1C924.6,705.9,840.4,641.8,749.4,641.8z"/>
	<path d="M827.7,804c-15.3-18.8-44.3-37-78-37h-0.3h-0.1c-33.8,0-62.8,18.2-78,37c-15.8,19.2-10.1,27.4-10.1,45.8
		c0,66.6,23.3,47.2,39,55.2c16,7.8,32.2,5,49.2,5h0h0.3c17,0,33.2,2.8,49.2-5.1c15.6-8,39,11.6,39-55
		C837.9,831.5,843.5,823.2,827.7,804z"/>
	<g>
		<circle class="st6" cx="637.2" cy="774.3" r="27.9"/>
		<circle class="st6" cx="644.3" cy="761.9" r="7.2"/>
	</g>
	<g>
		<circle cx="639.6" cy="769.6" r="27.9"/>
		<circle class="st8" cx="646.8" cy="757.2" r="7.2"/>
	</g>
	<g>
		<circle class="st6" cx="861.2" cy="774.3" r="27.9"/>
		<circle class="st6" cx="868.3" cy="761.9" r="7.2"/>
	</g>
	<g>
		<circle cx="859.5" cy="769.6" r="27.9"/>
		<circle class="st8" cx="866.7" cy="757.2" r="7.2"/>
	</g>
	<path class="st6" d="M690.7,666.9c0,0-94.5,16.3-98.3,129.2c-0.1,1.7-1.9,2.8-3.4,1.9l-3-1.8l-2.3-29.6l4.3-60.4l39.4-29.1
		l35.4-14.3L690.7,666.9z"/>
	<path class="st6" d="M808.1,666.9c0,0,94.5,16.3,98.3,129.2c0.1,1.7,1.9,2.8,3.4,1.9l3-1.8l2.3-29.6l-4.3-60.4L871.4,677L836,662.7
		L808.1,666.9z"/>
	<line class="st9" x1="749.6" y1="810.9" x2="749.6" y2="870.7"/>
	<g>
		<path d="M690.7,666.9c0,0-111.3,15.4-101.7,125.9c0.5,5.6-22.2-23.9-39.8-32.9c-17.6-9-17-38.1-17-38.1s-0.3-50.7,70.8-65.7
			C674,641.1,690.7,666.9,690.7,666.9z"/>
		<path d="M808.1,666.9c0,0,111.3,15.4,101.7,125.9c-0.5,5.6,22.2-23.9,39.8-32.9c17.6-9,17-38.1,17-38.1s0.3-50.7-70.8-65.7
			C824.7,641.1,808.1,666.9,808.1,666.9z"/>
	</g>
	<path class="st6" d="M749.5,746.4c-34.6,0-69.6,34-62.3,30.2c13.5-7.1,21.3-19.6,62.3-19.6c41,0,48.7,12.5,62.3,19.6
		C819.1,780.4,784.1,746.4,749.5,746.4z"/>
	<path class="st6" d="M749.5,731.6c-26.3,0-52.8,25.8-47.3,22.9c10.3-5.4,23.5-14.9,47.3-14.9c23.8,0,37,9.5,47.3,14.9
		C802.4,757.4,775.8,731.6,749.5,731.6z"/>
	<path class="st6" d="M749.4,647.8c-29,0-58.4,16.6-52.3,14.7c11.4-3.5,26-9.6,52.3-9.6c26.3,0,40.9,6.1,52.3,9.6
		C807.7,664.4,778.4,647.8,749.4,647.8z"/>
	<g>
		<path class="st10" d="M750,867.6c-6.4,0.2-15,4.2-23.3,6.7c-7.9,2.7-15.5,3.8-12.5,4.3c10.3,0.4,21.7-3.5,35.8-3.3
			c14-0.2,25.4,3.7,35.8,3.3c3-0.4-4.6-1.5-12.5-4.3C765,871.9,756.4,867.8,750,867.6z"/>
	</g>
	<path class="st10" d="M775.7,791.7c3.3,7.3-8.1,19.2-26.2,19.2c-18.1,0-29.5-11.9-26.2-19.2c3.2-7.5,14.7-9.9,26.2-10
		C760.9,781.9,772.5,784.3,775.7,791.7z"/>
	<path class="st11" d="M756,787.7c0.8,1.8-2,4.7-6.5,4.7c-4.5,0-7.3-2.9-6.5-4.7c0.8-1.8,3.6-2.4,6.5-2.5
		C752.4,785.3,755.2,785.9,756,787.7z"/>
	<circle class="st4" cx="748.7" cy="944.6" r="20.6"/>
	<circle class="st5" cx="748.7" cy="944.7" r="18.5"/>
	<g>
		<path class="st4" d="M754.2,938.8c1.1,1,1.7,2.4,1.7,4.4c0,2-0.6,3.4-1.7,4.4c-1.2,0.9-2.9,1.4-5.3,1.4h-2.1v4.5h-3.6v-16.1h5.7
			C751.3,937.4,753.1,937.9,754.2,938.8z M751.6,945.2c0.4-0.5,0.6-1.2,0.6-2.1c0-0.9-0.3-1.6-0.8-2c-0.6-0.4-1.4-0.6-2.6-0.6h-2
			v5.4h2.4C750.3,945.9,751.1,945.6,751.6,945.2z"/>
	</g>
</g>
</svg>
