<?xml version="1.0" encoding="utf-8"?>
<!-- Generator: Adobe Illustrator 19.1.0, SVG Export Plug-In . SVG Version: 6.00 Build 0)  -->
<svg version="1.1" id="Layer_1" xmlns="http://www.w3.org/2000/svg" xmlns:xlink="http://www.w3.org/1999/xlink" x="0px" y="0px"
	 viewBox="0 0 256 256" style="enable-background:new 0 0 256 256;" xml:space="preserve">
<style type="text/css">
	.st0{fill:#C1272D;}
	.st1{fill:#EFCCA3;}
	.st2{fill:#ED1C24;}
	.st3{fill:#CCAC8D;}
	.st4{fill:#FFFFFF;}
	.st5{fill:#FF931E;}
	.st6{fill:#FFB81E;}
	.st7{fill:#56332B;}
	.st8{fill:#442823;}
	.st9{fill:#7F4A41;}
	.st10{fill:#331712;}
	.st11{fill:#FFCC66;}
	.st12{fill:#CCCCCC;}
	.st13{fill:#B3B3B3;}
	.st14{fill:#989898;}
	.st15{fill:#323232;}
	.st16{fill:#1E1E1E;}
	.st17{fill:#4C4C4C;}
	.st18{fill:#E6E6E6;}
	.st19{fill:#606060;}
</style>
<g>
	<path class="st0" d="M181.4,192.3c-34.3,17.5-71.9,17.5-106.2,0c-3.1-1.6-5.7-6.7-5.7-11.2c0-3.8,0-7.6,0-11.4
		c0-4.5,2.5-6.7,5.7-5.1c34.3,17.5,71.9,17.5,106.2,0c3.1-1.6,5.7,0.6,5.7,5.1c0,3.8,0,7.6,0,11.4
		C187,185.5,184.5,190.7,181.4,192.3z"/>
	<path class="st12" d="M214.3,93.2c-0.5-8.7,0.5-16.5-3.4-23.2c-9.5-16.5-33.4-26-81.9-26v0c0,0-0.5,0-0.5,0c0,0,0.5,0,0.5,0v0
		c-47,0-73,9.6-82.5,26.1c-3.9,6.7-3.3,14.5-3.8,23.2c-0.4,7-3.5,14.5-2.2,22.5c1.6,10.4,2.3,20.7,3.9,30.4
		c1.3,7.9,11.8,14.3,12.8,21.8c2.8,20.4,23.3,29.7,71.8,29.7v0.2h-0.7h0.2h0.4v-0.2c49,0,68.6-9.4,71.3-29.8
		c1-7.5,11.1-14,12.4-21.8c1.6-9.6,2.2-20,3.9-30.4C217.8,107.7,214.7,100.2,214.3,93.2z"/>
	<path d="M181.4,202.4c-34.3,12.6-71.9,12.6-106.2,0c-3.1-1.2-5.7-4.9-5.7-8.1c0-2.7,0-5.5,0-8.2c0-3.2,2.5-4.8,5.7-3.6
		c34.3,12.6,71.9,12.6,106.2,0c3.1-1.2,5.7,0.4,5.7,3.6c0,2.7,0,5.5,0,8.2C187,197.6,184.5,201.3,181.4,202.4z"/>
	<path class="st13" d="M128.4,99.8c8.7,0.1,14.7,6,20.3,11c6.6,5.8,18,10,22.6,14.9c4.6,4.9,10.6,10.2,12.9,18
		c2.3,7.8,2.9,17.8,2.9,20.4c0,2.6,1.5,2,5.4,0c9.4-4.7,19.9-17,19.9-17c-1.3,7.9-11.4,14-12.4,21.5c-2.8,20.4-22.6,29.4-71.5,29.4
		h-0.2h-0.1h0.7"/>
	<path class="st13" d="M160.2,84.8c1.9,6.3,8.2,27.3-4.2,20.2c0,0,5.1,3,8.4,14.3c3.3,11.3,11.6,12.8,11.6,12.8s13.4,2.6,23.4-5.9
		c8.5-7.2,9.8-20.1,6.3-29.7s-10.1-12.7-19.5-14.7C176.9,79.7,158.1,77.9,160.2,84.8z"/>
	<circle cx="184" cy="107.7" r="17.6"/>
	<circle class="st4" cx="179.5" cy="99.8" r="4.5"/>
	<path class="st12" d="M157.3,106.8c0,0,15.9,10.7,24.5,21.4s8.4,12.7,8.4,12.7l-6.1,2.7c0,0-8.8-16.6-19.7-22.8
		c-10.9-6.3-12.2-11.5-12.2-11.5L157.3,106.8z"/>
	<circle class="st14" cx="128.3" cy="206" r="4.2"/>
	<circle class="st12" cx="129.5" cy="207.4" r="1.5"/>
	<circle class="st14" cx="128.3" cy="212.4" r="2.8"/>
	<circle class="st12" cx="129.1" cy="213.4" r="1"/>
	<path class="st13" d="M129,99.8c-8.7,0.1-15,6-20.6,11c-6.6,5.8-18.1,10-22.7,14.9c-4.6,4.9-10.7,10.2-12.9,18
		c-2.3,7.8-2.9,17.8-2.9,20.4c0,2.6,0.5,2.8-5.5,0c-9.5-4.5-19.9-17-19.9-17c1.3,7.9,11.4,14,12.4,21.5C59.6,189,79.5,198,128.4,198
		h0.2h0.1h0.3"/>
	<path class="st15" d="M175.8,134c-9.6-11.9-25-23-46.4-23h-0.2h0c-21.3,0-36.7,11.2-46.4,23c-10,12.1-9.3,17.1-9.3,28.7
		c0,42.1,14.7,29.4,24.6,34.5c10.1,4.9,20.3,2.8,31.1,2.8h0h0.2c10.7,0,21,2.1,31.1-2.9c9.9-5.1,24.6,7.7,24.6-34.4
		C185,151.1,185.7,146.1,175.8,134z"/>
	<path class="st16" d="M128.3,121.8c0,0-1.3,19.3-4.2,23.1l5.2-1.3L128.3,121.8z"/>
	<path class="st16" d="M129.6,121.8c0,0,1.3,19.3,4.2,23.1l-5.2-1.3L129.6,121.8z"/>
	<path class="st15" d="M112.9,117.3c-2.1-4.6,5.1-12.1,16.5-12.1c11.4,0,18.6,7.5,16.5,12.1c-2,4.7-9.3,6.2-16.5,6.3
		C122.2,123.5,114.9,122,112.9,117.3z"/>
	<path d="M129.6,121.8c0-0.9,6.9-1,10.4-3.4c0,0-7.4,2.3-9.1,1.5c-1.6-0.9-1.9-3.2-2.1-3.2s-0.5,2.5-1.9,3.2
		c-1.4,0.8-9.8-1.5-9.8-1.5s11.2,2.7,11.1,3.4c-0.1,0.7-0.1,2.5-0.1,4c0,5,0.1,17.4,0.7,18.4c1.2,1.8,0.7-13.4,0.7-18.4
		C129.7,124.3,129.6,122.7,129.6,121.8z"/>
	<path class="st17" d="M129.8,148.7c3.4,0,9.4,2.3,14.8,6.1c-5.3-5.7-11.4-9.8-14.8-9.8c-3.6,0-11.2,4.4-16.7,10.8
		C119,151.4,126.1,148.7,129.8,148.7z"/>
	<path class="st16" d="M128.5,184c-7.7,0-15-2.4-21.8-4.2c-1.5-0.4-2.9,0.7-4.3,0.2c-12.5-4-22.8-10.9-29-19.3c0,0.7,0,1.4,0,2.1
		c0,42.1,14.7,29.4,24.6,34.5c10.1,4.9,20.3,2.8,31.1,2.8h0h0.2c10.7,0,21,2.1,31.1-2.9c9.9-5.1,24.6,7.6,24.6-34.4
		c0-1.6,0.1-3,0.2-4.4c-5.9,9.3-16.4,16.9-29.6,21.4c-1.2,0.4-4-0.6-5.3-0.3C143.1,181.4,136.8,184,128.5,184z"/>
	<path class="st16" d="M109.4,161.4c0,0-5,15-1.6,21.6l-4.6-2.1C103.2,181,106.8,165.8,109.4,161.4z"/>
	<path class="st16" d="M149.2,161.4c0,0,5,15,1.6,21.6l4.6-2.1C155.3,181,151.8,165.8,149.2,161.4z"/>
	<path class="st13" d="M96.7,84.8c-1.9,6.3-8.2,27.3,4.2,20.2c0,0-5.1,3-8.4,14.3S80.8,132,80.8,132s-13.4,2.6-23.4-5.9
		c-8.5-7.2-9.8-20.1-6.3-29.7s10.1-12.7,19.5-14.7C80.1,79.7,98.8,77.9,96.7,84.8z"/>
	<path d="M129.3,145.1c5.3,0,22.1,11.5,22.5,25.9c0-0.2,0-0.5,0-0.7c0-14.7-13.6-26.6-22.5-26.6c-8.8,0-22.5,11.9-22.5,26.6
		c0,0.2,0,0.5,0,0.7C107.2,156.6,124,145.1,129.3,145.1z"/>
	
		<ellipse transform="matrix(0.9683 -0.2497 0.2497 0.9683 -24.3469 36.8166)" class="st16" cx="132.9" cy="114.4" rx="1.6" ry="3.1"/>
	
		<ellipse transform="matrix(0.9551 0.2963 -0.2963 0.9551 39.465 -31.6772)" class="st16" cx="124.2" cy="114.4" rx="1.6" ry="3.1"/>
	<circle cx="73.9" cy="107.7" r="17.6"/>
	<circle class="st4" cx="78.4" cy="99.8" r="4.5"/>
	<g>
		<path class="st17" d="M134.6,107.8c0-0.1-4.6,2-5.8,2.2c-1.3-0.2-5.9-2.3-5.8-2.2c0-0.1,3.8-0.1,5.8,0.1
			C130.7,107.8,134.6,107.8,134.6,107.8z"/>
	</g>
	<path class="st12" d="M99.6,106.8c0,0-15.9,10.7-24.5,21.4s-8.4,12.7-8.4,12.7l6.1,2.7c0,0,8.8-16.6,19.7-22.8s12.2-11.5,12.2-11.5
		L99.6,106.8z"/>
	<path class="st13" d="M65,74.9c0,0-5.3,14.7-17.4,21C47.6,95.9,66.3,93.7,65,74.9z"/>
	<path class="st13" d="M191.1,74.9c0,0,5.3,14.7,17.4,21C208.4,95.9,189.8,93.7,191.1,74.9z"/>
	<path class="st13" d="M156.6,102.5c0,0-11.6-12.5-27.6-12.8l0,0c-0.1,0,0.1,0,0,0c-0.1,0,0,0,0,0v0c-15.5,0.3-27.6,12.8-27.6,12.8
		c13.8-9.6,26.6-9.4,27.6-9.3v0c0,0,0,0,0,0c0,0,0,0,0,0v0C130.5,93.1,142.8,92.9,156.6,102.5z"/>
	<path class="st13" d="M142.8,76.4c0,0-5.8-8.5-13.8-8.7l0,0c-0.1,0,0.1,0,0,0c-0.1,0,0,0,0,0v0c-7,0.2-13.8,8.7-13.8,8.7
		c6.9-6.6,13.8-6.4,13.8-6.3v0c0,0,0,0,0,0c0,0,0,0,0,0v0C130.5,70,135.9,69.9,142.8,76.4z"/>
	<path class="st13" d="M73.8,137.9c0,0-9.4,4.7-16.1,1.9l0,0c0,0,0.1,0,0.1,0c0,0,0.2,0,0.2,0v0c-7-3.5-9.2-13.6-9.2-13.6
		S54.4,144,73.8,137.9z"/>
	<path class="st13" d="M183.5,137.9c0,0,9.4,4.7,16.1,1.9l0,0c0,0,0.2,0,0.2,0c0,0,0.2,0,0.2,0v0c7-3.5,8.9-13.6,8.9-13.6
		S202.9,144,183.5,137.9z"/>
	<path class="st3" d="M128.9,82.6C128.9,82.6,129,82.6,128.9,82.6C128.9,82.6,128.9,82.6,128.9,82.6z"/>
	<path class="st13" d="M84.7,73.8c5.2-1.1,13.7-1.3,20.6,1.1c8.7,3,1.7,14,3.4,14.6c1.8,0.6,4.1-7.6,20.2-6.8s18,7.9,20.2,6.8
		c2.2-1.1-2.2-20.1,22.1-15.7c0,0-25.4-6.8-24.2,11.6c0,0-14.5-11.3-35-1.1C112.1,84.2,117.3,67.1,84.7,73.8z"/>
	<path class="st3" d="M173.4,73.8c0.3,0.1,0.6,0.1,0.9,0.2C174.2,74,173.9,73.9,173.4,73.8z"/>
	<path class="st3" d="M173.2,73.8c0.1,0,0.1,0,0.2,0C173.3,73.8,173.3,73.8,173.2,73.8z"/>
	<path class="st13" d="M77.8,49.3c0,0-21.6,27.2-24.9,37.7s-5.5,54-8.4,60.1l-10.1-42.7l18.5-44.6L77.8,49.3z"/>
	<path class="st13" d="M179.3,49.3c0,0,21.6,27.2,24.9,37.7c3.3,10.5,5.5,54,8.4,60.1l10.1-42.7l-18.5-44.6L179.3,49.3z"/>
	<path class="st15" d="M178.2,49.3c0,0,23.2,19.4,29.9,41.8s3.9,49.6,9.2,53.1c7.4,4.9,15.8-23.7,18.6-26.8c4.3-4.7,19.1-17,20-19.2
		c1-2.2-29.6-35.6-43-42.1C196.9,48.2,176.9,47.6,178.2,49.3z"/>
	<path class="st16" d="M198.1,61.2c0,0,27.4,35,26.9,78.5l10.9-22.4C236,117.4,226.4,88.8,198.1,61.2z"/>
	<path class="st15" d="M77.8,49.3c0,0-23.2,19.4-29.9,41.8s-3.9,49.6-9.2,53.1c-7.4,4.9-15.8-23.7-18.6-26.8
		c-4.3-4.7-19.1-17-20-19.2c-1-2.2,29.6-35.6,43-42.1C59.1,48.2,79.1,47.6,77.8,49.3z"/>
	<path class="st16" d="M57.9,61.2c0,0-27.4,35-26.9,78.5L20,117.4C20,117.4,29.6,88.8,57.9,61.2z"/>
	<path class="st13" d="M43,140.7c0,0,1.9,10.9,5.3,14.2s1-2.6,1-2.6s-3.3-1.8-2.8-15.6C47.1,122.8,43,140.7,43,140.7z"/>
	<path class="st13" d="M213.8,140.7c0,0-1.9,10.9-5.3,14.2s-1-2.6-1-2.6s3.3-1.8,2.8-15.6S213.8,140.7,213.8,140.7z"/>
	<path class="st12" d="M141.4,223.5c1.5-0.8,2.7-2.2,3-4.1c0.6-3.1-1.5-6-4.6-6.6c-2.8-0.5-5.6,1.2-6.4,3.9
		c-3.8-1.1-7.6-1.8-11.5-2.1c0.2-2.8-1.8-5.4-4.7-5.9c-3.1-0.6-6,1.5-6.6,4.6c-0.3,1.8,0.3,3.6,1.4,4.9c-1.5,0.8-2.7,2.2-3,4.1
		c-0.6,3.1,1.5,6,4.6,6.6c2.8,0.5,5.4-1.1,6.3-3.7c3.8,1,7.7,1.7,11.6,2.1c-0.1,2.7,1.9,5.2,4.7,5.7c3.1,0.6,6-1.5,6.6-4.6
		C143.2,226.6,142.6,224.8,141.4,223.5z"/>
	<path class="st14" d="M137.3,233.7c-0.4,0-0.7,0-1.1-0.1c-2.9-0.5-4.9-2.9-5.1-5.7c-3.6-0.3-7.2-1-10.7-1.9
		c-1.2,2.6-3.9,4.1-6.8,3.6c-3.4-0.6-5.7-3.9-5.1-7.3c0.3-1.7,1.3-3.2,2.7-4.1c-1-1.4-1.4-3.1-1.1-4.8c0.3-1.6,1.2-3.1,2.6-4
		c1.4-1,3-1.3,4.7-1c2.9,0.5,5,3,5.1,5.9c3.6,0.3,7.1,0.9,10.6,1.9c1.1-2.7,4-4.3,6.9-3.8c1.6,0.3,3.1,1.2,4,2.6c1,1.4,1.3,3,1,4.7
		c-0.3,1.7-1.3,3.2-2.7,4.1c1,1.4,1.4,3.1,1.1,4.8c-0.3,1.6-1.2,3.1-2.6,4C139.8,233.3,138.5,233.7,137.3,233.7z M119.6,224.5
		l0.5,0.1c3.8,1,7.6,1.7,11.5,2.1l0.5,0l0,0.5c0,2.5,1.7,4.7,4.2,5.1c1.3,0.2,2.7-0.1,3.8-0.8s1.9-1.9,2.1-3.3
		c0.3-1.6-0.2-3.2-1.3-4.4l-0.5-0.6l0.7-0.3c1.5-0.7,2.4-2.1,2.7-3.6c0.2-1.3-0.1-2.7-0.8-3.8c-0.8-1.1-1.9-1.9-3.3-2.1
		c-2.5-0.5-5,1.1-5.8,3.5l-0.2,0.5l-0.5-0.2c-3.7-1.1-7.6-1.8-11.4-2l-0.6,0l0-0.6c0.1-2.6-1.7-4.8-4.2-5.3
		c-1.3-0.2-2.7,0.1-3.8,0.8c-1.1,0.8-1.9,1.9-2.1,3.3c-0.3,1.6,0.2,3.2,1.3,4.4l0.5,0.6l-0.7,0.3c-1.5,0.7-2.4,2.1-2.7,3.6
		c-0.5,2.8,1.4,5.4,4.1,5.9c2.5,0.4,4.9-1,5.7-3.3L119.6,224.5z"/>
	<circle class="st18" cx="117.5" cy="212.9" r="2.1"/>
	<circle class="st18" cx="138.4" cy="228.4" r="2.1"/>
	<circle class="st14" cx="126.7" cy="220.9" r="1.3"/>
	<circle class="st14" cx="116.5" cy="219.4" r="1.3"/>
	<circle class="st14" cx="137" cy="223" r="1.3"/>
	<circle class="st16" cx="108.5" cy="132.4" r="1.5"/>
	<circle class="st16" cx="99.3" cy="142.1" r="1.5"/>
	<circle class="st16" cx="96.3" cy="132.4" r="1.5"/>
	<circle class="st16" cx="147.5" cy="132.4" r="1.5"/>
	<circle class="st16" cx="156.7" cy="142.1" r="1.5"/>
	<circle class="st16" cx="159.7" cy="132.4" r="1.5"/>
</g>
</svg>
