<?xml version="1.0" encoding="utf-8"?>
<!-- Generator: Adobe Illustrator 19.1.0, SVG Export Plug-In . SVG Version: 6.00 Build 0)  -->
<svg version="1.1" id="Layer_1" xmlns="http://www.w3.org/2000/svg" xmlns:xlink="http://www.w3.org/1999/xlink" x="0px" y="0px"
	 viewBox="0 0 128 128" style="enable-background:new 0 0 128 128;" xml:space="preserve">
<style type="text/css">
	.st0{fill:#C1272D;}
	.st1{fill:#EFCCA3;}
	.st2{fill:#ED1C24;}
	.st3{fill:#CCAC8D;}
	.st4{fill:#FFFFFF;}
	.st5{fill:#FF931E;}
	.st6{fill:#FFB81E;}
	.st7{fill:#56332B;}
	.st8{fill:#442823;}
	.st9{fill:#7F4A41;}
	.st10{fill:#331712;}
	.st11{fill:#FFCC66;}
	.st12{fill:#CCCCCC;}
	.st13{fill:#B3B3B3;}
	.st14{fill:#989898;}
	.st15{fill:#323232;}
	.st16{fill:#1E1E1E;}
	.st17{fill:#4C4C4C;}
	.st18{fill:#E6E6E6;}
	.st19{fill:#606060;}
</style>
<g>
	<path class="st12" d="M107.2,53.7c-0.2-4.4,0-8.3-2-11.6c-4.8-8.2-16.2-13-41.2-13V29c0,0,0.2,0,0.2,0c0,0-0.2,0-0.2,0v0.1
		c-23,0-36.2,4.8-41,13.1c-1.9,3.4-1.5,7.2-1.8,11.6C21,57.2,19.5,61,20.2,65c0.8,5.2,1.2,10.4,2,15.2c0.6,3.9,5.7,7.2,6.2,10.9
		C29.7,101.3,40,106,64,106v0h0.2h0.1H64v0c25,0,34.5-4.7,35.9-14.9c0.5-3.8,5.7-7,6.3-10.9c0.8-4.8,1.2-10,2-15.2
		C108.8,61,107.4,57.2,107.2,53.7z"/>
	<path class="st13" d="M64,56.9c4.3,0.1,7.5,3,10.3,5.5c3.3,2.9,9,5,11.3,7.5c2.3,2.5,5.3,5.1,6.5,9c1.1,3.9,1.5,8.9,1.5,10.2
		c0,1.3,0.8,1,2.7,0c4.7-2.3,9.9-8.5,9.9-8.5c-0.6,3.9-5.7,7-6.2,10.7C98.6,101.5,88.7,106,64.3,106h-0.1h0H64"/>
	<path class="st13" d="M80.1,49.5c0.9,3.1,4.1,13.6-2.1,10.1c0,0,2.6,1.5,4.2,7.2c1.7,5.7,5.8,6.4,5.8,6.4s6.7,1.3,11.7-3
		c4.2-3.6,4.9-10,3.1-14.9s-5-6.3-9.7-7.3C88.4,47,79.1,46.1,80.1,49.5z"/>
	<circle cx="92" cy="61" r="8.8"/>
	<circle class="st4" cx="89.8" cy="57" r="2.3"/>
	<path class="st12" d="M78.7,60.5c0,0,7.9,5.4,12.2,10.7s4.2,6.3,4.2,6.3l-3.1,1.4c0,0-4.4-8.3-9.8-11.4c-5.5-3.1-6.1-5.7-6.1-5.7
		L78.7,60.5z"/>
	<path class="st13" d="M64.3,56.9c-4.3,0.1-7.4,3-10.2,5.5c-3.3,2.9-9,5-11.3,7.5c-2.3,2.5-5.3,5.1-6.4,9c-1.1,3.9-1.5,8.9-1.5,10.2
		c0,1.3,0.2,1.4-2.7,0c-4.7-2.2-9.9-8.5-9.9-8.5c0.6,3.9,5.7,7,6.2,10.7c1.4,10.2,11.3,14.7,35.8,14.7h0.1h0H64"/>
	<path class="st15" d="M87.9,74.3C83.1,68.4,75.4,63,64.7,63h-0.1h0c-10.7,0-18.4,5.4-23.2,11.3c-5,6.1-4.6,8.5-4.6,14.3
		c0,21,7.4,14.6,12.3,17.1c5,2.5,10.2,1.3,15.5,1.3h0h0.1c5.4,0,10.5,1.1,15.5-1.4c4.9-2.5,12.3,4,12.3-17.1
		C92.5,82.7,92.9,80.4,87.9,74.3z"/>
	<path class="st16" d="M64.2,68c0,0-0.7,9.7-2.1,11.6l2.6-0.6L64.2,68z"/>
	<path class="st16" d="M64.8,68c0,0,0.7,9.7,2.1,11.6l-2.6-0.6L64.8,68z"/>
	<path class="st15" d="M56.5,65.8c-1-2.3,2.6-6,8.3-6.1c5.7,0,9.3,3.7,8.3,6.1c-1,2.4-4.6,3.1-8.3,3.2
		C61.1,68.9,57.5,68.1,56.5,65.8z"/>
	<path d="M64.8,68c0-0.4,3.4-0.5,5.2-1.7c0,0-3.7,1.2-4.5,0.7c-0.8-0.4-1-1.6-1-1.6s-0.3,1.2-0.9,1.6c-0.7,0.4-4.9-0.7-4.9-0.7
		s5.6,1.4,5.6,1.7c0,0.3-0.1,1.3-0.1,2c0,2.5,0,8.7,0.4,9.2c0.6,0.9,0.4-6.7,0.4-9.2C64.8,69.3,64.8,68.4,64.8,68z"/>
	<path class="st17" d="M64.9,81.5c1.7,0,4.7,1.2,7.4,3.1c-2.6-2.9-5.7-4.9-7.4-4.9c-1.8,0-5.6,2.2-8.3,5.4
		C59.5,82.8,63,81.5,64.9,81.5z"/>
	<path class="st16" d="M64.3,99.1c-3.8,0-7.5-1.2-10.9-2.1c-0.7-0.2-1.4,0.3-2.1,0.1c-6.3-2-11.4-5.4-14.5-9.7c0,0.3,0,0.7,0,1
		c0,21,7.4,14.7,12.3,17.2c5,2.5,10.2,1.3,15.5,1.3h0h0.1c5.4,0,10.5,1.1,15.5-1.4c4.9-2.5,12.3,3.8,12.3-17.2c0-0.8,0-1.5,0.1-2.2
		c-2.9,4.7-8.2,8.5-14.8,10.7c-0.6,0.2-2-0.3-2.6-0.1C71.6,97.8,68.4,99.1,64.3,99.1z"/>
	<path class="st16" d="M54.7,87.8c0,0-2.5,7.5-0.8,10.8l-2.3-1C51.6,97.6,53.4,90,54.7,87.8z"/>
	<path class="st16" d="M74.6,87.8c0,0,2.5,7.5,0.8,10.8l2.3-1C77.7,97.6,75.9,90,74.6,87.8z"/>
	<path class="st13" d="M48.4,49.5c-0.9,3.1-4.1,13.6,2.1,10.1c0,0-2.6,1.5-4.2,7.2s-5.8,6.4-5.8,6.4s-6.7,1.3-11.7-3
		c-4.2-3.6-4.9-10-3.1-14.9s5-6.3,9.7-7.3C40,47,49.4,46.1,48.4,49.5z"/>
	<path d="M64.6,79.6c2.7,0,11.1,5.8,11.2,12.9c0-0.1,0-0.2,0-0.4c0-7.4-6.8-13.3-11.2-13.3c-4.4,0-11.2,6-11.2,13.3
		c0,0.1,0,0.2,0,0.4C53.6,85.4,62,79.6,64.6,79.6z"/>
	<ellipse transform="matrix(0.9683 -0.2497 0.2497 0.9683 -13.9504 18.6337)" class="st16" cx="66.5" cy="64.3" rx="0.8" ry="1.5"/>
	<ellipse transform="matrix(0.9551 0.2963 -0.2963 0.9551 21.841 -15.5191)" class="st16" cx="62.1" cy="64.3" rx="0.8" ry="1.5"/>
	<circle cx="36.9" cy="61" r="8.8"/>
	<circle class="st4" cx="39.2" cy="57" r="2.3"/>
	<g>
		<path class="st17" d="M67.3,61c0-0.1-2.3,1-2.9,1.1C63.7,62,61.4,61,61.4,61c0,0,1.9,0,2.9,0C65.4,61,67.3,61,67.3,61z"/>
	</g>
	<path class="st12" d="M49.8,60.5c0,0-7.9,5.4-12.2,10.7s-4.2,6.3-4.2,6.3l3.1,1.4c0,0,4.4-8.3,9.8-11.4c5.5-3.1,6.1-5.7,6.1-5.7
		L49.8,60.5z"/>
	<path class="st13" d="M32.5,44.6c0,0-2.7,7.4-8.7,10.5C23.8,55.1,33.1,54,32.5,44.6z"/>
	<path class="st13" d="M95.5,44.6c0,0,2.7,7.4,8.7,10.5C104.2,55.1,94.9,54,95.5,44.6z"/>
	<path class="st13" d="M78.1,58.4c0,0-5.7-6.2-13.7-6.4l0.1,0c-0.1,0-0.2,0-0.2,0c-0.1,0-0.2,0-0.2,0v0c-7,0.2-13.8,6.4-13.8,6.4
		c6.9-4.8,13.8-4.7,13.8-4.7v0c0,0,0,0,0,0c0,0,0,0,0,0v0C65,53.7,71.2,53.6,78.1,58.4z"/>
	<path class="st13" d="M71.1,45.3c0,0-2.8-4.2-6.8-4.3l0.1,0c0,0-0.2,0-0.2,0c0,0-0.2,0-0.2,0v0c-3,0.1-6.9,4.3-6.9,4.3
		c3.4-3.3,6.9-3.2,6.9-3.2v0c0,0,0,0,0,0c0,0,0,0,0,0v0C65,42.1,67.7,42.1,71.1,45.3z"/>
	<path class="st13" d="M36.9,76.1c0,0-4.7,2.3-8.1,0.9l0,0c0,0,0.1,0,0,0c0,0,0.1,0,0.1,0v0c-3.5-1.7-4.6-6.8-4.6-6.8
		S27.2,79.1,36.9,76.1z"/>
	<path class="st13" d="M91.8,76.1c0,0,4.7,2.3,8.1,0.9l0,0c0,0,0.1,0,0.1,0c0,0,0.1,0,0.1,0v0c3.5-1.7,4.4-6.8,4.4-6.8
		S101.4,79.1,91.8,76.1z"/>
	<path class="st3" d="M64.5,48.4C64.5,48.4,64.5,48.4,64.5,48.4C64.5,48.4,64.5,48.4,64.5,48.4z"/>
	<path class="st13" d="M42.4,44c2.6-0.5,6.9-0.6,10.3,0.5c4.3,1.5,0.8,7,1.7,7.3c0.9,0.3,2.1-3.8,10.1-3.4s9,4,10.1,3.4
		c1.1-0.5-1.1-10,11-7.8c0,0-12.7-3.4-12.1,5.8c0,0-7.3-5.6-17.5-0.6C56,49.2,58.7,40.7,42.4,44z"/>
	<path class="st3" d="M86.7,44c0.2,0,0.3,0.1,0.4,0.1C87.1,44.1,87,44.1,86.7,44z"/>
	<path class="st3" d="M86.6,44C86.6,44,86.7,44,86.6,44C86.7,44,86.6,44,86.6,44z"/>
	<path class="st13" d="M38.9,31.8c0,0-10.8,13.6-12.4,18.8s-2.8,27-4.2,30.1l-5-21.4L26.4,37L38.9,31.8z"/>
	<path class="st13" d="M89.6,31.8c0,0,10.8,13.6,12.4,18.8c1.6,5.3,2.8,27,4.2,30.1l5-21.4L102.1,37L89.6,31.8z"/>
	<path class="st15" d="M89.1,31.8c0,0,11.6,9.7,15,20.9s2,24.8,4.6,26.5c3.7,2.4,7.9-11.9,9.3-13.4c2.2-2.4,9.5-8.5,10-9.6
		c0.5-1.1-14.8-17.8-21.5-21.1C98.5,31.2,88.5,30.9,89.1,31.8z"/>
	<path class="st16" d="M99.1,37.7c0,0,13.7,17.5,13.5,39.3l5.5-11.2C118,65.8,113.2,51.5,99.1,37.7z"/>
	<path class="st15" d="M38.9,31.8c0,0-11.6,9.7-15,20.9s-2,24.8-4.6,26.5c-3.7,2.4-7.9-11.9-9.3-13.4c-2.2-2.4-9.5-8.5-10-9.6
		c-0.5-1.1,14.8-17.8,21.5-21.1C29.5,31.2,39.5,30.9,38.9,31.8z"/>
	<path class="st16" d="M28.9,37.7c0,0-13.7,17.5-13.5,39.3L10,65.8C10,65.8,14.8,51.5,28.9,37.7z"/>
	<path class="st13" d="M21.5,77.4c0,0,1,5.4,2.6,7.1c1.7,1.7,0.5-1.3,0.5-1.3s-1.7-0.9-1.4-7.8C23.6,68.5,21.5,77.4,21.5,77.4z"/>
	<path class="st13" d="M106.9,77.4c0,0-1,5.4-2.6,7.1c-1.7,1.7-0.5-1.3-0.5-1.3s1.7-0.9,1.4-7.8S106.9,77.4,106.9,77.4z"/>
	<circle class="st16" cx="54.3" cy="73.3" r="0.8"/>
	<circle class="st16" cx="49.7" cy="78.2" r="0.8"/>
	<circle class="st16" cx="48.1" cy="73.3" r="0.8"/>
	<circle class="st16" cx="73.7" cy="73.3" r="0.8"/>
	<circle class="st16" cx="78.3" cy="78.2" r="0.8"/>
	<circle class="st16" cx="79.9" cy="73.3" r="0.8"/>
</g>
</svg>
