<?xml version="1.0" encoding="utf-8"?>
<!-- Generator: Adobe Illustrator 22.1.0, SVG Export Plug-In . SVG Version: 6.00 Build 0)  -->
<svg version="1.1" id="Layer_1" xmlns="http://www.w3.org/2000/svg" xmlns:xlink="http://www.w3.org/1999/xlink" x="0px" y="0px"
	 viewBox="0 0 256 256" style="enable-background:new 0 0 256 256;" xml:space="preserve">
<style type="text/css">
	.st0{fill:#FFFFFF;}
	.st1{fill:#CCAC8D;}
</style>
<title>pug-final-logo-source</title>
<path d="M181.4,197.6c-34.3,12.6-71.9,12.6-106.2,0c-3.3-1.4-5.5-4.5-5.7-8.1v-8.2c0-3.2,2.5-4.8,5.7-3.6
	c34.3,12.6,71.9,12.6,106.2,0c3.1-1.1,5.7,0.4,5.7,3.6v8.2C186.8,193.1,184.6,196.2,181.4,197.6z"/>
<path class="st0" d="M214.4,88.4c-0.5-8.7,0.5-16.6-3.4-23.3c-9.5-16.5-33.4-26-81.9-26v0.5l0,0v-0.5c-47,0-73,9.6-82.5,26.1
	c-3.9,6.7-3.3,14.5-3.8,23.2c-0.4,7-3.5,14.5-2.2,22.5c1.6,10.4,2.3,20.7,3.9,30.4c1.3,7.9,11.8,14.3,12.8,21.8
	c2.8,20.4,23.3,29.7,71.8,29.8v0.2l0,0V193c49,0,68.6-9.4,71.3-29.8c1-7.5,11.1-14,12.4-21.8c1.6-9.6,2.2-20,3.9-30.4
	C217.8,102.9,214.7,95.4,214.4,88.4z"/>
<circle cx="184.1" cy="102.9" r="17.6"/>
<circle class="st0" cx="179.5" cy="95" r="4.5"/>
<path class="st0" d="M157.3,102c0,0,15.9,10.7,24.5,21.4s8.4,12.7,8.4,12.7l-6.1,2.7c0,0-8.8-16.6-19.7-22.9s-12.2-11.5-12.2-11.5
	L157.3,102z"/>
<circle cx="128.3" cy="207.6" r="2.8"/>
<path d="M175.8,129.4c-9.6-11.9-25-22.8-46.4-22.8h-0.2c-21.3,0-36.7,10.9-46.4,22.8c-10,12.1-9.3,17-9.3,28.6
	c0,42,14.7,29.6,24.6,34.7c10.1,5,20.3,2.9,31.1,2.9h0.2c10.8,0,21,1.8,31.1-3.1c9.9-5.1,24.6,7.7,24.6-34.4
	C185,146.6,185.7,141.6,175.8,129.4z"/>
<path class="st0" d="M129.6,117c0-0.9,6.9-0.9,10.4-3.4c0,0-7.4,2.3-9.1,1.5s-1.9-3.2-2.1-3.2s-0.5,2.5-1.8,3.2s-9.8-1.5-9.8-1.5
	s11.2,2.7,11.1,3.4s-0.1,2.5-0.1,4c0,5,0.1,17.4,0.8,18.4c1.2,1.8,0.7-13.4,0.7-18.4C129.7,119.5,129.6,117.8,129.6,117z"/>
<path class="st0" d="M129.3,140.2c5.3,0,22.1,11.5,22.4,25.9c0-0.2,0-0.5,0-0.7c0-14.7-13.6-26.6-22.5-26.6s-22.5,11.9-22.5,26.6
	c0,0.2,0,0.5,0,0.7C107.2,151.8,124,140.2,129.3,140.2z"/>
<circle cx="73.9" cy="102.9" r="17.6"/>
<circle class="st0" cx="78.4" cy="95" r="4.5"/>
<path class="st0" d="M99.6,102c0,0-15.9,10.7-24.5,21.4s-8.4,12.7-8.4,12.7l6.1,2.7c0,0,8.8-16.6,19.7-22.9s12.2-11.5,12.2-11.5
	L99.6,102z"/>
<path class="st1" d="M129,77.8"/>
<path class="st1" d="M173.4,69c0.3,0.1,0.6,0.1,0.9,0.2L173.4,69z"/>
<path class="st1" d="M173.2,69h0.1H173.2z"/>
<path d="M178.2,44.5c0,0,23.2,19.4,29.9,41.8s3.9,49.6,9.2,53.1c7.4,4.9,15.8-23.7,18.6-26.8c4.3-4.8,19-17,20-19.2
	s-29.6-35.6-43-42.1C197,43.4,176.9,42.7,178.2,44.5z"/>
<path d="M77.8,44.5c0,0-23.2,19.4-29.9,41.8s-3.9,49.6-9.2,53.1c-7.4,4.9-15.8-23.7-18.6-26.8c-4.3-4.8-19-17-20-19.2
	s29.6-35.6,43-42.1C59,43.4,79.1,42.7,77.8,44.5z"/>
<path d="M141.4,218.7c2.8-1.4,3.9-4.8,2.5-7.6s-4.8-3.9-7.6-2.5c-1.4,0.7-2.4,1.9-2.8,3.3c-3.8-1.1-7.6-1.8-11.5-2.1
	c0.2-3.1-2.2-5.8-5.3-6c-3.1-0.2-5.8,2.2-6,5.3c-0.1,1.6,0.5,3.1,1.5,4.2c-2.8,1.4-3.9,4.8-2.5,7.6s4.8,3.9,7.6,2.5
	c1.3-0.7,2.3-1.8,2.8-3.2c3.8,1,7.7,1.7,11.6,2.1c-0.1,3.1,2.4,5.7,5.6,5.8c3.1,0.1,5.7-2.4,5.8-5.6
	C142.9,221.2,142.4,219.8,141.4,218.7L141.4,218.7z"/>
<path d="M137.3,228.8c-0.4,0-0.7,0-1.1-0.1c-2.8-0.5-5-2.9-5.1-5.8c-3.6-0.3-7.2-1-10.7-1.9c-1.4,3.2-5.1,4.6-8.3,3.2
	c-3.2-1.4-4.6-5.1-3.2-8.3c0.5-1.1,1.3-2,2.3-2.7c-2.1-2.8-1.5-6.7,1.3-8.7s6.7-1.5,8.7,1.3c0.7,1,1.2,2.2,1.2,3.4
	c3.6,0.3,7.1,0.9,10.6,1.9c1.1-2.7,4-4.3,6.9-3.8c3.4,0.6,5.7,3.8,5.1,7.2c-0.3,1.7-1.3,3.2-2.7,4.1c2.1,2.8,1.5,6.7-1.2,8.7
	C139.9,228.4,138.6,228.8,137.3,228.8L137.3,228.8z M119.6,219.7l0.5,0.1c3.8,1,7.6,1.7,11.5,2l0.5,0.1v0.5c0,2.8,2.2,5.1,5,5.2
	c2.8,0,5.1-2.2,5.2-5c0-1.3-0.5-2.6-1.4-3.6l-0.5-0.6l0.7-0.4c2.5-1.2,3.5-4.3,2.3-6.8s-4.3-3.5-6.8-2.3c-1.3,0.6-2.2,1.7-2.6,3.1
	l-0.2,0.5l-0.6-0.1c-3.7-1.1-7.6-1.7-11.4-2l-0.6-0.1v-0.6c0.1-2.6-1.7-4.8-4.2-5.3c-2.8-0.5-5.4,1.3-5.9,4.1
	c-0.3,1.6,0.2,3.2,1.3,4.4l0.5,0.6l-0.7,0.4c-2.5,1.3-3.5,4.3-2.2,6.8s4.3,3.5,6.8,2.2c1.2-0.6,2.1-1.6,2.5-2.9L119.6,219.7z"/>
<circle class="st0" cx="126.7" cy="216.1" r="1.3"/>
<circle class="st0" cx="116.5" cy="214.6" r="1.3"/>
<circle class="st0" cx="137" cy="218.1" r="1.3"/>
<circle class="st0" cx="108.5" cy="127.6" r="1.5"/>
<circle class="st0" cx="99.3" cy="137.3" r="1.5"/>
<circle class="st0" cx="96.3" cy="127.6" r="1.5"/>
<circle class="st0" cx="147.5" cy="127.6" r="1.5"/>
<circle class="st0" cx="156.7" cy="137.3" r="1.5"/>
<circle class="st0" cx="159.7" cy="127.6" r="1.5"/>
<path d="M112.9,112.5c-2.1-4.6,5.1-12.1,16.5-12.1s18.6,7.5,16.6,12.1s-9.3,6.2-16.6,6.3C122.2,118.7,114.9,117.2,112.9,112.5z"/>
<ellipse transform="matrix(0.9683 -0.2497 0.2497 0.9683 -23.1392 36.6522)" class="st0" cx="132.9" cy="109.5" rx="1.6" ry="3.1"/>
<ellipse transform="matrix(0.2962 -0.9551 0.9551 0.2962 -17.263 195.7462)" class="st0" cx="124.2" cy="109.6" rx="3.1" ry="1.6"/>
</svg>
