<?xml version="1.0" encoding="utf-8"?>
<!-- Generator: Adobe Illustrator 19.1.0, SVG Export Plug-In . SVG Version: 6.00 Build 0)  -->
<svg version="1.1" id="Layer_1" xmlns="http://www.w3.org/2000/svg" xmlns:xlink="http://www.w3.org/1999/xlink" x="0px" y="0px"
	 viewBox="0 0 64 65" style="enable-background:new 0 0 64 65;" xml:space="preserve">
<style type="text/css">
	.st0{fill:#C1272D;}
	.st1{fill:#EFCCA3;}
	.st2{fill:#ED1C24;}
	.st3{fill:#CCAC8D;}
	.st4{fill:#FFFFFF;}
	.st5{fill:#FF931E;}
	.st6{fill:#FFB81E;}
	.st7{fill:#56332B;}
	.st8{fill:#442823;}
	.st9{fill:#7F4A41;}
	.st10{fill:#331712;}
	.st11{fill:#FFCC66;}
	.st12{fill:#CCCCCC;}
	.st13{fill:#B3B3B3;}
	.st14{fill:#989898;}
	.st15{fill:#323232;}
	.st16{fill:#1E1E1E;}
	.st17{fill:#4C4C4C;}
	.st18{fill:#E6E6E6;}
	.st19{fill:#606060;}
</style>
<g>
	<path class="st15" d="M-38.9,31.8c0,0,11.6,9.7,15,20.9s2,24.8,4.6,26.5c3.7,2.4,7.9-11.9,9.3-13.4c2.2-2.4,9.5-8.5,10-9.6
		c0.5-1.1-14.8-17.8-21.5-21.1C-29.5,31.2-39.5,30.9-38.9,31.8z"/>
</g>
<g>
	<path class="st12" d="M53.6,25.9c-0.1-2.2,0-4.1-1-5.8c-2.4-4.1-8.1-6.5-20.6-6.5V14c0,0,0.1,0,0.1,0c0,0-0.1,0-0.1,0v-0.4
		c-11.5,0-18.1,2.4-20.5,6.5c-1,1.7-0.8,3.6-0.9,5.8c-0.1,1.7-0.8,3.6-0.5,5.6c0.4,2.6,0.6,5.2,1,7.6c0.3,2,2.8,3.6,3.1,5.5
		c0.7,5.1,5.8,7.4,17.8,7.4V52h0.1h0.1H32v0c12.5,0,17.3-2.3,18-7.4c0.3-1.9,2.8-3.5,3.2-5.5c0.4-2.4,0.6-5,1-7.6
		C54.4,29.6,53.7,27.7,53.6,25.9z"/>
	<path class="st13" d="M32,27.5c2.2,0,3.7,1.5,5.1,2.8c1.6,1.4,4.5,2.5,5.7,3.7c1.1,1.2,2.7,2.6,3.2,4.5c0.6,1.9,0.7,4.5,0.7,5.1
		c0,0.6,0.4,0.5,1.4,0c2.3-1.2,5-4.2,5-4.2c-0.3,2-2.8,3.4-3.1,5.3c-0.7,5.1-5.6,7.3-17.9,7.3h0h0H32"/>
	<path class="st13" d="M40.1,23.8c0.5,1.6,2,6.8-1,5c0,0,1.3,0.8,2.1,3.6c0.8,2.8,2.9,3.2,2.9,3.2s3.3,0.6,5.8-1.5
		c2.1-1.8,2.5-5,1.6-7.4s-2.5-3.2-4.9-3.7C44.2,22.6,39.5,22.1,40.1,23.8z"/>
	<circle cx="46" cy="29.6" r="4.4"/>
	<circle class="st4" cx="44.9" cy="27.6" r="1.1"/>
	<path class="st12" d="M39.3,29.3c0,0,4,2.7,6.1,5.3c2.2,2.7,2.1,3.2,2.1,3.2L46,38.5c0,0-2.2-4.1-4.9-5.7c-2.7-1.6-3.1-2.9-3.1-2.9
		L39.3,29.3z"/>
	<path class="st13" d="M32.1,27.5c-2.2,0-3.7,1.5-5.1,2.8c-1.6,1.4-4.5,2.5-5.6,3.7c-1.1,1.2-2.7,2.6-3.2,4.5
		c-0.6,1.9-0.7,4.5-0.7,5.1c0,0.6,0.1,0.7-1.4,0c-2.4-1.1-5-4.2-5-4.2c0.3,2,2.8,3.4,3.1,5.3c0.7,5.1,5.6,7.3,17.9,7.3h0h0H32"/>
	<path class="st15" d="M43.9,36.4c-2.4-3-6.3-5.4-11.6-5.4h0h0c-5.3,0-9.2,2.5-11.6,5.4c-2.5,3-2.3,4.1-2.3,7
		c0,10.5,3.7,7.5,6.2,8.7c2.5,1.2,5.1,0.8,7.8,0.8h0h0c2.7,0,5.2,0.3,7.8-0.9c2.5-1.3,6.2,2,6.2-8.5C46.3,40.7,46.4,39.5,43.9,36.4z
		"/>
	<path class="st16" d="M32.1,33.1c0,0-0.3,4.8-1.1,5.8l1.3-0.3L32.1,33.1z"/>
	<path class="st16" d="M32.4,33.1c0,0,0.3,4.8,1.1,5.8l-1.3-0.3L32.4,33.1z"/>
	<path class="st15" d="M28.2,32c-0.5-1.2,1.3-3,4.1-3c2.9,0,4.7,1.9,4.1,3c-0.5,1.2-2.3,1.6-4.1,1.6C30.6,33.5,28.7,33.1,28.2,32z"
		/>
	<path d="M32.4,33.1c0-0.2,1.7-0.2,2.6-0.8c0,0-1.9,0.6-2.3,0.4c-0.4-0.2-0.5-0.8-0.5-0.8s-0.1,0.6-0.5,0.8
		c-0.3,0.2-2.5-0.4-2.5-0.4s2.8,0.7,2.8,0.8c0,0.2,0,0.6,0,1c0,1.3,0,4.4,0.2,4.6c0.3,0.5,0.2-3.3,0.2-4.6
		C32.4,33.7,32.4,33.3,32.4,33.1z"/>
	<path class="st17" d="M32.5,39.8c0.8,0,2.4,0.6,3.7,1.5c-1.3-1.4-2.9-2.4-3.7-2.4c-0.9,0-2.8,1.1-4.2,2.7
		C29.7,40.5,31.5,39.8,32.5,39.8z"/>
	<path class="st16" d="M32.1,48.6c-1.9,0-3.7-0.6-5.4-1c-0.4-0.1-0.7,0.2-1.1,0.1c-3.1-1-5.7-2.7-7.3-4.8c0,0.2,0,0.3,0,0.5
		c0,10.5,3.7,7.5,6.2,8.8c2.5,1.2,5.1,0.9,7.8,0.9h0h0c2.7,0,5.2,0.3,7.8-0.9c2.5-1.3,6.2,1.8,6.2-8.7c0-0.4,0-0.8,0-1.2
		c-1.5,2.3-4.1,4.2-7.4,5.3c-0.3,0.1-1-0.2-1.3-0.1C35.8,48,34.2,48.6,32.1,48.6z"/>
	<path class="st16" d="M27.4,43c0,0-1.3,3.7-0.4,5.4l-1.1-0.5C25.8,47.9,26.7,44.1,27.4,43z"/>
	<path class="st16" d="M37.3,43c0,0,1.3,3.7,0.4,5.4l1.1-0.5C38.8,47.9,37.9,44.1,37.3,43z"/>
	<path class="st13" d="M24.2,23.8c-0.5,1.6-2,6.8,1,5c0,0-1.3,0.8-2.1,3.6s-2.9,3.2-2.9,3.2s-3.3,0.6-5.8-1.5
		c-2.1-1.8-2.5-5-1.6-7.4s2.5-3.2,4.9-3.7S24.7,22.1,24.2,23.8z"/>
	<path d="M32.3,38.9c1.3,0,5.5,2.9,5.6,6.5c0-0.1,0-0.1,0-0.2c0-3.7-3.4-6.7-5.6-6.7c-2.2,0-5.6,3-5.6,6.7c0,0.1,0,0.1,0,0.2
		C26.8,41.8,31,38.9,32.3,38.9z"/>
	<ellipse transform="matrix(0.9683 -0.2497 0.2497 0.9683 -6.7438 9.2875)" class="st16" cx="33.2" cy="31.2" rx="0.4" ry="0.8"/>
	<ellipse transform="matrix(0.9551 0.2963 -0.2963 0.9551 10.6459 -7.8012)" class="st16" cx="31.1" cy="31.2" rx="0.4" ry="0.8"/>
	<circle cx="18.5" cy="29.6" r="4.4"/>
	<circle class="st4" cx="19.6" cy="27.6" r="1.1"/>
	<g>
		<path class="st17" d="M33.6,29.6c0,0-1.1,0.5-1.5,0.5c-0.3,0-1.5-0.6-1.5-0.5c0,0,1,0,1.5,0C32.7,29.6,33.6,29.6,33.6,29.6z"/>
	</g>
	<path class="st12" d="M24.9,29.3c0,0-4,2.7-6.1,5.3c-2.2,2.7-2.1,3.2-2.1,3.2l1.5,0.7c0,0,2.2-4.1,4.9-5.7s3.1-2.9,3.1-2.9
		L24.9,29.3z"/>
	<path class="st13" d="M16.2,21.3c0,0-1.3,3.7-4.3,5.3C11.9,26.6,16.6,26.1,16.2,21.3z"/>
	<path class="st13" d="M47.8,21.3c0,0,1.3,3.7,4.3,5.3C52.1,26.6,47.4,26.1,47.8,21.3z"/>
	<path class="st13" d="M39,28.3c0,0-2.8-3.1-6.8-3.2l0,0c0,0-0.1,0-0.1,0c0,0-0.1,0-0.1,0v0c-3.5,0.1-6.9,3.2-6.9,3.2
		c3.4-2.4,6.9-2.4,6.9-2.3v0c0,0,0,0,0,0c0,0,0,0,0,0v0C32.5,25.9,35.6,25.8,39,28.3z"/>
	<path class="st13" d="M35.6,21.7c0,0-1.4-2.1-3.4-2.2l0,0c0,0-0.1,0-0.1,0c0,0-0.1,0-0.1,0v0c-1.5,0.1-3.5,2.2-3.5,2.2
		c1.7-1.6,3.5-1.6,3.5-1.6v0c0,0,0,0,0,0c0,0,0,0,0,0v0C32.5,20.1,33.9,20.1,35.6,21.7z"/>
	<path class="st13" d="M18.5,37.1c0,0-2.4,1.2-4,0.5l0,0c0,0-0.2,0-0.2,0c0,0-0.2,0-0.2,0v0c-1-0.9-2-3.4-2-3.4S13.6,38.6,18.5,37.1
		z"/>
	<path class="st13" d="M45.9,37.1c0,0,2.4,1.2,4,0.5l0,0c0,0,0,0,0.1,0c0,0,0,0,0,0v0c1.8-0.9,2.2-3.4,2.2-3.4S50.7,38.6,45.9,37.1z
		"/>
	<path class="st13" d="M21.2,21.1c1.3-0.3,3.4-0.3,5.1,0.3c2.2,0.8,0.4,3.5,0.9,3.7c0.4,0.1,1-1.9,5.1-1.7c4,0.2,4.5,2,5.1,1.7
		s-0.5-5,5.5-3.9c0,0-6.3-1.7-6.1,2.9c0,0-3.6-2.8-8.7-0.3C28,23.7,29.3,19.4,21.2,21.1z"/>
	<path class="st3" d="M43.3,21.1c0.1,0,0.2,0,0.2,0.1C43.6,21.1,43.5,21.1,43.3,21.1z"/>
	<path class="st3" d="M43.3,21.1C43.3,21.1,43.3,21.1,43.3,21.1C43.3,21.1,43.3,21.1,43.3,21.1z"/>
	<path class="st13" d="M19.4,15c0,0-5.4,6.8-6.2,9.4s-1.4,13.5-2.1,15L8.6,28.7l4.6-11.1L19.4,15z"/>
	<path class="st13" d="M44.8,15c0,0,5.4,6.8,6.2,9.4c0.8,2.6,1.4,13.5,2.1,15l2.5-10.7L51,17.6L44.8,15z"/>
	<path class="st15" d="M44.6,15c0,0,5.8,4.8,7.5,10.4s1,12.4,2.3,13.3c1.8,1.2,4-5.9,4.7-6.7c1.1-1.2,4.8-4.3,5-4.8
		c0.2-0.6-7.4-8.9-10.8-10.5C49.2,14.7,44.2,14.5,44.6,15z"/>
	<path class="st16" d="M49.5,17.9c0,0,6.9,8.7,6.7,19.6L59,32C59,32,56.6,24.8,49.5,17.9z"/>
	<path class="st15" d="M19.4,15c0,0-5.8,4.8-7.5,10.4s-1,12.4-2.3,13.3c-1.8,1.2-4-5.9-4.7-6.7c-1.1-1.2-4.8-4.3-5-4.8
		c-0.2-0.6,7.4-8.9,10.8-10.5C14.8,14.7,19.8,14.5,19.4,15z"/>
	<path class="st16" d="M14.5,17.9c0,0-6.9,8.7-6.7,19.6L5,32C5,32,7.4,24.8,14.5,17.9z"/>
	<path class="st13" d="M10.8,37.8c0,0,0.5,2.7,1.3,3.6s0.3-0.7,0.3-0.7s-0.8-0.4-0.7-3.9C11.8,33.3,10.8,37.8,10.8,37.8z"/>
	<path class="st13" d="M53.4,37.8c0,0-0.5,2.7-1.3,3.6s-0.3-0.7-0.3-0.7s0.8-0.4,0.7-3.9S53.4,37.8,53.4,37.8z"/>
	<circle class="st16" cx="27.1" cy="35.7" r="0.4"/>
	<circle class="st16" cx="24.8" cy="38.2" r="0.4"/>
	<circle class="st16" cx="24.1" cy="35.7" r="0.4"/>
	<circle class="st16" cx="36.9" cy="35.7" r="0.4"/>
	<circle class="st16" cx="39.2" cy="38.2" r="0.4"/>
	<circle class="st16" cx="39.9" cy="35.7" r="0.4"/>
</g>
</svg>
