<?xml version="1.0" encoding="utf-8"?>
<!-- Generator: Adobe Illustrator 19.1.0, SVG Export Plug-In . SVG Version: 6.00 Build 0)  -->
<svg version="1.1" id="Layer_1" xmlns="http://www.w3.org/2000/svg" xmlns:xlink="http://www.w3.org/1999/xlink" x="0px" y="0px"
	 viewBox="0 0 256 256" style="enable-background:new 0 0 256 256;" xml:space="preserve">
<style type="text/css">
	.st0{fill:#C1272D;}
	.st1{fill:#EFCCA3;}
	.st2{fill:#ED1C24;}
	.st3{fill:#CCAC8D;}
	.st4{fill:#FFFFFF;}
	.st5{fill:#FF931E;}
	.st6{fill:#FFB81E;}
	.st7{fill:#56332B;}
	.st8{fill:#442823;}
	.st9{fill:#7F4A41;}
	.st10{fill:#331712;}
	.st11{fill:#FFCC66;}
	.st12{fill:#CCCCCC;}
	.st13{fill:#B3B3B3;}
	.st14{fill:#989898;}
	.st15{fill:#323232;}
	.st16{fill:#1E1E1E;}
	.st17{fill:#4C4C4C;}
	.st18{fill:#E6E6E6;}
	.st19{fill:#606060;}
</style>
<g>
	<path class="st7" d="M-154.5,108.6c0,0,46.4,38.8,59.8,83.6s7.9,99.2,18.4,106.2c14.8,9.8,31.6-47.4,37.2-53.6
		c8.7-9.5,38.1-34,40-38.4c1.9-4.4-59.2-71.1-86.1-84.3C-117.1,106.5-157.1,105.1-154.5,108.6z"/>
</g>
<g>
	<path class="st0" d="M181,194.2c-34.3,17.5-71.9,17.5-106.2,0c-3.1-1.6-5.7-6.7-5.7-11.2c0-3.8,0-7.6,0-11.4c0-4.5,2.5-6.7,5.7-5.1
		c34.3,17.5,71.9,17.5,106.2,0c3.1-1.6,5.7,0.6,5.7,5.1c0,3.8,0,7.6,0,11.4C186.7,187.4,184.1,192.6,181,194.2z"/>
	<path class="st1" d="M214,95.1c-0.5-8.7,0.6-16.5-3.2-23.2c-9.5-16.5-33.8-26-81.8-26V46c0,0-0.9,0-0.9,0c0,0,0.9,0,0.9,0v-0.2
		c-47,0-73.2,9.6-82.7,26.1c-3.9,6.7-3.4,14.5-3.9,23.2c-0.4,7-3.5,14.5-2.3,22.5c1.6,10.4,2.3,20.7,3.9,30.4
		c1.3,7.9,12,14.3,13,21.8c2.8,20.4,23,29.7,72,29.7v0.4h-1h0.2h0.8v-0.4c49,0,68.4-9.4,71.1-29.8c1-7.5,11-14,12.3-21.8
		c1.6-9.6,2.2-20,3.8-30.4C217.5,109.6,214.4,102.1,214,95.1z"/>
	<path class="st2" d="M181,204.3c-34.3,12.6-71.9,12.6-106.2,0c-3.1-1.2-5.7-4.9-5.7-8.1c0-2.7,0-5.5,0-8.2c0-3.2,2.5-4.8,5.7-3.6
		c34.3,12.6,71.9,12.6,106.2,0c3.1-1.2,5.7,0.4,5.7,3.6c0,2.7,0,5.5,0,8.2C186.7,199.4,184.1,203.1,181,204.3z"/>
	<circle class="st0" cx="127.9" cy="208.6" r="4.9"/>
	<path class="st3" d="M128.3,101.7c8.7,0.1,14.6,6,20.2,10.9c6.6,5.8,17.9,9.9,22.5,14.9c4.6,4.9,10.6,10.2,12.9,17.9
		c2.3,7.8,2.9,17.8,2.9,20.4c0,2.6,1.5,2,5.4,0c9.4-4.7,19.9-17,19.9-17c-1.3,7.9-11.4,14.1-12.4,21.6
		c-2.8,20.4-22.6,29.5-71.5,29.5H128h-0.1h1.1"/>
	<path class="st3" d="M159.9,86.6c1.9,6.3,8.2,27.3-4.2,20.2c0,0,5.1,3,8.4,14.3c3.3,11.3,11.6,12.8,11.6,12.8s13.4,2.6,23.4-5.9
		c8.5-7.2,9.8-20.1,6.3-29.7c-3.6-9.7-10.1-12.7-19.5-14.7S157.8,79.8,159.9,86.6z"/>
	<g>
		<circle cx="183.7" cy="109.6" r="17.6"/>
		<circle class="st4" cx="179.2" cy="101.7" r="4.5"/>
	</g>
	<path class="st1" d="M157,108.7c0,0,15.9,10.7,24.5,21.4c8.6,10.7,8.4,12.7,8.4,12.7l-6.1,2.7c0,0-8.8-16.6-19.7-22.8
		c-10.9-6.3-12.2-11.5-12.2-11.5L157,108.7z"/>
	<g>
		<circle class="st5" cx="127.9" cy="207.9" r="4.2"/>
		<circle class="st6" cx="129.2" cy="209.3" r="1.5"/>
	</g>
	<g>
		<circle class="st5" cx="127.9" cy="214.3" r="2.8"/>
		<circle class="st6" cx="128.7" cy="215.3" r="1"/>
	</g>
	<path class="st3" d="M128.8,101.7c-8.7,0.1-15.1,6-20.7,10.9c-6.6,5.8-18.1,9.9-22.7,14.9c-4.6,4.9-10.7,10.2-13,17.9
		c-2.3,7.8-2.9,17.8-2.9,20.4c0,2.6,0.5,2.8-5.5,0c-9.5-4.5-19.9-17-19.9-17c1.3,7.9,11.4,14.1,12.4,21.6
		C59.3,190.9,79.1,200,128,200h0.2h0.1h0.7"/>
	<path class="st7" d="M175.4,136c-9.6-11.9-25-23-46.4-23h-0.2h0c-21.3,0-36.7,11.1-46.4,23c-10,12.1-9.3,17.1-9.3,28.7
		c0,42.1,14.7,29.5,24.6,34.5c10.1,4.9,20.3,2.8,31.1,2.8h0h0.2c10.7,0,21,2,31.1-2.9c9.9-5.1,24.6,7.7,24.6-34.4
		C184.7,153.1,185.4,148.1,175.4,136z"/>
	<path class="st8" d="M127.9,123.6c0,0-1.3,19.3-4.2,23.1l5.2-1.3L127.9,123.6z"/>
	<path class="st8" d="M129.3,123.6c0,0,1.3,19.3,4.2,23.1l-5.2-1.3L129.3,123.6z"/>
	<path class="st7" d="M112.6,119.2c-2.1-4.6,5.1-12.1,16.5-12.1c11.4,0,18.6,7.5,16.5,12.1c-2,4.7-9.3,6.2-16.5,6.3
		C121.8,125.4,114.6,123.9,112.6,119.2z"/>
	<path d="M129.2,123.7c0-0.9,6.9-1,10.4-3.4c0,0-7.4,2.3-9.1,1.5c-1.6-0.9-1.9-3.2-2.1-3.2c-0.1,0-0.5,2.5-1.9,3.2
		c-1.4,0.8-9.8-1.5-9.8-1.5s11.2,2.7,11.1,3.4c-0.1,0.7-0.1,2.5-0.1,4c0,5,0.1,17.4,0.7,18.4c1.2,1.8,0.7-13.4,0.7-18.4
		C129.3,126.2,129.3,124.5,129.2,123.7z"/>
	<path class="st9" d="M129.4,150.6c3.4,0,9.4,2.3,14.8,6.1c-5.3-5.7-11.4-9.8-14.8-9.8c-3.6,0-11.2,4.4-16.7,10.8
		C118.6,153.3,125.7,150.6,129.4,150.6z"/>
	<path class="st8" d="M128.2,185.8c-7.7,0-15-2.4-21.8-4.2c-1.5-0.4-2.9,0.7-4.3,0.2c-12.5-4-22.8-10.9-29-19.3c0,0.7,0,1.4,0,2.1
		c0,42.1,14.7,29.5,24.6,34.6c10.1,4.9,20.3,2.8,31.1,2.8h0h0.2c10.7,0,21,2,31.1-2.9c9.9-5.1,24.6,7.6,24.6-34.5
		c0-1.6,0.1-3,0.2-4.4c-5.9,9.3-16.4,16.9-29.6,21.3c-1.2,0.4-4-0.6-5.3-0.3C142.8,183.3,136.4,185.8,128.2,185.8z"/>
	<path class="st8" d="M109.1,163.3c0,0-5,15-1.6,21.6l-4.6-2.1C102.9,182.8,106.4,167.7,109.1,163.3z"/>
	<path class="st8" d="M148.8,163.3c0,0,5,15,1.6,21.6l4.6-2.1C155,182.8,151.4,167.7,148.8,163.3z"/>
	<path class="st3" d="M96.4,86.6c-1.9,6.3-8.2,27.3,4.2,20.2c0,0-5.1,3-8.4,14.3s-11.6,12.8-11.6,12.8S67,136.5,57.1,128
		c-8.5-7.2-9.8-20.1-6.3-29.7s10.1-12.7,19.5-14.7S98.4,79.8,96.4,86.6z"/>
	<path d="M128.9,146.9c5.3,0,22.1,11.5,22.5,25.9c0-0.2,0-0.5,0-0.7c0-14.7-13.6-26.6-22.5-26.6s-22.5,11.9-22.5,26.6
		c0,0.2,0,0.5,0,0.7C106.8,158.5,123.6,146.9,128.9,146.9z"/>
	<g>
		
			<ellipse transform="matrix(0.9683 -0.2497 0.2497 0.9683 -24.8237 36.7864)" class="st10" cx="132.6" cy="116.2" rx="1.6" ry="3.1"/>
		
			<ellipse transform="matrix(0.9551 0.2963 -0.2963 0.9551 40.0013 -31.4877)" class="st10" cx="123.9" cy="116.2" rx="1.6" ry="3.1"/>
	</g>
	<g>
		<circle cx="73.5" cy="109.6" r="17.6"/>
		<circle class="st4" cx="78" cy="101.7" r="4.5"/>
	</g>
	<g>
		<path class="st9" d="M134.2,109.7c0-0.1-4.6,2-5.8,2.2c-1.3-0.2-5.9-2.3-5.8-2.2c0-0.1,3.8-0.1,5.8,0.1
			C130.4,109.6,134.2,109.6,134.2,109.7z"/>
	</g>
	<path class="st1" d="M99.2,108.7c0,0-15.9,10.7-24.5,21.4s-8.4,12.7-8.4,12.7l6.1,2.7c0,0,8.8-16.6,19.7-22.8
		c10.9-6.3,12.2-11.5,12.2-11.5L99.2,108.7z"/>
	<path class="st3" d="M64.6,76.7c0,0-5.3,14.7-17.4,21C47.2,97.7,65.9,95.5,64.6,76.7z"/>
	<path class="st3" d="M190.7,76.7c0,0,5.3,14.7,17.4,21C208.1,97.7,189.4,95.5,190.7,76.7z"/>
	<path class="st3" d="M156.4,104.4c0,0-11.7-12.5-27.7-12.8l-0.1,0c-0.1,0,0.2,0,0.1,0c-0.1,0,0.1,0,0.1,0v0
		c-16,0.3-27.6,12.8-27.6,12.8C115.2,94.7,128,95,129,95v0c0,0,0,0,0,0c0,0,0,0,0,0v0C130,95,142.7,94.7,156.4,104.4z"/>
	<path class="st3" d="M142.6,78.3c0,0-5.9-8.5-13.9-8.7l-0.1,0c-0.1,0,0.2,0,0.2,0c-0.1,0,0.2,0,0.2,0v0c-7,0.2-13.8,8.7-13.8,8.7
		c6.9-6.6,13.8-6.4,13.8-6.3v0c0,0,0,0,0,0c0,0,0,0,0,0v0C130,71.9,135.7,71.8,142.6,78.3z"/>
	<path class="st3" d="M73.5,139.8c0,0-9.4,4.7-16.1,1.9l0,0c0,0,0.3,0,0.3,0c0,0,0.4,0,0.4,0v0c-7-3.5-9.4-13.6-9.4-13.6
		S54.1,145.8,73.5,139.8z"/>
	<path class="st3" d="M183.2,139.8c0,0,9.4,4.7,16.1,1.9l0,0c0,0,0.4,0,0.4,0c0,0,0.3,0,0.3,0v0c7-3.5,8.7-13.6,8.7-13.6
		S202.5,145.8,183.2,139.8z"/>
	<path class="st3" d="M128.6,84.5C128.6,84.5,128.6,84.5,128.6,84.5C128.6,84.5,128.6,84.5,128.6,84.5z"/>
	<g>
		<path class="st3" d="M84.4,75.6c5.2-1.1,13.7-1.3,20.6,1.1c8.7,3,1.7,14,3.4,14.6c1.8,0.6,4.1-7.6,20.2-6.8
			c16.1,0.8,18,7.9,20.2,6.8c2.2-1.1-2.2-20.1,22.1-15.7c0,0-25.4-6.8-24.2,11.6c0,0-14.5-11.3-35-1.1
			C111.7,86.1,117,68.9,84.4,75.6z"/>
	</g>
	<path class="st3" d="M173,75.7c0.3,0.1,0.6,0.1,0.9,0.2C173.9,75.9,173.6,75.8,173,75.7z"/>
	<path class="st3" d="M172.8,75.6c0.1,0,0.1,0,0.2,0C173,75.7,172.9,75.7,172.8,75.6z"/>
	<path class="st3" d="M77.4,51.2c0,0-21.6,27.2-24.9,37.7s-5.5,54-8.4,60.1l-10.1-42.7l18.5-44.6L77.4,51.2z"/>
	<path class="st3" d="M178.9,51.2c0,0,21.6,27.2,24.9,37.7c3.3,10.5,5.5,54,8.4,60.1l10.1-42.7l-18.5-44.6L178.9,51.2z"/>
	<path class="st7" d="M177.9,51.2c0,0,23.2,19.4,29.9,41.8s3.9,49.6,9.2,53.1c7.4,4.9,15.8-23.7,18.6-26.8c4.3-4.7,19.1-17,20-19.2
		c1-2.2-29.6-35.6-43-42.1C196.6,50.1,176.6,49.4,177.9,51.2z"/>
	<path class="st8" d="M197.8,63.1c0,0,27.4,35,26.9,78.5l10.9-22.4C235.6,119.2,226,90.6,197.8,63.1z"/>
	<path class="st7" d="M77.4,51.2c0,0-23.2,19.4-29.9,41.8s-3.9,49.6-9.2,53.1c-7.4,4.9-15.8-23.7-18.6-26.8
		c-4.3-4.7-19.1-17-20-19.2c-1-2.2,29.6-35.6,43-42.1C58.7,50.1,78.7,49.4,77.4,51.2z"/>
	<path class="st8" d="M57.5,63.1c0,0-27.4,35-26.9,78.5l-10.9-22.4C19.7,119.2,29.3,90.6,57.5,63.1z"/>
	<path class="st3" d="M42.6,142.5c0,0,1.9,10.9,5.3,14.2c3.4,3.4,1-2.6,1-2.6s-3.3-1.8-2.8-15.6C46.7,124.7,42.6,142.5,42.6,142.5z"
		/>
	<path class="st3" d="M213.4,142.5c0,0-1.9,10.9-5.3,14.2c-3.4,3.4-1-2.6-1-2.6s3.3-1.8,2.8-15.6
		C209.3,124.7,213.4,142.5,213.4,142.5z"/>
	<g>
		<path class="st6" d="M141,225.4c1.5-0.8,2.7-2.2,3-4.1c0.6-3.1-1.5-6-4.6-6.6c-2.8-0.5-5.6,1.2-6.4,3.9c-3.8-1.1-7.6-1.8-11.5-2.1
			c0.2-2.8-1.8-5.4-4.7-5.9c-3.1-0.6-6,1.5-6.6,4.6c-0.3,1.8,0.3,3.6,1.4,4.9c-1.5,0.8-2.7,2.2-3,4.1c-0.6,3.1,1.5,6,4.6,6.6
			c2.8,0.5,5.4-1.1,6.3-3.7c3.8,1,7.7,1.7,11.6,2.1c-0.1,2.7,1.9,5.2,4.7,5.7c3.1,0.6,6-1.5,6.6-4.6
			C142.8,228.4,142.2,226.7,141,225.4z"/>
		<path class="st5" d="M136.9,235.5c-0.4,0-0.7,0-1.1-0.1c-2.9-0.5-4.9-2.9-5.1-5.7c-3.6-0.3-7.2-1-10.7-1.9
			c-1.2,2.6-3.9,4.1-6.8,3.6c-3.4-0.6-5.7-3.9-5.1-7.3c0.3-1.7,1.3-3.2,2.7-4.1c-1-1.4-1.4-3.1-1.1-4.8c0.3-1.6,1.2-3.1,2.6-4
			c1.4-1,3-1.3,4.7-1c2.9,0.5,5,3,5.1,5.9c3.6,0.3,7.1,0.9,10.6,1.9c1.1-2.7,4-4.3,6.9-3.8c1.6,0.3,3.1,1.2,4,2.6c1,1.4,1.3,3,1,4.7
			c-0.3,1.7-1.3,3.2-2.7,4.1c1,1.4,1.4,3.1,1.1,4.8c-0.3,1.6-1.2,3.1-2.6,4C139.4,235.1,138.2,235.5,136.9,235.5z M119.3,226.4
			l0.5,0.1c3.8,1,7.6,1.7,11.5,2.1l0.5,0l0,0.5c0,2.5,1.7,4.7,4.2,5.1c1.3,0.2,2.7-0.1,3.8-0.8c1.1-0.8,1.9-1.9,2.1-3.3
			c0.3-1.6-0.2-3.2-1.3-4.4l-0.5-0.6l0.7-0.3c1.5-0.7,2.4-2.1,2.7-3.6c0.2-1.3-0.1-2.7-0.8-3.8s-1.9-1.9-3.3-2.1
			c-2.5-0.5-5,1.1-5.8,3.5l-0.2,0.5l-0.5-0.2c-3.7-1.1-7.6-1.8-11.4-2l-0.6,0l0-0.6c0.1-2.6-1.7-4.8-4.2-5.3
			c-1.3-0.2-2.7,0.1-3.8,0.8c-1.1,0.8-1.9,1.9-2.1,3.3c-0.3,1.6,0.2,3.2,1.3,4.4l0.5,0.6l-0.7,0.3c-1.5,0.7-2.4,2.1-2.7,3.6
			c-0.5,2.8,1.4,5.4,4.1,5.9c2.5,0.4,4.9-1,5.7-3.3L119.3,226.4z"/>
		<circle class="st11" cx="117.1" cy="214.8" r="2.1"/>
		<circle class="st11" cx="138" cy="230.3" r="2.1"/>
	</g>
	<circle class="st5" cx="126.4" cy="222.8" r="1.3"/>
	<circle class="st5" cx="116.1" cy="221.3" r="1.3"/>
	<circle class="st5" cx="136.6" cy="224.8" r="1.3"/>
	<g>
		<circle class="st8" cx="108.2" cy="134.3" r="1.5"/>
		<circle class="st8" cx="99" cy="144" r="1.5"/>
		<circle class="st8" cx="95.9" cy="134.3" r="1.5"/>
	</g>
	<g>
		<circle class="st8" cx="147.1" cy="134.3" r="1.5"/>
		<circle class="st8" cx="156.3" cy="144" r="1.5"/>
		<circle class="st8" cx="159.4" cy="134.3" r="1.5"/>
	</g>
</g>
</svg>
