<?xml version="1.0" encoding="utf-8"?>
<!-- Generator: Adobe Illustrator 22.1.0, SVG Export Plug-In . SVG Version: 6.00 Build 0)  -->
<svg version="1.1" id="Layer_1" xmlns="http://www.w3.org/2000/svg" xmlns:xlink="http://www.w3.org/1999/xlink" x="0px" y="0px"
	 viewBox="0 0 64 64" style="enable-background:new 0 0 64 64;" xml:space="preserve">
<style type="text/css">
	.st0{fill:#FFFFFF;}
	.st1{fill:#CCAC8D;}
</style>
<title>pug-final-logo-source</title>
<path class="st0" d="M53.6,24.7c-0.1-2.2,0.1-4.1-0.8-5.8c-2.4-4.1-8.4-6.5-20.5-6.5v0.1l0,0v-0.1c-11.8,0-18.3,2.4-20.6,6.5
	c-1,1.7-0.8,3.6-1,5.8c-0.1,1.7-0.9,3.6-0.6,5.6c0.4,2.6,0.6,5.2,1,7.6c0.3,2,2.9,3.6,3.2,5.5c0.7,5.1,5.8,7.4,18,7.4l0,0l0,0l0,0
	c12.3,0,17.1-2.3,17.8-7.4c0.3-1.9,2.8-3.5,3.1-5.5c0.4-2.4,0.6-5,1-7.6C54.5,28.3,53.7,26.4,53.6,24.7z"/>
<circle cx="46" cy="28.3" r="4.4"/>
<circle class="st0" cx="44.9" cy="26.3" r="1.1"/>
<path class="st0" d="M39.3,28.1c2.3,1.5,4.3,3.3,6.1,5.4c2.2,2.7,2.1,3.2,2.1,3.2L46,37.3c0,0-2.2-4.1-4.9-5.7
	C38.4,30,38,28.7,38,28.7L39.3,28.1z"/>
<path d="M43.9,35c-2.8-3.6-7.1-5.7-11.6-5.7h-0.1c-4.5,0-8.8,2.1-11.6,5.7c-2.5,3-2.3,4.3-2.3,7.2c0,10.5,3.7,7.4,6.1,8.7
	s5.1,0.7,7.8,0.7h0c2.7,0,5.3,0.5,7.8-0.8s6.2,1.9,6.2-8.6C46.3,39.2,46.4,38,43.9,35z"/>
<path class="st0" d="M32.4,31.8c0-0.2,1.7-0.2,2.6-0.9c0,0-1.9,0.6-2.3,0.4s-0.5-0.8-0.5-0.8s-0.1,0.6-0.5,0.8
	c-0.8,0-1.7-0.1-2.5-0.4c1,0.2,1.9,0.5,2.8,0.9c0,0.2,0,0.6,0,1c0,1.5,0,3.1,0.2,4.6c0.3,0.5,0.2-3.3,0.2-4.6
	C32.4,32.5,32.4,32.1,32.4,31.8z"/>
<path class="st0" d="M32.3,37.7c1.3,0,5.5,2.9,5.6,6.5c0-0.1,0-0.1,0-0.2c0-3.7-3.4-6.7-5.6-6.7s-5.6,3-5.6,6.7c0,0.1,0,0.1,0,0.2
	C26.8,40.5,31,37.7,32.3,37.7z"/>
<circle cx="18.5" cy="28.3" r="4.4"/>
<circle class="st0" cx="19.6" cy="26.3" r="1.1"/>
<path class="st0" d="M24.9,28.1c-2.3,1.5-4.3,3.3-6.1,5.4c-2.1,2.7-2.1,3.2-2.1,3.2l1.5,0.7c0,0,2.2-4.1,4.9-5.7
	c2.7-1.6,3.1-2.9,3.1-2.9L24.9,28.1z"/>
<path class="st1" d="M32.2,22.1"/>
<path class="st1" d="M43.3,19.8l0.2,0.1L43.3,19.8z"/>
<path class="st1" d="M43.3,19.8L43.3,19.8z"/>
<path d="M44.6,13.7c0,0,5.8,4.8,7.5,10.4s1,12.4,2.3,13.3c1.8,1.2,4-5.9,4.7-6.7c1.1-1.2,4.8-4.3,5-4.8S56.6,17,53.2,15.4
	C49.2,13.4,44.2,13.3,44.6,13.7z"/>
<path d="M19.4,13.7c0,0-5.8,4.8-7.4,10.4s-1,12.4-2.3,13.3c-1.9,1.2-4-5.9-4.7-6.7c-1.1-1.2-4.8-4.3-5-4.8S7.4,17,10.8,15.4
	C14.8,13.4,19.8,13.3,19.4,13.7z"/>
<circle class="st0" cx="27.1" cy="34.5" r="0.4"/>
<circle class="st0" cx="24.8" cy="36.9" r="0.4"/>
<circle class="st0" cx="24.1" cy="34.5" r="0.4"/>
<circle class="st0" cx="36.9" cy="34.5" r="0.4"/>
<circle class="st0" cx="39.2" cy="36.9" r="0.4"/>
<circle class="st0" cx="39.9" cy="34.5" r="0.4"/>
<path d="M28.2,30.7c-0.5-1.2,1.3-3,4.1-3s4.7,1.9,4.1,3s-2.3,1.6-4.1,1.6C30.5,32.3,28.7,31.9,28.2,30.7z"/>
<ellipse transform="matrix(0.9683 -0.2497 0.2497 0.9683 -6.4344 9.248)" class="st0" cx="33.2" cy="30" rx="0.4" ry="0.8"/>
<ellipse transform="matrix(0.2962 -0.9551 0.9551 0.2962 -6.7708 50.7604)" class="st0" cx="31.1" cy="30" rx="0.8" ry="0.4"/>
</svg>
