<?xml version="1.0" encoding="utf-8"?>
<!-- Generator: Adobe Illustrator 22.1.0, SVG Export Plug-In . SVG Version: 6.00 Build 0)  -->
<svg version="1.1" id="Layer_1" xmlns="http://www.w3.org/2000/svg" xmlns:xlink="http://www.w3.org/1999/xlink" x="0px" y="0px"
	 viewBox="0 0 512 512" style="enable-background:new 0 0 512 512;" xml:space="preserve">
<style type="text/css">
	.st0{fill:#FFFFFF;}
	.st1{fill:#CCAC8D;}
</style>
<title>pug-final-logo-source</title>
<path d="M362.7,405.6c-68.5,25.3-143.8,25.3-212.4,0c-6.3-2.3-11.3-9.7-11.3-16.1V373c0-6.5,5.1-9.6,11.3-7.3
	c68.5,25.3,143.8,25.3,212.4,0c6.3-2.3,11.3,0.8,11.3,7.3v16.5C374,395.9,369,403.3,362.7,405.6z"/>
<path class="st0" d="M428.7,187.3c-1-17.4,0.9-33.1-6.8-46.5c-19-33-66.9-52-163.9-52v1l0,0v-1c-94,0-145.9,19.3-165,52.3
	c-7.7,13.4-6.6,28.9-7.6,46.4c-0.8,13.9-7,28.9-4.5,45c3.3,20.9,4.7,41.5,7.8,60.8c2.5,15.7,23.6,28.7,25.6,43.7
	c5.5,40.8,46.7,59.5,143.6,59.5v0.4l0,0v-0.4c98,0,137.1-18.7,142.6-59.5c2-15,22.3-28,24.8-43.7c3.1-19.3,4.5-40,7.7-60.8
	C435.6,216.3,429.5,201.2,428.7,187.3z"/>
<circle cx="368.1" cy="216.2" r="35.2"/>
<circle class="st0" cx="359.1" cy="200.5" r="9"/>
<path class="st0" d="M314.7,214.5c0,0,31.8,21.4,49,42.8s16.9,25.4,16.9,25.4l-12.2,5.4c0,0-17.5-33.1-39.3-45.7s-24.5-23-24.5-23
	L314.7,214.5z"/>
<circle cx="256.5" cy="425.6" r="5.6"/>
<path d="M351.5,269.4c-19.3-23.8-50.1-45.6-92.7-45.6h-0.4c-42.6,0-73.4,21.8-92.7,45.6c-19.9,24.2-18.6,34-18.6,57.3
	c0,84.1,29.5,59.2,49.2,69.3c20.1,9.9,40.6,5.9,62.1,5.9h0.4c21.5,0,42,3.7,62.1-6.2c19.7-10.1,49.2,15.3,49.2-68.8
	C370.1,303.5,371.4,293.6,351.5,269.4z"/>
<path class="st0" d="M259.2,244.4c-0.1-1.7,13.7-1.9,20.8-6.8c0,0-14.9,4.7-18.1,2.9s-3.9-6.5-4.2-6.5s-1,5-3.7,6.5
	s-19.6-2.9-19.6-2.9s22.4,5.4,22.3,6.8s-0.2,5.1-0.2,7.9c0,10,0.2,34.9,1.5,36.8c2.5,3.7,1.5-26.8,1.5-36.8
	C259.4,249.4,259.3,246.1,259.2,244.4z"/>
<path class="st0" d="M258.6,290.9c10.6,0,44.3,23.1,44.9,51.8c0-0.5,0.1-1,0.1-1.4c0-29.4-27.3-53.2-45-53.2s-45,23.8-45,53.2
	c0,0.5,0,1,0.1,1.4C214.3,314,247.9,290.9,258.6,290.9z"/>
<circle cx="147.8" cy="216.2" r="35.2"/>
<circle class="st0" cx="156.8" cy="200.5" r="9"/>
<path class="st0" d="M199.2,214.5c0,0-31.8,21.4-49,42.8s-16.9,25.4-16.9,25.4l12.3,5.4c0,0,17.5-33.1,39.3-45.7s24.5-23,24.5-23
	L199.2,214.5z"/>
<path class="st1" d="M257.9,166.1C257.9,166.1,258,166.1,257.9,166.1S257.9,166.1,257.9,166.1z"/>
<path class="st1" d="M346.7,148.4c0.6,0.1,1.2,0.3,1.8,0.4C348.5,148.9,347.9,148.7,346.7,148.4z"/>
<path class="st1" d="M346.4,148.4l0.3,0.1L346.4,148.4z"/>
<path d="M356.5,99.4c0,0,46.4,38.8,59.8,83.6s7.9,99.2,18.4,106.2c14.8,9.8,31.6-47.4,37.2-53.6c8.7-9.5,38.1-34,40-38.4
	c1.9-4.4-59.2-71.1-86.1-84.3C393.9,97.3,353.9,95.9,356.5,99.4z"/>
<path d="M155.5,99.4c0,0-46.4,38.8-59.8,83.6s-7.9,99.2-18.4,106.2c-14.8,9.8-31.6-47.4-37.2-53.6c-8.7-9.5-38.1-34-40-38.4
	s59.2-71.1,86.1-84.3C118.1,97.3,158.1,95.9,155.5,99.4z"/>
<path d="M282.8,447.9c5.6-2.8,7.9-9.6,5-15.2s-9.6-7.9-15.2-5c-2.8,1.4-4.8,3.8-5.7,6.8c-7.5-2.2-15.3-3.5-23.1-4.1
	c0.3-6.3-4.4-11.6-10.7-11.9s-11.6,4.4-11.9,10.7c-0.2,3.1,0.9,6.1,3.1,8.4c-5.6,2.8-7.8,9.6-5,15.2c2.8,5.6,9.6,7.8,15.2,5
	c2.6-1.3,4.6-3.6,5.6-6.4c7.6,2.1,15.4,3.5,23.2,4.1c-0.1,6.3,4.9,11.4,11.1,11.5c6.3,0.1,11.4-4.9,11.5-11.1
	C285.9,452.9,284.8,450.1,282.8,447.9L282.8,447.9z"/>
<path d="M274.5,468.1c-0.7,0-1.5-0.1-2.2-0.2c-5.7-1-9.9-5.7-10.3-11.4c-7.2-0.7-14.3-2-21.4-3.8c-2.8,6.3-10.2,9.1-16.5,6.3
	c-6.3-2.8-9.1-10.2-6.3-16.5c1-2.2,2.6-4,4.6-5.4c-4.1-5.5-2.9-13.4,2.6-17.5c5.5-4.1,13.4-2.9,17.5,2.6c1.5,2,2.3,4.5,2.4,7
	c7.2,0.6,14.3,1.9,21.2,3.8c2.6-6.4,9.9-9.4,16.3-6.8c6.4,2.6,9.4,9.9,6.8,16.3c-1,2.3-2.6,4.3-4.7,5.7c4.1,5.6,2.9,13.4-2.6,17.5
	C279.8,467.3,277.2,468.1,274.5,468.1L274.5,468.1z M239.2,449.9l1,0.3c7.5,2.1,15.2,3.4,23,4.1l1.1,0.1v1.1
	c-0.1,5.6,4.4,10.3,10,10.4s10.3-4.4,10.4-10c0.1-2.6-0.9-5.2-2.7-7.1l-1.1-1.1l1.4-0.7c5-2.5,7.1-8.6,4.6-13.6s-8.6-7.1-13.6-4.6
	c-2.5,1.2-4.4,3.5-5.2,6.1l-0.3,1.1l-1.1-0.3c-7.5-2.1-15.1-3.5-22.9-4.1l-1.1-0.1l0.1-1.1c0.3-5.6-4-10.4-9.6-10.7
	c-5.6-0.3-10.4,4-10.7,9.6c-0.2,2.8,0.8,5.5,2.7,7.5l1,1.1l-1.4,0.7c-5,2.5-7.1,8.6-4.5,13.6c2.5,5,8.6,7.1,13.6,4.5
	c2.4-1.2,4.2-3.3,5.1-5.8L239.2,449.9z"/>
<ellipse transform="matrix(0.1602 -0.9871 0.9871 0.1602 -224.0672 621.9606)" class="st0" cx="253.5" cy="442.7" rx="2.6" ry="2.6"/>
<circle class="st0" cx="233" cy="439.6" r="2.6"/>
<circle class="st0" cx="274" cy="446.8" r="2.6"/>
<circle class="st0" cx="217.1" cy="265.6" r="3.1"/>
<circle class="st0" cx="198.7" cy="285" r="3.1"/>
<circle class="st0" cx="192.5" cy="265.6" r="3.1"/>
<circle class="st0" cx="294.9" cy="265.6" r="3.1"/>
<circle class="st0" cx="313.3" cy="285" r="3.1"/>
<circle class="st0" cx="319.5" cy="265.6" r="3.1"/>
<path d="M225.8,235.4c-4.1-9.2,10.3-24.2,33.1-24.2s37.2,15,33.1,24.2c-4,9.4-18.6,12.5-33.1,12.7
	C244.4,247.8,229.9,244.8,225.8,235.4z"/>
<ellipse transform="matrix(0.9683 -0.2497 0.2497 0.9683 -48.8933 73.6629)" class="st0" cx="265.9" cy="229.5" rx="3.3" ry="6.2"/>
<ellipse transform="matrix(0.2962 -0.9551 0.9551 0.2962 -44.3345 398.8657)" class="st0" cx="248.5" cy="229.5" rx="6.2" ry="3.3"/>
</svg>
