<?xml version="1.0" encoding="utf-8"?>
<!-- Generator: Adobe Illustrator 19.1.0, SVG Export Plug-In . SVG Version: 6.00 Build 0)  -->
<svg version="1.1" id="Layer_1" xmlns="http://www.w3.org/2000/svg" xmlns:xlink="http://www.w3.org/1999/xlink" x="0px" y="0px"
	 viewBox="0 0 600 600" style="enable-background:new 0 0 600 600;" xml:space="preserve">
<style type="text/css">
	.st0{fill:#F2F2F2;}
	.st1{fill:#ED1C24;}
	.st2{fill:#C1272D;}
	.st3{fill:#FF931E;}
	.st4{fill:#FFB81E;}
	.st5{fill:#F7BD89;}
	.st6{fill:#FBD5A0;}
	.st7{fill:#FFFFFF;}
	.st8{fill:#333333;stroke:#4D4D4D;stroke-width:4.1593;stroke-miterlimit:10;}
	.st9{fill:#4D4D4D;}
	.st10{fill:#808080;}
	.st11{fill:#D16800;}
</style>
<circle class="st0" cx="300" cy="300" r="300"/>
<path class="st1" d="M390.4,477.6c-59.2,21.8-124.4,21.8-183.6,0c-5.4-2-9.8-8.4-9.8-14c0-4.7,0-9.5,0-14.2c0-5.6,4.4-8.3,9.8-6.3
	c59.2,21.8,124.4,21.8,183.6,0c5.4-2,9.8,0.7,9.8,6.3c0,4.7,0,9.5,0,14.2C400.2,469.3,395.8,475.7,390.4,477.6z"/>
<path class="st2" d="M390.4,460.2c-59.2,30.3-124.4,30.3-183.6,0c-5.4-2.8-9.8-11.7-9.8-19.4c0-6.6,0-13.2,0-19.8
	c0-7.7,4.4-11.5,9.8-8.8c59.2,30.3,124.4,30.3,183.6,0c5.4-2.8,9.8,1,9.8,8.8c0,6.6,0,13.2,0,19.8
	C400.2,448.5,395.8,457.4,390.4,460.2z"/>
<circle class="st2" cx="298.6" cy="485.1" r="8.4"/>
<circle class="st3" cx="298.6" cy="483.8" r="7.2"/>
<circle class="st4" cx="300.8" cy="486.4" r="2.5"/>
<path class="st5" d="M480.8,329.4c5.5,74.8-75.5,141.9-181,141.8c-105.6,0.1-186.5-67-181-141.8c5.5-75,86.8-136.9,181.3-137
	C394.5,192.5,475.3,254.4,480.8,329.4z"/>
<path class="st6" d="M299.4,181.9c-99.3,0-191.5,69.9-174.1,176.4c3.5,9.9,9.3,35.4,36.9,58c8.2,6.8,22.6,12.5,29.3,7.9
	c17.3-11.7-13.4-45.6,21.7-76.8c0,0-0.3,0-0.8,0c19.1-14.5,46.2-26,86.7-26.1c40.5,0.1,67.6,11.6,86.7,26.1c-0.5,0-0.7,0-0.7,0
	c35.1,31.2,4.4,65.1,21.8,76.8c6.8,4.6,21.2-1.1,29.4-7.9c27.6-22.6,33.5-48.1,37-58C490.6,251.8,398.7,181.9,299.4,181.9z"/>
<path d="M384.9,359.1c-16.7-20.5-48.3-40.1-85.2-40.1h-0.3h-0.1c-36.9,0-68.5,19.6-85.2,40.1c-17.2,20.9-11,29.8-11,49.9
	c0,72.7,25.5,51.7,42.5,60.4c17.4,8.6,35.1,5.6,53.7,5.6h0.1h0.3c18.6,0,36.3,2.8,53.7-5.7c17.1-8.7,42.5,12.7,42.5-60
	C395.9,389.2,402.1,380.1,384.9,359.1z"/>
<g>
	<circle class="st5" cx="176.9" cy="326.6" r="30.5"/>
	<circle class="st5" cx="184.7" cy="313" r="7.8"/>
</g>
<g>
	<circle cx="179.5" cy="321.4" r="30.5"/>
	<circle class="st7" cx="187.3" cy="307.8" r="7.8"/>
</g>
<g>
	<circle class="st5" cx="421.3" cy="326.6" r="30.5"/>
	<circle class="st5" cx="429.2" cy="313" r="7.8"/>
</g>
<g>
	<circle cx="419.6" cy="321.4" r="30.5"/>
	<circle class="st7" cx="427.4" cy="307.8" r="7.8"/>
</g>
<path class="st5" d="M235.3,209.3c0,0-103.2,17.8-107.3,141c-0.1,1.9-2.1,3-3.7,2.1l-3.3-2l-2.5-32.3l4.7-65.9l43-31.8l38.6-15.6
	L235.3,209.3z"/>
<path class="st5" d="M363.4,209.3c0,0,103.2,17.8,107.3,141c0.1,1.9,2.1,3,3.7,2.1l3.3-2l2.5-32.3l-4.7-65.9l-43-31.8l-38.6-15.6
	L363.4,209.3z"/>
<line class="st8" x1="299.5" y1="366.5" x2="299.5" y2="431.7"/>
<g>
	<path d="M235.3,209.3c0,0-121.4,16.8-111,137.4c0.5,6.1-24.3-26.1-43.5-35.9c-19.2-9.8-18.6-41.6-18.6-41.6s-0.4-55.3,77.2-71.7
		S235.3,209.3,235.3,209.3z"/>
	<path d="M363.4,209.3c0,0,121.4,16.8,111,137.4c-0.5,6.1,24.3-26.1,43.5-35.9c19.2-9.8,18.6-41.6,18.6-41.6s0.4-55.3-77.2-71.7
		S363.4,209.3,363.4,209.3z"/>
</g>
<path class="st5" d="M299.5,296.1c-37.8,0-75.9,37.1-68,33c14.8-7.7,23.2-21.4,68-21.4s53.2,13.7,68,21.4
	C375.4,333.2,337.3,296.1,299.5,296.1z"/>
<path class="st5" d="M299.5,279.9c-28.7,0-57.7,28.2-51.6,25c11.2-5.9,25.7-16.3,51.6-16.3s40.4,10.4,51.6,16.3
	C357.2,308.1,328.2,279.9,299.5,279.9z"/>
<path class="st5" d="M299.3,188.5c-31.7,0-63.7,18.1-57,16.1c12.4-3.8,28.4-10.5,57-10.5s44.6,6.7,57,10.5
	C363,206.6,331,188.5,299.3,188.5z"/>
<g>
	<path class="st9" d="M300,428.4c-6.9,0.2-16.4,4.6-25.4,7.3c-8.7,3-16.9,4.2-13.6,4.7c11.3,0.4,23.7-3.9,39-3.6
		c15.3-0.2,27.8,4.1,39,3.6c3.3-0.5-5-1.7-13.6-4.7C316.4,433,306.9,428.6,300,428.4z"/>
</g>
<path class="st9" d="M328,345.5c3.6,8-8.9,20.9-28.6,20.9c-19.7,0-32.2-13-28.6-20.9c3.5-8.2,16.1-10.8,28.6-11
	C311.9,334.8,324.5,337.4,328,345.5z"/>
<path class="st10" d="M306.6,341.2c0.9,2-2.2,5.2-7.1,5.2c-4.9,0-7.9-3.2-7.1-5.2c0.9-2,4-2.7,7.1-2.7
	C302.6,338.5,305.7,339.2,306.6,341.2z"/>
<circle class="st3" cx="298.6" cy="512.4" r="22.5"/>
<circle class="st4" cx="298.6" cy="512.5" r="20.1"/>
<g>
	<path class="st11" d="M304.6,506.1c1.2,1,1.8,2.6,1.8,4.8c0,2.2-0.6,3.7-1.9,4.8c-1.3,1-3.2,1.5-5.8,1.5h-2.3v4.9h-3.9v-17.5h6.2
		C301.4,504.6,303.3,505.1,304.6,506.1z M301.7,513c0.5-0.5,0.7-1.3,0.7-2.3c0-1-0.3-1.7-0.9-2.2c-0.6-0.4-1.6-0.6-2.8-0.6h-2.2v5.9
		h2.6C300.3,513.8,301.2,513.5,301.7,513z"/>
</g>
</svg>
