<svg xmlns="http://www.w3.org/2000/svg" height="500" width="500"><path fill="#c8beb7" d="M267.488 301.243c-61.741-17.495-46.333 10.857-57.24-15.761-40.792-7.19-45.566 7.426-33.185 35.795 12.523-1.847 39.196-8.764 45.993 11.4 7.236 33.212-15.946 29.517-30.79 21.15-16.443 8.919 10.8 51.66-19.295 34.92-14.479-8.05-25.86-17.125-27.99-34.663-24.784 5.123-26.473 11.631-14.878 38.483 7.977-14.597 38.064-3.37 50.123 18.85 7.446 12.684 7.034 39.145-10.688 28.848-11.506 17.002-12.918 31.81-20.15 6.723 2.216-26.39-18.056-17.622-23.39-.536.632 8.095 3.006 20.35 13.967 11.173 5.52 18.208 20.283 44.12 33.33 23.863 19.253.54 37.652 12.255 57.425 8.977 34.78-16.993 47.753 14.533 54.45-.857 18.311 6.086 47.535 4.726 46.18-25.617-1.532-32.156-8.917-29.083-8.26-5.766-15.541 22.244-7.933-30.021-9.084-40.898-4.07-21.827 18.4-33.079 29.672-46.457 22.604 9.917 23.234-5.079 18.47-35.406-21.185 15.845-20.954-21.955-22.034 18.057-11.065 11.864-30.324 60.486-40.62 17.567-8.59-19.986-34.144 10.337-45.998-19.222-12.428-28.698 15.755-30.06 32.19-29.558 25.167-1.729 26.777-47.529-.184-44.782-16.762-1.89-17.398 8.42-18.016 23.715z"/><path stroke-linejoin="round" d="M217.85 453.38c7.224 34.324 28.193 30.773 31.742 2.23l-13.938-10.6c-4.643 2.668-5.684 4.991-17.803 8.37z" stroke="#000" stroke-linecap="round" stroke-width="5" fill="red" transform="matrix(.85783 0 0 1.0017 34.476 -74.285)"/><g transform="matrix(.68876 .00966 -.01005 1.002 80.707 -78.747)" fill="#666"><ellipse rx="16.668" transform="matrix(1.2879 0 0 1.2713 92.77 -82.778)" ry="16.289" cy="404.22" cx="109.35"/><path stroke-linejoin="round" d="M168.62 429.8c-26.81 16.644-3.775 33.28 20.011 32.959 23.786-.321 32.618-2.75 45.11-12.025 22.753 16.032 38.128 11.925 54.391 10.077 16.262-1.848 30.211-24.874 8.726-30.732" stroke="#000" stroke-linecap="round" stroke-width="5"/></g><g stroke-linejoin="round" stroke="#000" stroke-linecap="round" transform="matrix(.85783 0 0 1.0017 34.476 -74.285)"><g stroke-width="5"><path fill="none" d="M191.72 369.62c-2.44 5.904-4.204 13.364-7.32 17.714-3.117 4.349-7.882 5.098-11.358 6.282-3.475 1.184-5.538 5.69-8.355.434s-5.728-18.382-1.906-26.956c.066-4.905 2.772-9.47 7.998-10.612 5.163 1.074 10.42 5.676 16.478 2.682 5.402-1.635 11.628-4.243 16.76-.315 6.194 2.121 4.045 10.862 8.731 13.132 5.103-2.024 10.265-3.94 15.927-3.265 7.95.546 15.844 1.728 23.787 2.356 6.315.815 12.612 2.074 18.575 4.35 3.334-6.59 1.194-14.744 5.501-20.995 2.533-6.084 11.304-6.108 15.872-2.73 5.244 5.435 13.104-3.743 18.214 2.627 4.917 7.075 1.136 15.925 2.613 23.78.507 5.623-1.265 13.307-7.802 14.37-9.988 1.238-18.042-7.716-20.303-16.709-.766-2.433-1.403-4.904-2.19-7.33"/><circle transform="rotate(4.019)" cy="397.42" cx="228.45" r="21.718" fill="#fff"/><circle transform="rotate(4.019)" cy="395.68" cx="303.24" r="21.718" fill="#fff"/><path d="M234.46 440.45l-10.837-9.433c6.854-2.903 14.096-2.773 21.821 1.135z"/></g><circle r="11.22" transform="rotate(4.019)" cy="399.11" cx="304.09" stroke-width="4.203"/><g fill="none"><path stroke-width="4.991" d="M292.73 432.04c14.433 12.481 24.206 19.563 27.383 32.892 14.073-12.938 24.952-26.588 39.025-39.526-5.793-4.832-8.81-20.366 2.889-17.124 7.049 3.026-2.522 19.295 6.366 8.254 4.586-9.61 19.322-8.702 17.017 3.216-4.973 1.422-11.59 2.456-4.583 5.022 11.704 4.466 1.636 16.998-4.824 9.713 10.82 5.668 4 19.144-4.148 11.772-5.231-5.444-12.772-3.454-17.989 2.106-9.407 10.544-20.243 20.373-29.65 30.918l1.717 68.592"/><g stroke-width="5"><path d="M173.36 469.25c-14.717-9.135-29.054-19.532-43.771-28.668 1.763-7.1 5.093-17.225-6.63-13.818-7.027 2.71 4.224 18.785-4.403 8.913-3.036-7.226-15.845-6.146-10.923 4.342 4.95 1.93 11.508 5.6.36 2.235-14.184-4.038-4.002 20.128 7.083 9.449 10.116-4.612-12.913 6.497-3.644 12.582 8.68-.062 9.539-8.474 17.326-5.81 12.465 6.335 23.64 11.98 35.896 18.725 9.124 6.343 6.736 17.489 8.495 26.973 1.249 9.417 2.953 18.766 4.387 28.156M235.49 451.42l-.381 12.631M313.9 515.59c-6.063-4.983-10.244-13.803-18.19-14.948-7.946-1.145-17.554 1.363-22.912 9.024-5.358 7.66-6.055 20.879-3.037 31.397.566 3.025 1.944 7.463-1.693 3.177-8.038-6.8-17.59-11.831-25.629-18.63.596-3.672 1.191-8.1 1.787-11.772-2.964-1.052-8.893-.631-8.893-.631-6.731 3.297-.443 14.25-10.712 9.434-9.648 1.583-6.1 15.844 3.043 14.39-9.93 2.472-4.997 18.308 4.226 11.385 3.88-5.528 10.124-11.714 15.232-3.333 7.289 5.828 14.22 12.4 22.435 16.99l15.76 4.965c8.293.516 5.016-13.636 12.003-18.5-6.425-8.96 2.302 2.285 2.695 1.912"/><path d="M174.06 516.9l-14.902-4.085c-5.372 3.28-10.176 7.837-11.809 14.081-.447 4.415-.862 13.264-4.709 5.287-4.285-5.988-7.643-11.663-11.942-17.641 6.498-4.473 2.87-14.394-5.96-12.293-5.951 1.228 1.437 12.032-4.734 6.134-5.47-2.73-13.16 4.725-12.101 11.432-.14 6.621 10.312-.562 6.581 6.304-9.969-2.422-5.43 15.18 1.915 8.552 4.441-4.784 9.872-2.057 11.535 3.438 4.867 7.9 9.1 16.508 16.565 22.352l7.31 1.435c6.705-3.354 8.722-6.404 14.92-8.7 6.487 1.31 11.609 3.005 18.085 4.537 8.704 2.302 17.765 2.705 26.689 3.66 9.938.907 19.832-.746 29.766-.669 5.92-.266 10.478-4.182 19.269-3.821M292.58 559.65c10.017 5.64 22.309 8.023 33.513 4.865 7.644-2.092 15.494-8.072 17.828-15.693.75-2.896 1.341-5.324 1.852-8.334 1.65-7.317 2.752-14.474.08-21.545-1.985-4.09-7.119-6.593-10.875-5.488-4.614.367 1.464 3.277 3.417 6.063 1.74 4.732 1.577 10.734-1.876 15.017-1.998 2.431-5.056 3.671-8.05 4.347"/></g><g stroke-width="3"><path d="M275.2 385.92c-9.11.502-20.568 4.547-22.859 14.505M268.4 380.8c-8.395.16-19.139 4.016-20.29 13.612M203.11 382.66c8.95 1.77 19.73 7.378 20.606 17.558M210.56 378.52c8.29 1.333 18.39 6.652 18.187 16.315"/></g></g><circle r="11.22" cx="228.58" cy="399.64" transform="rotate(4.019)" stroke-width="4.203"/><g fill="none"><path stroke-width="4.914" d="M173.28 468.97c-.45-8.041 9.658-4.542 6.83-14.594"/><g stroke-width="3"><path d="M202.04 441.76s.802.056 4.713 1.13M188.19 443.01s.802.056 4.713 1.13M273.19 446.76s.802.056 4.713 1.13M253.73 447.54s.802-.056 4.713-1.13M194.44 450.4s.802-.056 4.713-1.13M266.94 453.08s.802-.056 4.713-1.13"/></g></g></g><path stroke="#707070" stroke-width=".101" fill="#c87137" d="M338.024 154.31c.235-1.635 1.48-2.864 2.502-2.565 29.73 5.067 59.464 10.113 89.194 15.175 1.01.128 1.7 1.668 1.391 3.22-4.948 29.082-9.896 58.164-14.836 87.248-.198 1.58-1.378 2.88-2.383 2.636-14.29-2.418-28.571-4.883-42.866-7.273-.101-.01 1.109.972 1.109.972-1.854 16.946-4.264 29.337-7.654 49.312-1.007 5.759-7.706 55.424-8.783 61.17-3.56 22.57-11.112 17.483-9.61 3.987 4.026-24.038 15.684-92.21 19.736-116.25l-.296-.102c-13.162-2.345-26.363-4.499-39.539-6.77-.632-.138-1.297-.132-1.898-.407-.712-.432-1.138-1.665-.937-2.895 4.952-29.153 9.92-58.308 14.87-87.461m1.992.402c-.37 1.702-.601 3.43-.911 5.143-4.638 27.337-9.322 54.67-13.932 82.012 29.726 5.056 59.446 10.146 89.18 15.152 4.923-29.048 9.877-58.09 14.815-87.137-29.718-5.057-59.438-10.096-89.151-15.17z"/><path d="M399.584 214.85c.344.485.266 1.169-.28 1.425-1.34.585-2.865.21-4.27-.184-2.364-.674-5.207-1.273-6.065-3.743-.037-.006-.03-.044-.062-.088-1.434-1.135 1.342-1.283 2.114-1.268 1.732.062 3.462.821 5.055 1.48 1.348.5 2.602 1.1 3.508 2.378zm15.877 39.655c-1.264.599-1.005 2.037-1.955 2.844-.945.769-2.865.442-3.881.27-4.336-.699-8.495-1.755-12.807-2.14a16.737 16.737 0 0 0-3.17-.036c-.315.025-.836.13-1.143-.116-.789-.6-1.336-2.164-2.542-1.905-1.012.254-1.958 1.488-2.946.468-1.808-1.896-3.777-.798-6.031-.755-2.336.068-4.27-1.54-6.594-1.315-1.74.208-3.405.428-5.003-.425-1.59-.89-1.82-2.285-.14-3.278 2.661-1.523 5.611-1.33 8.472-.612 4.34 1.126 8.765 1.53 13.209 2.053.15.026.213.114.193.227 1.755 1.073 3.216-.228 4.531-1.36.183-.163.427-.005.484.12 1.184 2.604 3.552.295 5.509.86.52.128.984.361 1.24.908.112.252.105.522.06.786-.13 1.217 1.459 1.216 1.626.005.032-.189.29-.339.465-.231 1.473.908 3.365 2.083 4.926.644 1.33-1.208 1.82-3.177 2.22-4.852 1.001-4.517 1.494-9.236 1.923-13.812.486-4.45.758-9.013 2.035-13.329 1.27-4.277 1.956-8.538 2.63-12.955.352-2.303.63-4.619 1.171-6.89.434-2.095 1.195-4.29 1.327-6.437.095-1.92-.76-3.731-.672-5.615.063-1.732.59-3.463 1.285-5.049.399-.978 1.137-2.13 1.28-3.191.115-.91.237-1.858.429-2.755.077-.452.123-1.18.526-1.499.636-.55 1.06-1.446-.164-1.77-2.91-.883-5.64-3.284-8.777-1.92-.07.647-.155 1.369-.414 1.983l.324.597c.664.423 1.36.658 2.145.83.903.154 1.92.094 2.811.323.74.203 1.265.99.854 1.811-.297.608-.951 1.04-1.38 1.509-.762.838-.88 2.213-1.065 3.305a198.872 198.872 0 0 0-1.314 8.182c-.31 2.272-.474 4.607-.707 6.891.03.044.175.107.156.22-.36 2.573.077 5.243-.321 7.81.03.043-1.216 3.047-1.216 3.047-.601 3.306-1.908 9.398-1.908 9.398-.998 5.64-2.931 11.084-2.907 16.86.03 2.33-1.207 4.365-1.666 6.611-.498 2.472-.613 4.97-1.412 7.391.012.157-.051.301-.253.345-5.324.101-10.59-.6-15.809-1.798-1.304-.3-2.829-.675-4.192-.403-.528.142-1.257.329-1.853.188-.74-.203-1.014-.87-1.71-1.104-.871-.342-1.705-.677-2.559-.9-2.282-.698-4.478-1.227-6.821-.657-1.295.323-2.536-.121-3.658-.816-1.328-.845-2.298-1.746-4.014-1.225-.691.193-1.314.435-2.054.465-.628.048-1.13-.192-1.619-.508-1.127-.657-2.043-.967-3.362-.96.12.215-.051.534-.315.49-7.572-1.715-15.406-2.117-23.067-3.304-.39.011-.723.38-.95.342l-.225-.038c-.188-.032-.117-.679-.06-.785-.825-1.303.073-4.985.296-6.07 1.511-7.065 1.824-14.371 2.84-21.481.526-3.552 1.135-7.128 2.295-10.533 1.35-3.838 2.003-7.678 2.6-11.644 1.15-7.9 3.273-15.596 4.385-23.503.026-.15.182-.163.252-.112l.081-.025c2.14.17 4.533-.004 6.508.913a.082.082 0 0 1 .062.088l.295.089 2.334.397c.075.013.182.07.175.107 4.135.742 8.334 1.108 12.507 1.624 1.437.205 2.937.5 4.444.29.754-.104 1.684-.333 2.424-.13 1.857.471 3.68 1.362 5.455 2.09 1.273.488 2.56-1.617 3.593-.628 1.578 1.43 3.681 1.362 5.708 1.745 1.085.224 2.14.17 3.232.356.602.103 1.066.337 1.574.54.54.014.985.128 1.55.456l9.688 1.338c1.914.365 3.996.874 5.963.472.521-.105.83-.324 1.031-.6-.05-.162-.1-.326-.143-.527-.105-.289-.198-.654-.355-.874-1.955-1.03-4.358-1.245-6.523-1.729-2.948-.656-5.918-.735-8.93-1.015-2.787-.242-5.68-.54-8.39-1.234-1.593-.426-4.521-1.66-6.106-.767a.414.414 0 0 1-.414-.07c-2.27-2.595-6.285.054-9.143-1.362-1.718-.834-3.348-1.499-5.306-1.6-1.877-.125-3.729-.169-5.611-.489-4.097-.735-8.208-1.163-12.286-2.012-.897-.191-1.763-.338-2.572-.592-.703-.197-1.58-.734-2.347-.554-1.2.222-1.49.56-1.434.918.263.277-1.035 1.528-1.156 2.244l-.396 1.869c-.511 2.78-1.135 5.307-2.236 7.91-.544 1.379-1.605 3.29-1.322 4.81.141.993.748 1.755 1.021 2.653.453 1.665.17 3.554-.187 5.198l-3.205 16.112c-1.104 5.351-2.364 10.715-3.06 16.175-.664 5.04-.744 10.294-2.267 15.148-.508 1.618-3.002 4.215-1.28 5.709.982.826 2.237 1.194 3.46 1.518 3.017.707 6.124.887 9.269 1.073 1.155.042 2.323.008 3.452.2.873.11 1.644.357 2.42.799.671.385 1.68 1.06 2.508 1.202.031.043 1.362.192 1.501-.171 1.213-.298 2.256-.508 3.641 0 1.349.5 2.559.9 4.072.885.779-.022 1.92.095 2.642.41l.263.278c.326-.1-.253.344-.573.406-1.81.39-1.653 2.663-2.091 4.099-.026.151-.22.156-.296.143-.678-.115-1.619-.275-1.874-1.054-.54-1.603-2.288-2.946-2.813.141-.032.188-.195.238-.308.219-.15-.026-.25-.12-.219-.308.032-.189-1.784-1.582-1.99-1.734-.89-.693-1.91-1.525-3.148-1.31-.753.105-1.426.417-2.155.602-1.455 1.264-3.003 2.627-4.613 1.385-.345-.252-1.595-1.782-1.941-1.57-.49.381-1.02.757-1.623.886-1.727.365-3.402-.036-5.128-.368-.075-.013-.25-.12-.225-.27.04-.692-.106-2.11-1.188-1.442-.258.15-.478.305-.742.493-.302.181-.692.425-1.057.518-1.206.26-4.567-.932-4.885-1.8-.273-.666-.284-1.288-.32-1.99.019-1.702.515-3.477.727-5.184.573-4.28.983-8.51 1.367-12.822.177-2.178.367-4.431.926-6.582.313-1.38.714-3.288 1.647-4.446.776-.914.503-1.813-.16-2.7-.15-.258-.155-.685-.11-.949.118-1.607.701-3.212 1.046-4.78.273-1.154.66-2.29.859-3.457.153-.903.112-1.801.184-2.68.04-.458.078-.916.412-1.286.656-.663.65-1.09.497-2.007-.32-1.76.621-3.652.99-5.37.497-2.008.912-3.99 1.038-6.1.158-2.297.078-4.557.62-6.828.502-2.045.935-3.909 1.394-5.922.815-3.658 1.45-7.385 1.964-11.093l-.147.866s.499-4.757 2.649-5.554c3.293-1.144 6.9-.26 10.2.147 4.287.535 8.509 1.68 12.763 2.403 2.485.422 4.938.8 7.444.646a19.791 19.791 0 0 1 5.197.42c2.082.508 4.026 1.381 6.064 1.922 2.039.54 4.091.773 6.18 1.012 4.532.46 9.03 1.342 13.479 2.292l6.95 1.493c1.086.223 2.284.698 3.383.613l2.11-.338c1.539-.164 2.491.385 3.864.967l5.06 2.139c.628-.048 1.199.01 1.574.539.825 1.07-.308 2.04.234 3.177.66 1.352 1.317 2.277 1.243 3.853-.093 1.688-.326 3.508-1.128 5.038-.562 1.027-1.25 2.111-.997 3.355.142.76.516 1.521.576 2.306.101 1.683-.174 3.302-.568 4.939-.396 1.87-.835 3.77-1.375 5.577-.356 1.179-1.043 2.263-1.28 3.423-.204.973-.043 1.852-.015 2.825.114 3.196-2.929 4.693-3.899 7.433-.526 1.5 1.322 1.116 1.958 2.154.387.686-.043 1.62-.19 2.253-.47 1.625-.255 3.327-.612 4.97-.427 2.058-1.356 3.643-1.219 5.798.066 1.211.093 2.417-.369 3.539-.462 1.123-2.317 3.828-.6 4.663.076.013.138.1.12.214-.09.527-.23.89-.539 1.341-1.098 1.673.209 1.508.236 2.713.04 1.13-.664 1.398-1.025 2.382-.54 1.575.116 2.964-.229 4.533-.287 1.462-1.256 2.149-1.223 3.55.075.012.176.106.156.22.03.74-.036 1.581-.421 2.252-.55.952-1.015 1.183.05 1.984.339-.175.294.089.087.17zm-11.193-53.307c.034-4.527.4-9.19-.35-13.656-.34-1.879-.314-3.85-2.327-4.54-2.634-.913-2.115 1.5-2.103 3.71-.036 3.402-.387 6.829-.078 10.251.218 2.362.856 5.22-1.862 2.976-4.526-3.907-5.125-10.866-6.312-16.18-.52-2.413-2.24-8.245-3.816-9.908-.757-.787-4.85-2.452-5.775-2.028-1.975.904 2.044 10.303 2.54 11.937 1.08 3.67 2.28 7.321 3.908 10.736 1.178 2.409 3.248 4.814-.395 5.511-3.77.754-5.163-1.537-7.258-3.79-1.677-1.758-4.086-2.4-6.45-3.073-6.492-1.918-12.907-2.234-18.965 1.268-2.925 1.71-5.043 4.371-6.91 7.153-.505.688-3.822 6.98-3.527 7.07-1.317-.456.049-3.478-1.997-1.928-1.818 1.357-.617 6.364-.215 8.098.929 3.877 1.946 7.691 2.51 11.661.565 3.97.841 3.939 4.254 4.83 4.334 1.163 8.894.544 13.314.753 0 0-6.868-6.088 7.415 1.726 3.19 1.743 6.817 2.05 10.337 2.765 2.624-.173 3.436-4.49 5.1-6.299.617-.67 3.717-4.093 4.522-4.266 1.162-.229 2.513 1.163 3.58 1.5 6.157 2.054 9-2.809 8.847-8.064-.11-4.59 1.224-9.476 2.447-12.793.481-1.235-.407-4.214-.434-5.42zM366.8 250.452c-.569-.756-1.56-1.079-2.122-1.872-.306-.478-.355-.874-.203-1.313 0 0-.038-.006-.032-.044-.335-.986.922-1.547 1.662-1.112.382.26.94.625.932 1.127-.072.647-.563 1.028-.772 1.574.407.34.75 1.057.925 1.397.105.289-.234.463-.39.243z" fill="#c1272d"/><text font-size="40" y="281.796" x="188.057" font-family="sans-serif" word-spacing="0" letter-spacing="0" transform="translate(-96.976 -72.51)"><tspan y="281.796" x="188.057">Pug is Jade!</tspan></text></svg>
