<?xml version="1.0" encoding="utf-8"?>
<!-- Generator: Adobe Illustrator 19.1.0, SVG Export Plug-In . SVG Version: 6.00 Build 0)  -->
<svg version="1.1" id="Layer_1" xmlns="http://www.w3.org/2000/svg" xmlns:xlink="http://www.w3.org/1999/xlink" x="0px" y="0px"
	 viewBox="0 0 1500 1500" style="enable-background:new 0 0 1500 1500;" xml:space="preserve">
<style type="text/css">
	.st0{fill:#00A99D;}
	.st1{fill:#F2F2F2;}
	.st2{fill:#ED1C24;}
	.st3{fill:#C1272D;}
	.st4{fill:#FF931E;}
	.st5{fill:#FFB81E;}
	.st6{fill:#F7BD89;}
	.st7{fill:#FBD5A0;}
	.st8{fill:#FFFFFF;}
	.st9{fill:#333333;stroke:#4D4D4D;stroke-width:4.1593;stroke-miterlimit:10;}
	.st10{fill:#4D4D4D;}
	.st11{fill:#808080;}
	.st12{fill:#323232;}
	.st13{fill:#989898;}
	.st14{fill:#CCCCCC;}
	.st15{fill:#B3B3B3;}
	.st16{fill:#656565;}
	.st17{fill:#4C3A2C;}
	.st18{fill:#261D16;}
</style>
<rect x="0" class="st0" width="1500" height="1500"/>
<g>
	<circle class="st1" cx="750" cy="596.5" r="274.9"/>
	<path class="st2" d="M832.8,759.3c-54.3,20-113.9,20-168.2,0c-5-1.8-9-7.7-9-12.8c0-4.4,0-8.7,0-13.1c0-5.1,4-7.6,9-5.8
		c54.3,20,113.9,20,168.2,0c5-1.8,9,0.7,9,5.8c0,4.4,0,8.7,0,13.1C841.8,751.6,837.8,757.4,832.8,759.3z"/>
	<path class="st3" d="M832.8,743.2c-54.3,27.8-113.9,27.8-168.2,0c-5-2.5-9-10.7-9-17.8c0-6,0-12.1,0-18.1c0-7.1,4-10.6,9-8
		c54.3,27.8,113.9,27.8,168.2,0c5-2.5,9,0.9,9,8c0,6,0,12.1,0,18.1C841.8,732.6,837.8,740.7,832.8,743.2z"/>
	<circle class="st3" cx="748.7" cy="766.1" r="7.7"/>
	<circle class="st4" cx="748.7" cy="764.9" r="6.6"/>
	<circle class="st5" cx="750.7" cy="767.2" r="2.3"/>
	<path class="st6" d="M915.6,623.4c5,68.5-69.1,130-165.9,129.9C653,753.4,578.8,692,583.9,623.4c5-68.7,79.5-125.4,166.1-125.5
		C836.6,498,910.6,554.7,915.6,623.4z"/>
	<path class="st7" d="M749.4,488.3c-91,0-175.5,64.1-159.5,161.7c3.2,9,8.5,32.4,33.8,53.1c7.6,6.2,20.7,11.4,26.9,7.2
		c15.9-10.8-12.3-41.8,19.9-70.4c0,0-0.2,0-0.7,0c17.5-13.3,42.3-23.9,79.4-23.9c37.1,0,61.9,10.6,79.4,23.9c-0.4,0-0.7,0-0.7,0
		c32.2,28.6,4.1,59.6,19.9,70.4c6.2,4.2,19.4-1,26.9-7.2c25.3-20.7,30.7-44.1,33.9-53.1C924.6,552.4,840.4,488.3,749.4,488.3z"/>
	<path d="M827.7,650.7c-15.3-18.8-44.3-36.7-78-36.7h-0.3h-0.1c-33.8,0-62.8,17.9-78,36.7c-15.8,19.2-10.1,27.3-10.1,45.7
		c0,66.6,23.3,47.4,39,55.4c16,7.8,32.2,5.2,49.2,5.2h0h0.3c17,0,33.2,2.5,49.2-5.3c15.6-8,39,11.6,39-55
		C837.9,678.3,843.5,669.9,827.7,650.7z"/>
	<g>
		<circle class="st6" cx="637.2" cy="620.8" r="27.9"/>
		<circle class="st6" cx="644.3" cy="608.4" r="7.2"/>
	</g>
	<g>
		<circle cx="639.6" cy="616.1" r="27.9"/>
		<circle class="st8" cx="646.8" cy="603.7" r="7.2"/>
	</g>
	<g>
		<circle class="st6" cx="861.2" cy="620.8" r="27.9"/>
		<circle class="st6" cx="868.3" cy="608.4" r="7.2"/>
	</g>
	<g>
		<circle cx="859.5" cy="616.1" r="27.9"/>
		<circle class="st8" cx="866.7" cy="603.7" r="7.2"/>
	</g>
	<path class="st6" d="M690.7,513.4c0,0-94.5,16.3-98.3,129.2c-0.1,1.7-1.9,2.8-3.4,1.9l-3-1.8l-2.3-29.6l4.3-60.4l39.4-29.1
		l35.4-14.3L690.7,513.4z"/>
	<path class="st6" d="M808.1,513.4c0,0,94.5,16.3,98.3,129.2c0.1,1.7,1.9,2.8,3.4,1.9l3-1.8l2.3-29.6l-4.3-60.4l-39.4-29.1
		L836,509.2L808.1,513.4z"/>
	<line class="st9" x1="749.6" y1="657.4" x2="749.6" y2="717.2"/>
	<g>
		<path d="M690.7,513.4c0,0-111.3,15.4-101.7,125.9c0.5,5.6-22.2-23.9-39.8-32.9c-17.6-9-17-38.1-17-38.1s-0.3-50.7,70.8-65.7
			S690.7,513.4,690.7,513.4z"/>
		<path d="M808.1,513.4c0,0,111.3,15.4,101.7,125.9c-0.5,5.6,22.2-23.9,39.8-32.9c17.6-9,17-38.1,17-38.1s0.3-50.7-70.8-65.7
			S808.1,513.4,808.1,513.4z"/>
	</g>
	<path class="st6" d="M749.5,592.9c-34.6,0-69.6,34-62.3,30.2c13.5-7.1,21.3-19.6,62.3-19.6c41,0,48.7,12.5,62.3,19.6
		C819.1,626.9,784.1,592.9,749.5,592.9z"/>
	<path class="st6" d="M749.5,578.1c-26.3,0-52.8,25.8-47.3,22.9c10.3-5.4,23.5-14.9,47.3-14.9c23.8,0,37,9.5,47.3,14.9
		C802.4,603.9,775.8,578.1,749.5,578.1z"/>
	<path class="st6" d="M749.4,494.3c-29,0-58.4,16.6-52.3,14.7c11.4-3.5,26-9.6,52.3-9.6c26.3,0,40.9,6.1,52.3,9.6
		C807.7,510.9,778.4,494.3,749.4,494.3z"/>
	<g>
		<path class="st10" d="M750,714.1c-6.4,0.2-15,4.2-23.3,6.7c-7.9,2.7-15.5,3.8-12.5,4.3c10.3,0.4,21.7-3.5,35.8-3.3
			c14-0.2,25.4,3.7,35.8,3.3c3-0.4-4.6-1.5-12.5-4.3C765,718.4,756.4,714.3,750,714.1z"/>
	</g>
	<path class="st10" d="M775.7,638.2c3.3,7.3-8.1,19.2-26.2,19.2c-18.1,0-29.5-11.9-26.2-19.2c3.2-7.5,14.7-9.9,26.2-10
		C760.9,628.4,772.5,630.8,775.7,638.2z"/>
	<path class="st11" d="M756,634.2c0.8,1.8-2,4.7-6.5,4.7c-4.5,0-7.3-2.9-6.5-4.7c0.8-1.8,3.6-2.4,6.5-2.5
		C752.4,631.8,755.2,632.4,756,634.2z"/>
	<circle class="st4" cx="748.7" cy="791.1" r="20.6"/>
	<circle class="st5" cx="748.7" cy="791.2" r="18.5"/>
	<g>
		<path class="st4" d="M754.2,785.3c1.1,1,1.7,2.4,1.7,4.4c0,2-0.6,3.4-1.7,4.4c-1.2,0.9-2.9,1.4-5.3,1.4h-2.1v4.5h-3.6v-16.1h5.7
			C751.3,783.9,753.1,784.4,754.2,785.3z M751.6,791.7c0.4-0.5,0.6-1.2,0.6-2.1c0-0.9-0.3-1.6-0.8-2c-0.6-0.4-1.4-0.6-2.6-0.6h-2
			v5.4h2.4C750.3,792.4,751.1,792.1,751.6,791.7z"/>
	</g>
</g>
<g>
	<path class="st8" d="M576.6,974.5h42.9v1.4c3-1.3,6.1-2.4,9.3-3.2c3.2-0.8,6.4-1.2,9.8-1.2c7.2,0,13.9,1.4,20.1,4.1
		c6.2,2.7,11.6,6.4,16.1,11.1c4.6,4.7,8.1,10.2,10.7,16.4s3.8,12.9,3.8,19.9c0,7.1-1.2,13.8-3.7,20c-2.5,6.3-6,11.7-10.5,16.4
		c-4.5,4.7-9.9,8.3-16.1,11c-6.2,2.7-13,4-20.4,4c-4.2,0-8.1-0.4-11.7-1.2c-3.6-0.8-7.1-1.9-10.4-3.4v21.5h18.8v26h-64.1v-26h16.1
		v-91h-10.6V974.5z M636.5,997.8c-4,0-7.7,1-11.2,3.1c-3.5,2.1-6.4,5-8.8,8.8v27.7c2,3.2,4.8,5.9,8.3,7.9c3.5,2,7.4,3,11.8,3
		c3.2,0,6.3-0.6,9.2-1.9c2.9-1.2,5.4-3,7.6-5.2c2.1-2.2,3.9-4.9,5.1-8c1.3-3.1,1.9-6.4,1.9-10c0-4-0.6-7.6-1.9-10.7
		c-1.2-3.2-2.9-5.8-5.1-8c-2.2-2.2-4.7-3.9-7.6-5C642.9,998.3,639.8,997.8,636.5,997.8z"/>
	<path class="st8" d="M759.4,974.5h46.5v72.3h11.9v26h-41.7v-8.4c-3.4,3-7.3,5.4-11.8,7c-4.5,1.6-9.7,2.5-15.6,2.5
		c-5.4,0-10.6-0.9-15.4-2.6c-4.8-1.7-9-4.3-12.6-7.7c-3.6-3.4-6.4-7.8-8.4-13c-2.1-5.2-3.1-11.3-3.1-18.3v-31.9h-12.8v-26h43.5v57.9
		c0,6.6,1.7,11.5,5,14.8c3.4,3.3,7.7,4.9,13.1,4.9c3.8,0,7.2-1.2,10.3-3.5c3.1-2.3,5.3-5.5,6.7-9.5v-38.5h-15.8V974.5z"/>
	<path class="st8" d="M900.1,1067.7c-3.5,2-7.1,3.5-10.6,4.4c-3.5,0.9-7.2,1.3-10.8,1.3c-7.6,0-14.6-1.3-21-3.9
		c-6.4-2.6-11.9-6.2-16.6-10.8c-4.6-4.6-8.3-10-10.9-16.3c-2.6-6.3-3.9-13.1-3.9-20.4c0-6.9,1.2-13.4,3.7-19.5
		c2.5-6.1,6-11.4,10.5-16c4.5-4.6,9.9-8.2,16.1-10.9c6.3-2.7,13.1-4,20.4-4.1c4.5,0.1,8.6,0.5,12.4,1.4c3.8,0.9,7.3,2.1,10.6,3.6
		v-2.1h28.8v94.2c0,8.3-1.4,15.5-4.3,21.5c-2.8,6-6.7,11-11.4,15c-4.8,4-10.3,6.9-16.7,8.8c-6.3,1.9-13,2.9-19.9,2.9
		c-8.6,0-16.6-1.2-23.9-3.5c-7.3-2.3-13.8-5.5-19.5-9.5l11.9-21.1c4.4,2.8,9.1,5,14.2,6.6c5.1,1.6,10.8,2.4,17.1,2.4
		c3.4,0,6.6-0.4,9.4-1.1c2.9-0.8,5.4-2,7.5-3.8c2.1-1.8,3.8-4.2,5-7.3c1.2-3,1.8-6.9,1.8-11.5V1067.7z M879.6,1047.1
		c4.4,0,8.4-1.1,12-3.4c3.6-2.2,6.4-5.2,8.5-8.9l0.2-23.9c-2.2-4-5.1-7.1-8.8-9.5c-3.7-2.3-7.8-3.5-12.1-3.6
		c-3.1,0.1-6.1,0.7-9.1,1.9c-3,1.2-5.6,2.8-7.7,5c-2.2,2.2-3.9,4.7-5.2,7.6c-1.3,2.9-1.9,6.2-1.9,9.8c0,3.8,0.6,7.2,1.9,10.3
		c1.3,3.1,3,5.7,5.1,7.9c2.1,2.2,4.7,3.8,7.6,5C873,1046.5,876.2,1047.1,879.6,1047.1z"/>
</g>
</svg>
