<?xml version="1.0" encoding="utf-8"?>
<!-- Generator: Adobe Illustrator 19.1.0, SVG Export Plug-In . SVG Version: 6.00 Build 0)  -->
<svg version="1.1" id="Layer_1" xmlns="http://www.w3.org/2000/svg" xmlns:xlink="http://www.w3.org/1999/xlink" x="0px" y="0px"
	 viewBox="0 0 550 550" style="enable-background:new 0 0 550 550;" xml:space="preserve">
<style type="text/css">
	.st0{fill:#00A99D;}
	.st1{fill:#F2F2F2;}
	.st2{fill:#ED1C24;}
	.st3{fill:#C1272D;}
	.st4{fill:#FF931E;}
	.st5{fill:#FFB81E;}
	.st6{fill:#F7BD89;}
	.st7{fill:#FBD5A0;}
	.st8{fill:#FFFFFF;}
	.st9{fill:#333333;stroke:#4D4D4D;stroke-width:4.1593;stroke-miterlimit:10;}
	.st10{fill:#4D4D4D;}
	.st11{fill:#808080;}
	.st12{fill:#323232;}
	.st13{fill:#989898;}
	.st14{fill:#CCCCCC;}
	.st15{fill:#B3B3B3;}
	.st16{fill:#656565;}
	.st17{fill:#4C3A2C;}
	.st18{fill:#261D16;}
</style>
<circle class="st1" cx="272.2" cy="276" r="274.9"/>
<g>
	<path class="st2" d="M355.6,428.4c-54.3,20-113.9,20-168.2,0c-5-1.8-9-7.7-9-12.8c0-4.4,0-8.7,0-13.1c0-5.1,4-7.6,9-5.8
		c54.3,20,113.9,20,168.2,0c5-1.8,9,0.7,9,5.8c0,4.4,0,8.7,0,13.1C364.6,420.7,360.6,426.6,355.6,428.4z"/>
	<path class="st3" d="M355.6,412.4c-54.3,27.8-113.9,27.8-168.2,0c-5-2.5-9-10.7-9-17.8c0-6,0-12.1,0-18.1c0-7.1,4-10.6,9-8
		c54.3,27.8,113.9,27.8,168.2,0c5-2.5,9,0.9,9,8c0,6,0,12.1,0,18.1C364.6,401.7,360.6,409.9,355.6,412.4z"/>
	<circle class="st3" cx="271.5" cy="435.2" r="7.7"/>
	<circle class="st4" cx="271.5" cy="434.1" r="6.6"/>
	<circle class="st5" cx="273.5" cy="436.4" r="2.3"/>
	<path class="st6" d="M438.4,292.6c5,68.5-69.1,130-165.9,129.9c-96.7,0.1-170.9-61.4-165.9-129.9c5-68.7,79.5-125.4,166.1-125.5
		C359.4,167.2,433.4,223.9,438.4,292.6z"/>
	<path class="st7" d="M272.4,157.5c-91,0-175.5,64.1-159.5,161.7c3.2,9,8.5,32.4,33.8,53.1c7.6,6.2,20.7,11.4,26.9,7.2
		c15.9-10.8-12.3-41.8,19.9-70.4c0,0-0.2,0-0.7,0c17.5-13.3,42.3-23.9,79.4-23.9c37.1,0,61.9,10.6,79.4,23.9c-0.4,0-0.7,0-0.7,0
		c32.2,28.6,4.1,59.6,19.9,70.4c6.2,4.2,19.4-1,26.9-7.2c25.3-20.7,30.7-44.1,33.9-53.1C447.6,221.5,363.4,157.5,272.4,157.5z"/>
	<path class="st17" d="M350.7,319.8c-15.3-18.8-44.3-36.8-78-36.8h-0.3h-0.1c-33.8,0-62.8,18-78,36.8
		c-15.8,19.2-10.1,27.3-10.1,45.7c0,66.6,23.3,47.4,39,55.4c16,7.8,32.2,5.1,49.2,5.1h0h0.3c17,0,33.2,2.6,49.2-5.2
		c15.6-8,39,11.6,39-55C360.9,347.4,366.5,339,350.7,319.8z"/>
	<g>
		<circle class="st6" cx="160" cy="290" r="27.9"/>
		<circle class="st6" cx="167.1" cy="277.6" r="7.2"/>
	</g>
	<g>
		<circle class="st6" cx="384" cy="290" r="27.9"/>
		<circle class="st6" cx="391.1" cy="277.6" r="7.2"/>
	</g>
	<path class="st6" d="M213.5,182.5c0,0-94.5,16.3-98.3,129.2c-0.1,1.7-1.9,2.8-3.4,1.9l-3-1.8l-2.3-29.6l4.3-60.4l39.4-29.1
		l35.4-14.3L213.5,182.5z"/>
	<path class="st6" d="M330.9,182.5c0,0,94.5,16.3,98.3,129.2c0.1,1.7,1.9,2.8,3.4,1.9l3-1.8l2.3-29.6l-4.3-60.4l-39.4-29.1
		l-35.4-14.3L330.9,182.5z"/>
	<g>
		<path class="st17" d="M213.7,182.5c0,0-111.3,15.4-101.7,125.9c0.5,5.6-22.2-23.9-39.8-32.9s-17-38.1-17-38.1s-0.3-50.7,70.8-65.7
			C197,156.8,213.7,182.5,213.7,182.5z"/>
		<path class="st17" d="M331.1,182.5c0,0,111.3,15.4,101.7,125.9c-0.5,5.6,22.2-23.9,39.8-32.9c17.6-9,17-38.1,17-38.1
			s0.3-50.7-70.8-65.7C347.7,156.8,331.1,182.5,331.1,182.5z"/>
	</g>
	<path class="st6" d="M272.5,262.1c-34.6,0-69.6,34-62.3,30.2c13.5-7.1,21.3-19.6,62.3-19.6s48.7,12.5,62.3,19.6
		C342.1,296.1,307.1,262.1,272.5,262.1z"/>
	<path class="st6" d="M272.5,247.2c-26.3,0-52.8,25.8-47.3,22.9c10.3-5.4,23.5-14.9,47.3-14.9s37,9.5,47.3,14.9
		C325.4,273.1,298.8,247.2,272.5,247.2z"/>
	<path class="st6" d="M272.4,163.5c-29,0-58.4,16.6-52.3,14.7c11.4-3.5,26-9.6,52.3-9.6s40.9,6.1,52.3,9.6
		C330.7,180.1,301.4,163.5,272.4,163.5z"/>
	<circle class="st4" cx="271.5" cy="460.3" r="20.6"/>
	<circle class="st5" cx="271.5" cy="460.4" r="18.5"/>
	<g>
		<path class="st4" d="M277,454.5c1.1,1,1.7,2.4,1.7,4.4s-0.6,3.4-1.7,4.4c-1.2,0.9-2.9,1.4-5.3,1.4h-2.1v4.5h-3.6v-16.1h5.7
			C274.1,453.1,275.9,453.6,277,454.5z M274.4,460.8c0.4-0.5,0.6-1.2,0.6-2.1c0-0.9-0.3-1.6-0.8-2s-1.4-0.6-2.6-0.6h-2v5.4h2.4
			C273.1,461.6,273.9,461.3,274.4,460.8z"/>
	</g>
	<g>
		<path class="st6" d="M154.6,258.3c0,0,22.6-4.3,29-5.9c5.1-1.3,12.9-10.1,14.5-2.4c1,4.6,0.6,35.8-11.8,50.5
			c-11.9,14-45.2-33.1-45.2-33.1L154.6,258.3z"/>
		<path class="st6" d="M390.9,258.3c0,0-22.6-4.3-29-5.9c-5.1-1.3-12.9-10.1-14.5-2.4c-1,4.6-0.6,35.8,11.8,50.5
			c11.9,14,45.2-33.1,45.2-33.1L390.9,258.3z"/>
		<g>
			<circle class="st8" cx="162.5" cy="285.3" r="27.9"/>
			<circle cx="161.4" cy="283.2" r="23.5"/>
			<circle class="st8" cx="158.7" cy="275.1" r="7.2"/>
		</g>
		<g>
			<circle class="st8" cx="382.4" cy="285.3" r="27.9"/>
			<circle cx="384.4" cy="283.2" r="23.5"/>
			<circle class="st8" cx="386.7" cy="275.1" r="7.2"/>
		</g>
	</g>
	<path class="st18" d="M329.9,394.3c0.5,0-35.4-3.4-56.9-3.3c-21.3,0-57.7,3.6-57.8,3.3c0,0,41.5-5.4,48.9-14.7s6-51.7,6-51.7
		c0-7.8-6.4-14.2-14.2-14.2c-1.5,0-3,0.3-4.4,0.7c0.1-0.5,0.2-0.9,0.4-1.3c2.6-6.1,12-8,21.3-8.2c9.3,0.1,18.7,2.1,21.3,8.2
		c0.2,0.5,0.3,1,0.4,1.5c-1.5-0.5-3.1-0.9-4.8-0.9c-7.8,0-14.2,6.4-14.2,14.2c0,0-1.5,44.2,5.3,51.6
		C287.8,386.9,329.9,394.3,329.9,394.3z"/>
</g>
</svg>
